<?xml version="1.0" encoding="utf-8"?>
<!-- Generator: Adobe Illustrator 27.5.0, SVG Export Plug-In . SVG Version: 6.00 Build 0)  -->
<svg version="1.1" xmlns="http://www.w3.org/2000/svg" xmlns:xlink="http://www.w3.org/1999/xlink" x="0px" y="0px"
	 viewBox="0 0 500 500" style="enable-background:new 0 0 500 500;" xml:space="preserve">
<!-- <g id="BACKGROUND">
	<rect style="fill:#F9EEE3;" width="500" height="500"/>
</g> -->
<g id="OBJECTS">
	<!-- <g>
		
			<ellipse transform="matrix(0.7071 -0.7071 0.7071 0.7071 -55.6665 230.1646)" style="opacity:0.3149;fill:#DBC0A7;" cx="250" cy="182.278" rx="135.209" ry="135.209"/>
		<ellipse style="opacity:0.3149;fill:#DBC0A7;" cx="250" cy="442.885" rx="171.101" ry="10.046"/>
	</g> -->
	<g>
		<g>
			<g>
				<g>
					<g>
						<path style="fill:#D9E2E1;" d="M91.589,390.395h327.454c4.481,0,8.114-3.633,8.114-8.114V159.038
							c0-4.481-3.633-8.114-8.114-8.114H91.589c-4.481,0-8.114,3.633-8.114,8.114v223.243
							C83.475,386.763,87.108,390.395,91.589,390.395z"/>
						<path style="fill:#FFFFFF;" d="M91.589,379.746h327.454c4.481,0,8.114-3.633,8.114-8.114V148.389
							c0-4.481-3.633-8.114-8.114-8.114H91.589c-4.481,0-8.114,3.633-8.114,8.114v223.243
							C83.475,376.113,87.108,379.746,91.589,379.746z"/>
						<path style="fill:#4F7E95;" d="M83.475,168.539h343.681v-20.15c0-4.481-3.633-8.114-8.114-8.114H91.589
							c-4.481,0-8.114,3.633-8.114,8.114V168.539z"/>
						<g style="opacity:0.2627;">
							<g>
								<g>
									<rect x="350.429" y="187.099" style="fill:none;stroke:#6BBCB6;stroke-miterlimit:10;" width="55.866" height="52.844"/>
									<rect x="288.906" y="187.099" style="fill:#6BBCB6;" width="55.866" height="52.844"/>
									<rect x="227.383" y="187.099" style="fill:none;stroke:#6BBCB6;stroke-miterlimit:10;" width="55.866" height="52.844"/>
									<rect x="165.86" y="187.099" style="fill:none;stroke:#6BBCB6;stroke-miterlimit:10;" width="55.866" height="52.844"/>
									<rect x="104.336" y="187.099" style="fill:none;stroke:#6BBCB6;stroke-miterlimit:10;" width="55.866" height="52.844"/>
									<g>
										<ellipse style="fill:#FFFFFF;" cx="316.839" cy="199.339" rx="21.021" ry="19.884"/>
									</g>
								</g>
								<g>
									<rect x="350.429" y="246.298" style="fill:none;stroke:#6BBCB6;stroke-miterlimit:10;" width="55.866" height="52.844"/>
									<rect x="288.906" y="246.298" style="fill:none;stroke:#6BBCB6;stroke-miterlimit:10;" width="55.866" height="52.844"/>
									<rect x="227.383" y="246.298" style="fill:none;stroke:#6BBCB6;stroke-miterlimit:10;" width="55.866" height="52.844"/>
									<rect x="165.86" y="246.298" style="fill:none;stroke:#6BBCB6;stroke-miterlimit:10;" width="55.866" height="52.844"/>
									<rect x="104.336" y="246.298" style="fill:none;stroke:#6BBCB6;stroke-miterlimit:10;" width="55.866" height="52.844"/>
								</g>
								<g>
									<rect x="350.429" y="305.496" style="fill:none;stroke:#6BBCB6;stroke-miterlimit:10;" width="55.866" height="52.844"/>
									<rect x="288.906" y="305.496" style="fill:none;stroke:#6BBCB6;stroke-miterlimit:10;" width="55.866" height="52.844"/>
									<rect x="227.383" y="305.496" style="fill:none;stroke:#6BBCB6;stroke-miterlimit:10;" width="55.866" height="52.844"/>
									<rect x="165.86" y="305.496" style="fill:none;stroke:#6BBCB6;stroke-miterlimit:10;" width="55.866" height="52.844"/>
									<rect x="104.336" y="305.496" style="fill:none;stroke:#6BBCB6;stroke-miterlimit:10;" width="55.866" height="52.844"/>
								</g>
							</g>
						</g>
						<g>
							<g>
								<path style="fill:#3B525B;" d="M331.574,152.953h-9.79c-0.362,0-0.656-0.294-0.656-0.656v-7.829
									c0-0.362,0.294-0.656,0.656-0.656h9.79c0.362,0,0.656,0.294,0.656,0.656v7.829
									C332.229,152.66,331.936,152.953,331.574,152.953z"/>
								<path style="fill:#3B525B;" d="M344.97,152.953h-9.79c-0.362,0-0.656-0.294-0.656-0.656v-7.829
									c0-0.362,0.294-0.656,0.656-0.656h9.79c0.362,0,0.656,0.294,0.656,0.656v7.829
									C345.626,152.66,345.332,152.953,344.97,152.953z"/>
								<path style="fill:#3B525B;" d="M358.241,152.953h-9.79c-0.362,0-0.656-0.294-0.656-0.656v-7.829
									c0-0.362,0.294-0.656,0.656-0.656h9.79c0.362,0,0.656,0.294,0.656,0.656v7.829
									C358.896,152.66,358.603,152.953,358.241,152.953z"/>
								<g>
									<g>
										<g>
											<g>
												<g>
													<path style="fill:#FFFFFF;" d="M323.879,148.751h1.061c0.361,0,0.654-0.293,0.654-0.655v-11.634
														c0-0.361-0.293-0.654-0.654-0.654h-1.061c-0.362,0-0.655,0.293-0.655,0.654v11.634
														C323.224,148.458,323.517,148.751,323.879,148.751z"/>
													<path style="fill:#FFFFFF;" d="M328.342,148.751h1.061c0.361,0,0.654-0.293,0.654-0.655v-11.634
														c0-0.361-0.293-0.654-0.654-0.654h-1.061c-0.361,0-0.654,0.293-0.654,0.654v11.634
														C327.687,148.458,327.98,148.751,328.342,148.751z"/>
												</g>
											</g>
										</g>
									</g>
								</g>
								<g>
									<g>
										<g>
											<g>
												<g>
													<path style="fill:#FFFFFF;" d="M337.015,148.751h1.061c0.361,0,0.654-0.293,0.654-0.655v-11.634
														c0-0.361-0.293-0.654-0.654-0.654h-1.061c-0.362,0-0.655,0.293-0.655,0.654v11.634
														C336.361,148.458,336.654,148.751,337.015,148.751z"/>
													<path style="fill:#FFFFFF;" d="M341.478,148.751h1.061c0.361,0,0.654-0.293,0.654-0.655v-11.634
														c0-0.361-0.293-0.654-0.654-0.654h-1.061c-0.361,0-0.654,0.293-0.654,0.654v11.634
														C340.824,148.458,341.117,148.751,341.478,148.751z"/>
												</g>
											</g>
										</g>
									</g>
								</g>
								<g>
									<g>
										<g>
											<g>
												<g>
													<path style="fill:#FFFFFF;" d="M350.152,148.751h1.061c0.361,0,0.654-0.293,0.654-0.655v-11.634
														c0-0.361-0.293-0.654-0.654-0.654h-1.061c-0.361,0-0.654,0.293-0.654,0.654v11.634
														C349.497,148.458,349.79,148.751,350.152,148.751z"/>
													<path style="fill:#FFFFFF;" d="M354.615,148.751h1.061c0.362,0,0.655-0.293,0.655-0.655v-11.634
														c0-0.361-0.293-0.654-0.655-0.654h-1.061c-0.361,0-0.654,0.293-0.654,0.654v11.634
														C353.96,148.458,354.253,148.751,354.615,148.751z"/>
												</g>
											</g>
										</g>
									</g>
								</g>
							</g>
							<g>
								<path style="fill:#3B525B;" d="M162.18,152.953h-9.79c-0.362,0-0.656-0.294-0.656-0.656v-7.829
									c0-0.362,0.294-0.656,0.656-0.656h9.79c0.362,0,0.656,0.294,0.656,0.656v7.829
									C162.836,152.66,162.542,152.953,162.18,152.953z"/>
								<path style="fill:#3B525B;" d="M175.577,152.953h-9.79c-0.362,0-0.656-0.294-0.656-0.656v-7.829
									c0-0.362,0.294-0.656,0.656-0.656h9.79c0.362,0,0.656,0.294,0.656,0.656v7.829
									C176.233,152.66,175.939,152.953,175.577,152.953z"/>
								<path style="fill:#3B525B;" d="M188.847,152.953h-9.79c-0.362,0-0.656-0.294-0.656-0.656v-7.829
									c0-0.362,0.293-0.656,0.656-0.656h9.79c0.362,0,0.656,0.294,0.656,0.656v7.829
									C189.503,152.66,189.209,152.953,188.847,152.953z"/>
								<g>
									<g>
										<g>
											<g>
												<g>
													<path style="fill:#FFFFFF;" d="M154.485,148.751h1.061c0.361,0,0.654-0.293,0.654-0.655v-11.634
														c0-0.361-0.293-0.654-0.654-0.654h-1.061c-0.361,0-0.654,0.293-0.654,0.654v11.634
														C153.831,148.458,154.124,148.751,154.485,148.751z"/>
													<path style="fill:#FFFFFF;" d="M158.948,148.751h1.061c0.361,0,0.654-0.293,0.654-0.655v-11.634
														c0-0.361-0.293-0.654-0.654-0.654h-1.061c-0.361,0-0.654,0.293-0.654,0.654v11.634
														C158.294,148.458,158.587,148.751,158.948,148.751z"/>
												</g>
											</g>
										</g>
									</g>
								</g>
								<g>
									<g>
										<g>
											<g>
												<g>
													<path style="fill:#FFFFFF;" d="M167.622,148.751h1.061c0.361,0,0.654-0.293,0.654-0.655v-11.634
														c0-0.361-0.293-0.654-0.654-0.654h-1.061c-0.361,0-0.654,0.293-0.654,0.654v11.634
														C166.967,148.458,167.26,148.751,167.622,148.751z"/>
													<path style="fill:#FFFFFF;" d="M172.085,148.751h1.061c0.362,0,0.655-0.293,0.655-0.655v-11.634
														c0-0.361-0.293-0.654-0.655-0.654h-1.061c-0.361,0-0.654,0.293-0.654,0.654v11.634
														C171.43,148.458,171.723,148.751,172.085,148.751z"/>
												</g>
											</g>
										</g>
									</g>
								</g>
								<g>
									<g>
										<g>
											<g>
												<g>
													<path style="fill:#FFFFFF;" d="M180.758,148.751h1.061c0.361,0,0.654-0.293,0.654-0.655v-11.634
														c0-0.361-0.293-0.654-0.654-0.654h-1.061c-0.361,0-0.654,0.293-0.654,0.654v11.634
														C180.104,148.458,180.397,148.751,180.758,148.751z"/>
													<path style="fill:#FFFFFF;" d="M185.221,148.751h1.061c0.361,0,0.654-0.293,0.654-0.655v-11.634
														c0-0.361-0.293-0.654-0.654-0.654h-1.061c-0.361,0-0.654,0.293-0.654,0.654v11.634
														C184.567,148.458,184.86,148.751,185.221,148.751z"/>
												</g>
											</g>
										</g>
									</g>
								</g>
							</g>
						</g>
					</g>
					<path style="fill:none;stroke:#6BBCB6;stroke-width:2;stroke-linecap:round;stroke-linejoin:round;stroke-miterlimit:10;" d="
						M311.341,220.255c1.088,0.186,2.208,0.283,3.353,0.283c10.351,0,18.742-7.937,18.742-17.728"/>
					<path style="fill:none;stroke:#6BBCB6;stroke-width:2;stroke-linecap:round;stroke-linejoin:round;stroke-miterlimit:10;" d="
						M301.144,215.058c1.271,1.257,2.735,2.338,4.348,3.2"/>
					<path style="fill:none;stroke:#6BBCB6;stroke-width:2;stroke-linecap:round;stroke-linejoin:round;stroke-miterlimit:10;" d="
						M304.612,187.863c-5.207,3.149-8.66,8.667-8.66,14.947c0,2.881,0.726,5.601,2.015,8.005"/>
					<g>
						<path style="fill:#4F7E95;" d="M316.2,211.68c-0.005,0-0.009,0-0.014,0c-0.552-0.004-1.077-0.235-1.452-0.639l-11.061-11.917
							c-0.751-0.809-0.704-2.075,0.105-2.827c0.808-0.751,2.073-0.706,2.826,0.105l9.615,10.359l24.036-25.202
							c0.763-0.799,2.029-0.828,2.827-0.067c0.8,0.762,0.83,2.028,0.067,2.828l-25.503,26.74
							C317.269,211.456,316.747,211.68,316.2,211.68z"/>
					</g>
				</g>
				<g style="opacity:0.4745;">
					<path style="fill:#3B525B;" d="M382.802,162.42H127.829c-1,0-1.811-0.28-1.811-0.626c0-0.345,0.811-0.626,1.811-0.626h254.972
						c1.001,0,1.811,0.28,1.811,0.626C384.612,162.14,383.803,162.42,382.802,162.42z"/>
				</g>
				<g>
					<g style="opacity:0.2238;">
						<path style="fill:#6BBCB6;" d="M379.339,270.311h-17.372c-1.19,0-2.155-0.913-2.155-2.038s0.965-2.038,2.155-2.038h17.372
							c1.19,0,2.155,0.913,2.155,2.038S380.529,270.311,379.339,270.311z"/>
					</g>
					<g style="opacity:0.2238;">
						<path style="fill:#6BBCB6;" d="M397.513,282.193h-35.546c-1.19,0-2.155-0.913-2.155-2.038c0-1.125,0.965-2.038,2.155-2.038
							h35.546c1.19,0,2.155,0.913,2.155,2.038C399.668,281.28,398.703,282.193,397.513,282.193z"/>
					</g>
				</g>
				<g>
					<g style="opacity:0.2238;">
						<path style="fill:#6BBCB6;" d="M132.122,212.082H114.75c-1.19,0-2.155-0.913-2.155-2.038c0-1.125,0.964-2.038,2.155-2.038
							h17.372c1.19,0,2.155,0.913,2.155,2.038C134.277,211.169,133.312,212.082,132.122,212.082z"/>
					</g>
					<g style="opacity:0.2238;">
						<path style="fill:#6BBCB6;" d="M151.124,228.786h-21.899c-0.733,0-1.327-0.913-1.327-2.038c0-1.125,0.594-2.038,1.327-2.038
							h21.899c0.733,0,1.327,0.913,1.327,2.038C152.452,227.873,151.857,228.786,151.124,228.786z"/>
					</g>
					<g style="opacity:0.2238;">
						<path style="fill:#6BBCB6;" d="M151.124,235.891h-21.899c-0.733,0-1.327-0.913-1.327-2.038c0-1.125,0.594-2.038,1.327-2.038
							h21.899c0.733,0,1.327,0.913,1.327,2.038C152.452,234.977,151.857,235.891,151.124,235.891z"/>
					</g>
				</g>
			</g>
			<g style="opacity:0.2238;">
				<path style="fill:#6BBCB6;" d="M255.325,322.541H241.5c-0.947,0-1.715-0.727-1.715-1.622s0.768-1.622,1.715-1.622h13.825
					c0.947,0,1.715,0.727,1.715,1.622S256.272,322.541,255.325,322.541z"/>
			</g>
			<g style="opacity:0.2238;">
				<path style="fill:#6BBCB6;" d="M269.789,331.997H241.5c-0.947,0-1.715-0.727-1.715-1.622c0-0.896,0.768-1.622,1.715-1.622
					h28.289c0.947,0,1.715,0.727,1.715,1.622C271.504,331.271,270.736,331.997,269.789,331.997z"/>
			</g>
		</g>
		<g>
			<path style="fill:#6BBCB6;" d="M183.095,203.256h-9.629c-0.45,0-0.815-0.365-0.815-0.815v-9.02c0-0.45,0.365-0.815,0.815-0.815
				h9.629c0.45,0,0.815,0.365,0.815,0.815v9.02C183.91,202.891,183.546,203.256,183.095,203.256z"/>
			<path style="fill:#6BBCB6;" d="M245.377,203.256h-9.629c-0.45,0-0.815-0.365-0.815-0.815v-9.02c0-0.45,0.365-0.815,0.815-0.815
				h9.629c0.45,0,0.815,0.365,0.815,0.815v9.02C246.192,202.891,245.827,203.256,245.377,203.256z"/>
			<path style="fill:#6BBCB6;" d="M120.814,264.111h-9.629c-0.45,0-0.815-0.365-0.815-0.815v-9.02c0-0.45,0.365-0.815,0.815-0.815
				h9.629c0.45,0,0.815,0.365,0.815,0.815v9.02C121.629,263.746,121.264,264.111,120.814,264.111z"/>
			<path style="fill:#CB7252;" d="M183.095,264.111h-9.629c-0.45,0-0.815-0.365-0.815-0.815v-9.02c0-0.45,0.365-0.815,0.815-0.815
				h9.629c0.45,0,0.815,0.365,0.815,0.815v9.02C183.91,263.746,183.546,264.111,183.095,264.111z"/>
			<path style="fill:#CB7252;" d="M308.147,324.966h-9.629c-0.45,0-0.815-0.365-0.815-0.815v-9.02c0-0.45,0.365-0.815,0.815-0.815
				h9.629c0.45,0,0.815,0.365,0.815,0.815v9.02C308.962,324.601,308.597,324.966,308.147,324.966z"/>
			<path style="fill:#6BBCB6;" d="M369.94,324.966h-9.629c-0.45,0-0.815-0.365-0.815-0.815v-9.02c0-0.45,0.365-0.815,0.815-0.815
				h9.629c0.45,0,0.815,0.365,0.815,0.815v9.02C370.755,324.601,370.39,324.966,369.94,324.966z"/>
			<path style="fill:#CB7252;" d="M245.377,264.111h-9.629c-0.45,0-0.815-0.365-0.815-0.815v-9.02c0-0.45,0.365-0.815,0.815-0.815
				h9.629c0.45,0,0.815,0.365,0.815,0.815v9.02C246.192,263.746,245.827,264.111,245.377,264.111z"/>
			<path style="fill:#F9D953;" d="M120.814,324.966h-9.629c-0.45,0-0.815-0.365-0.815-0.815v-9.02c0-0.45,0.365-0.815,0.815-0.815
				h9.629c0.45,0,0.815,0.365,0.815,0.815v9.02C121.629,324.601,121.264,324.966,120.814,324.966z"/>
			<path style="fill:#6BBCB6;" d="M183.095,324.966h-9.629c-0.45,0-0.815-0.365-0.815-0.815v-9.02c0-0.45,0.365-0.815,0.815-0.815
				h9.629c0.45,0,0.815,0.365,0.815,0.815v9.02C183.91,324.601,183.546,324.966,183.095,324.966z"/>
			<path style="fill:#6BBCB6;" d="M369.94,203.256h-9.629c-0.45,0-0.815-0.365-0.815-0.815v-9.02c0-0.45,0.365-0.815,0.815-0.815
				h9.629c0.45,0,0.815,0.365,0.815,0.815v9.02C370.755,202.891,370.39,203.256,369.94,203.256z"/>
		</g>
	</g>
	<g>
		<g>
			<path style="fill:#EDB984;" d="M225.198,221.616c-0.163-0.814,0.754-1.946,1.157-2.566c0.869-1.338,1.84-2.612,2.802-3.884
				c2.545-3.367,4.987-6.842,8.372-9.438c0.423-0.324,1.322-1.038,1.85-1.113c0.64-0.09,0.847,0.596,1.334,1.021
				c0.486,0.425,0.837,0.981,1.174,1.532c0.96,1.572,34.364,42.659,43.237,51.389c2.942,2.894,6.079,5.996,6.917,10.037
				c0.157,0.759,0.49,3.064,0.19,3.779c-0.743,1.774-2.605,3.814-7.349,2.419c-2.286-0.672-4.324-1.976-6.318-3.281
				c-12.056-7.886-22.253-18.002-33.692-26.676c-4.787-3.63-9.158-7.911-13.011-12.516
				C229.785,229.839,225.198,225.17,225.198,221.616z"/>
		</g>
		<g>
			<g>
				<g style="opacity:0.2023;">
					<path style="fill:#F0C692;" d="M228.641,223.093c0.198,0.989,0.546,1.863,0.86,2.743c0.027-1.658,0.048-3.282-0.027-4.797
						c-0.075-1.453-0.587-2.654-1.037-3.93C228.225,219.354,228.321,221.496,228.641,223.093z"/>
				</g>
				<g style="opacity:0.2023;">
					<path style="fill:#F0C692;" d="M230.231,236.275c0.007-2.538,0.116-5.076,0-7.362c-0.055-1.133-0.375-2.108-0.73-3.077
						C229.447,229.384,229.378,233.096,230.231,236.275z"/>
				</g>
				<g>
					<path style="fill:#3B525B;" d="M205.161,271.257c-6.34,53.359-5.74,106.686-6.698,157.116
						c6.103,0.624,15.062,1.166,21.165,1.79c1.562,0.16,3.325,0.259,4.502-0.78c1.04-0.919,1.269-2.427,1.426-3.805
						c2.081-18.189,17.53-117.193,36.879-157.193"/>
					<path style="fill:#3B525B;" d="M224.668,277.129c15.628,62.139,19.907,91.721,31.948,152.046
						c6.12-0.435,12.239-0.871,18.358-1.306c1.566-0.111,3.32-0.317,4.301-1.543c0.866-1.084,0.832-2.609,0.75-3.994
						c-1.08-18.276-6.513-138.986-9.537-157.042"/>
					<g>
						<g>
							<g>
								<g>
									<g>
										<g>
											<g>
												<path style="fill:#F7C894;" d="M224.107,167.731c0.865,0.534,1.729,1.09,2.598,1.656
													c0.313,0.199,0.621,0.411,0.934,0.61c2.853,1.872,5.716,3.717,8.754,4.931c0.531,0.201,1.058,0.393,1.598,0.568
													c1.429,0.441,2.903,0.727,4.445,0.79c0.044,0,0.079,0.005,0.126,0.015c0.022,0,0.031-0.004,0.031-0.004
													c2.489,0.09,6.304-0.949,8.336-2.4c2.395-1.709,3.244-3.862,4.261-6.121c2.961-6.583,0.424-14.687-0.106-21.743
													c-0.047-0.622-0.4-1.176-0.653-1.749c-0.689-1.553-1.686-2.953-2.793-4.22c-3.948-4.521-9.652-7.556-15.579-7.652
													c-5.94-0.1-11.966,2.959-14.996,8.164c-1.158,2.008-1.877,4.252-2.348,6.539
													C217.233,154.308,217.955,163.92,224.107,167.731z"/>
											</g>
											<path style="fill:#F7C894;" d="M229.696,185.618c2.788,0.833,6.465,0.679,9.138-0.544
												c2.29-1.048,3.177-3.293,3.424-5.705c0.029-0.281,0.053-0.57,0.069-0.877c0.033-0.726,0.074-1.457,0.107-2.183
												c-0.004-0.009,0.005-0.013,0-0.022c0.192-3.867,0.375-7.73,0.567-11.597c-0.004-0.009-0.004-0.009-0.009-0.018
												c0.01-0.093,0.019-0.187,0.02-0.276c0.005-0.125,0.006-0.236,0.003-0.357c-0.026-0.963-0.372-1.8-1.025-2.55
												c-0.718-0.84-1.704-1.424-2.74-1.817c-1.698-0.662-3.566-0.818-5.36-0.523c-1.671,0.278-3.267,0.941-4.618,1.98
												c-0.053,0.026-0.097,0.07-0.145,0.106c-1.016,0.806-1.865-0.579-1.955,0.731c-0.092,1.488-0.188,2.967-0.28,4.454
												c-0.061,0.985-0.127,1.982-0.188,2.967c-0.107,1.751-0.219,3.492-0.327,5.243c-0.015,0.196-0.025,0.379-0.04,0.575
												c-0.104,1.668-0.59,4.248-0.476,6.097c0.113,1.849,0.826,2.966,2.67,3.865
												C228.902,185.348,229.292,185.497,229.696,185.618z"/>
											<g>
												<g>
													<path style="fill:#38302A;" d="M247.858,157.498c0.002-0.747-0.205-1.557-0.702-2.061
														c-0.326-0.331-0.786-0.537-1.245-0.497c-0.216,0.019-0.426,0.091-0.619,0.194c-0.436,0.234-0.784,0.634-0.959,1.104
														c-0.478,1.283,0.167,3.054,1.61,3.26c0.892,0.127,1.713-0.481,1.864-1.381
														C247.84,157.921,247.857,157.712,247.858,157.498z"/>
												</g>
												<g>
													<path style="fill:#FFFFFF;" d="M246.064,156.694c-0.011-0.245-0.047-0.494-0.226-0.675
														c-0.107-0.108-0.257-0.176-0.408-0.163c-0.071,0.006-0.14,0.03-0.203,0.063c-0.143,0.077-0.257,0.208-0.314,0.361
														c-0.156,0.42,0.055,1,0.527,1.068c0.22,0.031,0.459-0.081,0.56-0.282C246.058,156.953,246.07,156.821,246.064,156.694z
														"/>
												</g>
												
													<path style="fill:none;stroke:#664238;stroke-width:0.5;stroke-linecap:round;stroke-linejoin:round;stroke-miterlimit:10;" d="
													M253.808,153.815c0.353,1.823,1.222,3.482,2.165,5.071c0.15,0.254,0.259,0.617,0.222,0.911
													c-0.067,0.536-0.791,0.891-1.048,1.363"/>
												<path style="fill:#F2AF6B;" d="M247.406,163.371c0.223,1.264-1.176,2.579-3.125,2.938
													c-1.95,0.359-3.711-0.374-3.935-1.638c-0.223-1.264,1.176-2.579,3.125-2.938
													C245.421,161.374,247.182,162.107,247.406,163.371z"/>
											</g>
											<path style="fill:#89514E;" d="M245.293,153.497c-0.413,0.198-0.873,0.344-1.325,0.283
												c-0.086-0.011-0.174-0.033-0.241-0.088c-0.153-0.127-0.136-0.367-0.102-0.566c0.083-0.481,0.184-0.958,0.302-1.431
												c0.061-0.242,0.428-1.068,0.288-1.257c-0.386,0.605-0.656,1.308-1.011,1.937c-0.362,0.641-0.759,1.264-1.216,1.84
												c-0.531,0.669-1.892,2.002-4.446,2.723c-0.132,0.037-0.293-0.036-0.361-0.158c-0.041-0.073-0.038-0.162-0.031-0.245
												c0.055-0.626,0.327-1.23,0.291-1.858c-0.077-0.053-0.165,0.055-0.193,0.145c-0.622,1.988-2.145,2.84-2.528,2.897
												c-0.066,0.01-0.138,0.018-0.195-0.017c-0.1-0.062-0.094-0.209-0.078-0.327c0.109-0.809,0.15-1.866-0.137-2.64
												c-0.571,0.558-0.728,1.487-0.893,2.238c-0.197,0.896-1.445,7.273-2.809,6.582c-0.156-0.079-0.259-0.236-0.352-0.387
												c-1.234-2.001-1.508-4.856-4.208-5.282c-0.808-0.128-1.699,0.088-2.253,0.702c-0.807,0.895-0.978,2.859-0.64,4.025
												c0.461,1.588,1.595,2.6,3.009,3.413c0.495,0.285,1.064,0.483,1.425,0.931c1.246,1.549,0.013,6.627-1.63,7.644
												c-2.728,1.688-6.749-0.888-6.979-3.574c-4.013-0.372-7.383-4.307-7.207-8.415c0.023-0.539,0.098-1.088-0.029-1.612
												c-0.122-0.501-0.906-0.905-1.256-1.277c-6.342-6.727-1.145-11.61,0.86-12.401c-0.456-1.302-0.397-3.966,0-5.15
												c1.494-4.46,4.422-9.152,10.782-8.873c-0.273-1.849,1.941-4.863,3.396-6.07c3.6-2.986,8.57-1.442,10.13-0.59
												c1.266-1.317,2.821-2.278,4.551-2.787c3.694-1.087,7.894-0.178,10.837,2.346c3.258,2.794,4.68,7.06,5.39,11.208
												C257.245,142.141,255.293,148.717,245.293,153.497z"/>
											
												<path style="fill:none;stroke:#664238;stroke-width:0.5;stroke-linecap:round;stroke-linejoin:round;stroke-miterlimit:10;" d="
												M250.552,165.464c0.129,0.592,0.612,1.064,1.17,1.273c0.558,0.209,1.181,0.182,1.757,0.035"/>
										</g>
										<path style="opacity:0.2023;fill:#F7C894;" d="M236.099,174.431c0,0,0.09,0.188,0.293,0.498
											c0.655,1.005,2.448,3.272,5.866,4.441c0.029-0.281,0.053-0.57,0.069-0.877c0.033-0.726,0.074-1.457,0.107-2.183
											c-0.516,0.058-2.264,0.13-4.444-0.813c0,0-0.004-0.009-0.017-0.014C237.377,175.214,236.746,174.874,236.099,174.431z"/>
									</g>
								</g>
								<g>
									<path style="fill:#F2AF6B;" d="M227.925,164.256c-0.129,0-0.239-0.1-0.249-0.231c-0.267-3.444-2.413-3.634-2.504-3.64
										c-0.137-0.01-0.242-0.128-0.233-0.266c0.009-0.137,0.123-0.237,0.264-0.233c0.026,0.001,2.669,0.205,2.971,4.101
										c0.011,0.137-0.092,0.258-0.23,0.268C227.939,164.256,227.932,164.256,227.925,164.256z"/>
								</g>
								<g>
									<path style="fill:#F2AF6B;" d="M227.374,162.149c-0.052,0-0.105-0.016-0.15-0.05c-0.957-0.716-1.947-0.329-1.988-0.311
										c-0.128,0.049-0.273-0.009-0.326-0.137c-0.052-0.127,0.008-0.272,0.135-0.325c0.053-0.021,1.29-0.517,2.479,0.374
										c0.11,0.083,0.133,0.24,0.05,0.35C227.525,162.115,227.449,162.149,227.374,162.149z"/>
								</g>
							</g>
						</g>
						<g>
							<path style="fill:#CB7252;" d="M201.061,277.583c0.072,1.43,0.173,2.524,0.278,3.955c0.314,4.272,70.478,1.324,71.264-0.792
								c1.197-3.221-4.376-40.094-6.319-47.409c-2.053-7.73-4.106-15.461-6.314-23.147c-1.601-5.574-3.313-11.195-6.307-16.135
								c-2.224-3.669-3.413-5.209-6.469-8.193c-2.746-2.68-18.662-9.273-24.617-7.442c-7.713,2.372-16.692,16.683-18.403,23.396
								C200.855,214.84,200.354,263.484,201.061,277.583z"/>
						</g>
						<g>
							<g>
								<path style="fill:#EDB984;" d="M276.567,216.163c0.07,1.41-0.26,2.84-0.8,4.14c-3.29,7.96-13.21,26.48-15.83,30.03
									c-2.13,2.88-4.6,7.48-8.54,7.16c-6.98-0.57-17.29-9.06-24.47-17.12l15.92-14.9c1.76,2.42,3.64,4.75,4.99,5.74
									c2.41,1.77,7.53-5.26,8.59-6.69c0.95-1.29,1.97-2.52,3-3.74c2.59-3.09,5.16-6.17,7.59-9.39c1.59-2.1,5.34-0.06,7.63,1.21
									C275.867,213.283,276.507,214.743,276.567,216.163z"/>
							</g>
							<g>
								<path style="fill:#EDB984;" d="M270.077,221.238c-0.605-4.641-5.454-6.329-3.46-9.317c1.839-2.756,4.396-5.694,6.334-7.458
									c2.157-2.08,10.434-9.99,13.079-9.817c0.558,0.037,1.149,0.217,1.485,0.674c0.285,0.388,0.334,0.915,0.239,1.39
									c-0.276,1.386-4.573,5.483-5.669,6.438c1.247,0.121,2.487,1.284,2.051,2.739c0.689-0.044,2.195,1.275,1.484,2.871
									c1.729,0.6,2.041,3.079,0.023,5.19c-1.293,1.353-3.504,3.111-5.035,4.194c0,0-4.048,3.339-7.841,0.524"/>
							</g>
							<g>
								<path style="fill:#EDB984;" d="M273.648,205.74c0.307-2.161,0.235-4.378-0.21-6.514c-0.117-0.563-0.268-1.138-0.613-1.595
									c-0.344-0.456-0.927-0.769-1.476-0.632c-0.871,0.218-1.15,1.32-1.251,2.229c-0.373,3.357-1.757,7.443-1.654,10.82"/>
							</g>
						</g>
					</g>
				</g>
			</g>
			<g>
				<path style="fill:#4F7E95;" d="M223.434,420.9c0.377-0.218,0.746-0.452,1.106-0.703c0.898-0.628,1.923-1.399,2.959-1.07
					c0.577,0.183,1.005,0.676,1.401,1.147c3.032,3.604,6.039,6.558,9.629,9.571c2.82,2.367,5.957,5.826,4.654,9.335
					c-1.277,3.439-5.715,3.905-9.271,3.795c-6.261-0.194-12.522-0.409-18.781-0.644c-3.13-0.118-6.259-0.257-9.389-0.368
					c-1.809-0.064-3.611,0.19-5.385-0.358c-1.259-0.389-2.453-1.222-2.987-2.465c-0.364-0.848-0.394-1.805-0.417-2.733
					c-0.138-5.476,0.952-9.893,1.501-16.262C210.602,425.676,220.578,422.547,223.434,420.9z"/>
			</g>
			<g>
				<path style="fill:#4F7E95;" d="M278.733,417.552c0.528-0.379,1.152-0.801,1.775-0.614c0.255,0.077,0.469,0.248,0.676,0.416
					c4.909,3.978,9.817,7.955,14.726,11.933c2.921,2.367,6.169,5.826,4.82,9.335c-1.322,3.439-5.918,3.905-9.601,3.795
					c-6.485-0.194-12.969-0.409-19.452-0.644c-3.242-0.118-6.483-0.257-9.724-0.368c-2.536-0.087-4.844,0.156-6.149-2.523
					c-0.711-1.461-0.804-3.135-0.884-4.758c-0.2-4.051-0.4-8.102-0.6-12.152c-0.114-2.308,2.98-0.4,4.353-0.131
					c2.298,0.45,4.659,0.578,6.993,0.399C270.334,421.88,274.922,420.287,278.733,417.552z"/>
			</g>
		</g>
		<g>
			<path style="fill:#89514E;" d="M203.79,185.214c-1.283,0.669-2.549,1.366-3.702,2.116c-0.697,0.453-1.368,0.977-1.836,1.665
				c-0.783,1.151-0.908,2.644-0.684,4.017c0.225,1.374,0.766,2.671,1.231,3.983c0.588,1.66,1.058,3.361,1.405,5.088
				c0.288,1.432,0.11,3.506,0.683,4.815c0.633,1.448,2.266,2.627,3.824,2.09c2.755-0.95,3.979-5.867,4.825-8.276
				c1.221-3.478,2.987-6.881,5.807-9.254c2.819-2.372,6.477-3.87,10.162-3.912c6.863-0.078,23.141,2.164,23.491,0.411
				c0.07-0.349-5.402-3.502-6.842-4.153c-2.453-1.108-4.996-2.016-7.594-2.72c-5.732-1.553-11.433-1.361-17.261-0.383
				c-3.124,0.524-6.983,1.132-9.806,2.612C206.305,183.935,205.04,184.561,203.79,185.214z"/>
		</g>
		<path style="fill:none;stroke:#664238;stroke-width:0.5;stroke-linecap:round;stroke-linejoin:round;stroke-miterlimit:10;" d="
			M203.207,208.955c0,0,2.93,1.116,5.232-5.093c0,0,2.93-18.488,20.86-16.047c0,0,17.279,2.186,19.279,0.163"/>
		<path style="fill:none;stroke:#664238;stroke-width:0.5;stroke-linecap:round;stroke-linejoin:round;stroke-miterlimit:10;" d="
			M248.579,187.978c0,0-10.68-9.913-29.378-7.331"/>
		<path style="fill:none;stroke:#C16248;stroke-width:0.5;stroke-linecap:round;stroke-miterlimit:10;" d="M212.765,220.816
			c0,0,5.721,10.535,14.161,19.558"/>
		<path style="fill:none;stroke:#C16248;stroke-width:0.5;stroke-linecap:round;stroke-miterlimit:10;" d="M229.878,204.608
			c0,0,5.05,11.486,12.968,20.865"/>
		<g>
			<g>
				<path style="fill:#EDB984;" d="M280.951,268.556c4.125-1.63,4.544-6.565,7.757-5.379c2.964,1.094,6.262,2.819,8.337,4.233
					c2.416,1.547,5.06,3.049,5.519,5.569c0.097,0.532,0.069,1.128-0.272,1.547c-0.29,0.356-0.776,0.95-1.903,1.151
					c0.18,1.198-0.599,2.627-2.039,2.551c0.201,0.636-0.66,2.351-2.293,2.05c-0.147,1.759-2.353,2.62-4.766,1.211
					c-1.547-0.903-3.679-2.575-5.033-3.763c0,0-4.016-3.033-2.314-7.236"/>
			</g>
			<g>
				<path style="fill:#4F7E95;" d="M286.147,284.991l-9.622-7.707c-0.883-0.707-1.025-1.996-0.318-2.878l14.224-17.759
					c0.707-0.883,1.996-1.025,2.878-0.318l9.622,7.707c0.883,0.707,1.025,1.996,0.318,2.878l-14.224,17.759
					C288.318,285.556,287.03,285.698,286.147,284.991z"/>
				<path style="fill:#3B525B;" d="M286.107,283.664l-8.279-6.631c-0.883-0.707-1.025-1.996-0.318-2.878l12.96-16.181
					c0.707-0.883,1.996-1.025,2.878-0.318l8.279,6.631c0.883,0.707,1.025,1.996,0.318,2.878l-12.96,16.181
					C288.279,284.229,286.99,284.371,286.107,283.664z"/>
			</g>
			<path style="fill:#EDB984;stroke:#DBA76E;stroke-width:0.75;stroke-linecap:round;stroke-miterlimit:10;" d="M297.705,277.684
				l-4.505-3.43c0,0-0.889-0.809-0.1-1.951c0,0,0.668-1.283,2.133-0.403l4.212,2.944"/>
			<path style="fill:#EDB984;stroke:#DBA76E;stroke-width:0.75;stroke-linecap:round;stroke-miterlimit:10;" d="M299.555,275.023
				l-4.505-3.43c0,0-0.889-0.809-0.1-1.951c0,0,0.668-1.283,2.133-0.403l4.212,2.945"/>
			<path style="fill:#EDB984;stroke:#DBA76E;stroke-width:0.75;stroke-linecap:round;stroke-miterlimit:10;" d="M295.466,280.189
				l-4.505-3.43c0,0-0.889-0.809-0.099-1.951c0,0,0.668-1.283,2.133-0.402l4.212,2.945"/>
			<path style="fill:#EDB984;stroke:#DBA76E;stroke-width:0.75;stroke-linecap:round;stroke-miterlimit:10;" d="M292.502,281.14
				l-3.01-2.292c0,0-0.672-0.612-0.075-1.474c0,0,0.505-0.97,1.612-0.304l3.183,2.225"/>
		</g>
		<path style="fill:none;stroke:#39687A;stroke-linecap:round;stroke-miterlimit:10;" d="M200.695,424.048
			c0,0,15.488,7.535,27.349-2.233"/>
		<path style="fill:none;stroke:#39687A;stroke-linecap:round;stroke-miterlimit:10;" d="M255.836,424.048
			c0,0,11.743,5.128,25.419-3.395"/>
		
			<line style="fill:none;stroke:#2A3A3F;stroke-width:0.5;stroke-linecap:round;stroke-linejoin:round;stroke-miterlimit:10;" x1="239.935" y1="343.69" x2="248.137" y2="309.211"/>
		<path style="fill:none;stroke:#664238;stroke-width:0.5;stroke-linecap:round;stroke-linejoin:round;stroke-miterlimit:10;" d="
			M253.48,132.41c0,0,4.703,12.29-7.415,18.515"/>
		<path style="fill:none;stroke:#664238;stroke-width:0.5;stroke-linecap:round;stroke-linejoin:round;stroke-miterlimit:10;" d="
			M242.434,150.002c0,0-0.917,4.005-4.413,5.853"/>
		<path style="fill:none;stroke:#664238;stroke-width:0.5;stroke-linecap:round;stroke-linejoin:round;stroke-miterlimit:10;" d="
			M236.776,152.444c0,0,0,2.119-1.667,4.238"/>
		<path style="fill:none;stroke:#664238;stroke-width:0.5;stroke-linecap:round;stroke-linejoin:round;stroke-miterlimit:10;" d="
			M232.509,154.935c0,0,0.093,3.3-1.628,7.672"/>
		<path style="fill:none;stroke:#664238;stroke-width:0.5;stroke-linecap:round;stroke-linejoin:round;stroke-miterlimit:10;" d="
			M212.981,161.169c0,0-0.628,6.835,5.721,8.51"/>
		<path style="fill:none;stroke:#664238;stroke-width:0.5;stroke-linecap:round;stroke-linejoin:round;stroke-miterlimit:10;" d="
			M199.998,196.967c0,0,3.269-4.412,10.031-6.063"/>
		<path style="fill:none;stroke:#664238;stroke-width:0.5;stroke-linecap:round;stroke-linejoin:round;stroke-miterlimit:10;" d="
			M201.393,201.848c0,0,7.791-12.358,15.581-16.451"/>
		<path style="fill:none;stroke:#C16248;stroke-width:0.5;stroke-linecap:round;stroke-miterlimit:10;" d="M197.417,222.603
			c0,0-0.93,21.674-1.116,44.372"/>
		<path style="fill:none;stroke:#89514E;stroke-width:0.5;stroke-linecap:round;stroke-linejoin:round;stroke-miterlimit:10;" d="
			M220.394,129.859c0,0-1.488-4.279,0.651-6.977"/>
		<path style="fill:none;stroke:#89514E;stroke-width:0.5;stroke-linecap:round;stroke-linejoin:round;stroke-miterlimit:10;" d="
			M216.022,126.976c0,0,0.279,2.047,2.884,3.256"/>
		<path style="fill:none;stroke:#2A3A3F;stroke-width:0.5;stroke-linecap:round;stroke-linejoin:round;stroke-miterlimit:10;" d="
			M207.464,294.138c-5.023,50.698-4.837,123.535-4.837,123.535"/>
		
			<line style="fill:none;stroke:#2A3A3F;stroke-width:0.5;stroke-linecap:round;stroke-linejoin:round;stroke-miterlimit:10;" x1="244.301" y1="346.51" x2="258.813" y2="417.952"/>
	</g>
	<g>
		<path style="fill:none;stroke:#6FA875;stroke-linecap:round;stroke-linejoin:round;stroke-miterlimit:10;" d="M222.859,111.204
			c0,1.982,1.607,3.589,3.589,3.589c1.982,0,3.589-1.607,3.589-3.589c0-1.982-1.607-3.589-3.589-3.589
			C224.466,107.615,222.859,109.221,222.859,111.204z"/>
		<path style="fill:none;stroke:#6FA875;stroke-linecap:round;stroke-linejoin:round;stroke-miterlimit:10;" d="M176.293,178.606
			c0,1.982,1.607,3.589,3.589,3.589s3.589-1.607,3.589-3.589c0-1.982-1.607-3.589-3.589-3.589S176.293,176.624,176.293,178.606z"/>
		<path style="fill:none;stroke:#6FA875;stroke-linecap:round;stroke-linejoin:round;stroke-miterlimit:10;" d="M332.068,124.785
			c0,1.982,1.607,3.589,3.589,3.589c1.982,0,3.589-1.607,3.589-3.589c0-1.982-1.607-3.589-3.589-3.589
			C333.675,121.196,332.068,122.803,332.068,124.785z"/>
		<path style="fill:none;stroke:#6FA875;stroke-linecap:round;stroke-linejoin:round;stroke-miterlimit:10;" d="M237.811,93.064
			h2.59v-2.59c0-0.661,0.536-1.197,1.198-1.197c0.662,0,1.197,0.536,1.197,1.197v2.59h2.589c0.662,0,1.197,0.536,1.197,1.198
			s-0.536,1.198-1.197,1.198h-2.589v2.59c0,0.661-0.536,1.198-1.197,1.198c-0.662,0-1.198-0.536-1.198-1.198v-2.59h-2.59
			c-0.662,0-1.197-0.536-1.197-1.198S237.149,93.064,237.811,93.064z"/>
		<path style="fill:none;stroke:#6FA875;stroke-linecap:round;stroke-linejoin:round;stroke-miterlimit:10;" d="M191.509,217.676
			h2.59v-2.59c0-0.661,0.536-1.197,1.197-1.197s1.198,0.536,1.198,1.197v2.59h2.589c0.662,0,1.198,0.536,1.198,1.197
			c0,0.661-0.536,1.198-1.198,1.198h-2.589v2.59c0,0.661-0.536,1.198-1.198,1.198s-1.197-0.536-1.197-1.198v-2.59h-2.59
			c-0.662,0-1.197-0.536-1.197-1.198C190.311,218.212,190.847,217.676,191.509,217.676z"/>
		<path style="fill:none;stroke:#6FA875;stroke-linecap:round;stroke-linejoin:round;stroke-miterlimit:10;" d="M285.276,176.732
			h2.59v-2.59c0-0.661,0.536-1.198,1.198-1.198c0.662,0,1.197,0.536,1.197,1.198v2.59h2.589c0.662,0,1.198,0.536,1.198,1.198
			c0,0.661-0.536,1.197-1.198,1.197h-2.589v2.59c0,0.661-0.536,1.197-1.197,1.197c-0.662,0-1.198-0.536-1.198-1.197v-2.59h-2.59
			c-0.662,0-1.198-0.536-1.198-1.197C284.079,177.268,284.614,176.732,285.276,176.732z"/>
		<path style="fill:none;stroke:#6FA875;stroke-linecap:round;stroke-linejoin:round;stroke-miterlimit:10;" d="M139.206,126.141
			h2.59v-2.59c0-0.661,0.536-1.198,1.197-1.198c0.662,0,1.197,0.536,1.197,1.198v2.59h2.589c0.662,0,1.198,0.536,1.198,1.198
			c0,0.661-0.536,1.198-1.198,1.198h-2.589v2.59c0,0.661-0.536,1.197-1.197,1.197c-0.662,0-1.197-0.536-1.197-1.197v-2.59h-2.59
			c-0.662,0-1.198-0.536-1.198-1.198C138.009,126.677,138.544,126.141,139.206,126.141z"/>
		<path style="fill:none;stroke:#6FA875;stroke-linecap:round;stroke-linejoin:round;stroke-miterlimit:10;" d="M385.185,214.078
			h2.59v-2.59c0-0.661,0.536-1.197,1.198-1.197c0.662,0,1.198,0.536,1.198,1.197v2.59h2.589c0.662,0,1.197,0.536,1.197,1.198
			s-0.536,1.198-1.197,1.198h-2.589v2.59c0,0.661-0.536,1.198-1.198,1.198c-0.662,0-1.198-0.536-1.198-1.198v-2.59h-2.59
			c-0.662,0-1.198-0.536-1.198-1.198S384.523,214.078,385.185,214.078z"/>
	</g>
	<g>
		<g>
			<g>
				<path style="fill:#81CDC9;" d="M128.957,220.803H88.813c-1.446,0-2.618,1.172-2.618,2.618v15.165
					c0,1.446,1.172,2.618,2.618,2.618h40.144c1.446,0,2.618-1.172,2.618-2.618v-15.165
					C131.575,221.975,130.403,220.803,128.957,220.803z"/>
				<path style="fill:none;stroke:#71B5B0;stroke-linecap:round;stroke-miterlimit:10;" d="M123.484,239.329h6.729
					c1.446,0,2.618-1.172,2.618-2.618v-15.165c0-1.446-1.172-2.618-2.618-2.618H90.069c-1.446,0-2.618,1.172-2.618,2.618v15.165
					c0,1.446,1.172,2.618,2.618,2.618h21.323"/>
				
					<line style="fill:none;stroke:#71B5B0;stroke-linecap:round;stroke-miterlimit:10;" x1="115.484" y1="239.329" x2="119.112" y2="239.329"/>
				<path style="fill:#F9D953;" d="M75.462,216.792h92.695c1.446,0,2.618-1.172,2.618-2.618v-28.597
					c0-1.446-1.172-2.618-2.618-2.618H75.462c-1.446,0-2.618,1.172-2.618,2.618v28.597C72.844,215.62,74.016,216.792,75.462,216.792
					z"/>
				<path style="fill:none;stroke:#6FA875;stroke-linecap:round;stroke-linejoin:round;stroke-miterlimit:10;" d="M129.996,180.988
					H77.9c-1.446,0-2.618,1.172-2.618,2.618v28.597c0,1.446,1.172,2.618,2.618,2.618h11.607h3.308"/>
				
					<line style="fill:none;stroke:#6FA875;stroke-linecap:round;stroke-linejoin:round;stroke-miterlimit:10;" x1="141.81" y1="180.988" x2="137.345" y2="180.988"/>
				<path style="fill:none;stroke:#6FA875;stroke-linecap:round;stroke-linejoin:round;stroke-miterlimit:10;" d="M104.791,214.82
					h65.804c1.446,0,2.618-1.172,2.618-2.618v-28.597c0-1.446-1.172-2.618-2.618-2.618h-21.995"/>
				
					<line style="fill:none;stroke:#6FA875;stroke-linecap:round;stroke-linejoin:round;stroke-miterlimit:10;" x1="96.554" y1="214.82" x2="99.764" y2="214.82"/>
				<g>
					<g style="opacity:0.4114;">
						<g>
							<path style="fill:#FFFFFF;" d="M103.601,231.472h-9.595c-0.658,0-1.19,0.533-1.19,1.19c0,0.657,0.533,1.19,1.19,1.19h9.595
								c0.657,0,1.19-0.533,1.19-1.19C104.791,232.005,104.258,231.472,103.601,231.472z"/>
						</g>
					</g>
					<g style="opacity:0.4114;">
						<g>
							<path style="fill:#FFFFFF;" d="M113.639,226.748H94.006c-0.658,0-1.19,0.533-1.19,1.19c0,0.657,0.533,1.19,1.19,1.19h19.633
								c0.657,0,1.19-0.533,1.19-1.19C114.829,227.281,114.296,226.748,113.639,226.748z"/>
						</g>
					</g>
				</g>
				<g>
					<g style="opacity:0.4114;">
						<g>
							<path style="fill:#FFFFFF;" d="M84.887,197.904h73.845c0.658,0,1.19-0.533,1.19-1.19c0-0.657-0.533-1.19-1.19-1.19H84.887
								c-0.657,0-1.19,0.533-1.19,1.19C83.697,197.371,84.23,197.904,84.887,197.904z"/>
						</g>
					</g>
					<g style="opacity:0.4114;">
						<g>
							<path style="fill:#FFFFFF;" d="M85.606,204.229h73.126c0.658,0,1.19-0.533,1.19-1.19c0-0.657-0.533-1.19-1.19-1.19H85.606
								c-0.657,0-1.19,0.533-1.19,1.19C84.416,203.695,84.949,204.229,85.606,204.229z"/>
						</g>
					</g>
				</g>
			</g>
			<g>
				<g>
					<path style="fill:#F9D953;" d="M359.992,357.82h-0.485v-13.6c0-9.867-7.999-17.866-17.866-17.866
						c-9.867,0-17.866,7.999-17.866,17.866v13.6h-0.485c-1.427,0-2.583,1.157-2.583,2.583c0,1.427,1.157,2.583,2.583,2.583h36.702
						c1.427,0,2.583-1.157,2.583-2.583C362.576,358.977,361.419,357.82,359.992,357.82z"/>
					<circle style="fill:#F9D953;" cx="341.642" cy="364.54" r="4.899"/>
				</g>
				
					<line style="fill:none;stroke:#6FA875;stroke-linecap:round;stroke-linejoin:round;stroke-miterlimit:10;" x1="329.491" y1="356.095" x2="358.782" y2="356.095"/>
				<path style="fill:none;stroke:#6FA875;stroke-linecap:round;stroke-linejoin:round;stroke-miterlimit:10;" d="M362.178,356.363
					h-0.485v-13.6c0-9.446-7.336-17.16-16.618-17.803v-1.572c0-0.689-0.559-1.247-1.248-1.247s-1.247,0.559-1.247,1.247v1.572
					c-9.283,0.643-16.618,8.357-16.618,17.803v13.6h-0.485c-1.427,0-2.583,1.156-2.583,2.583c0,1.427,1.157,2.583,2.583,2.583
					h13.726c-0.165,0.491-0.275,1.007-0.275,1.553c0,2.706,2.194,4.899,4.899,4.899c2.706,0,4.9-2.194,4.9-4.899
					c0-0.546-0.11-1.062-0.275-1.553h13.726c1.427,0,2.583-1.157,2.583-2.583C364.762,357.52,363.605,356.363,362.178,356.363z"/>
				<g>
					
						<line style="fill:none;stroke:#6FA875;stroke-linecap:round;stroke-linejoin:round;stroke-miterlimit:10;" x1="344.137" y1="372.416" x2="344.137" y2="377.152"/>
					
						<line style="fill:none;stroke:#6FA875;stroke-linecap:round;stroke-linejoin:round;stroke-miterlimit:10;" x1="337.142" y1="376.86" x2="338.891" y2="372.416"/>
					
						<line style="fill:none;stroke:#6FA875;stroke-linecap:round;stroke-linejoin:round;stroke-miterlimit:10;" x1="349.182" y1="372.416" x2="350.931" y2="376.86"/>
				</g>
			</g>
			<g>
				<circle style="fill:#6BBCB6;" cx="303.428" cy="104.738" r="26.427"/>
				<circle style="fill:#FFFFFF;" cx="303.428" cy="104.738" r="22.063"/>
				<path style="opacity:0.2747;fill:#6BBCB6;" d="M325.491,104.733c0,12.189-9.876,22.065-22.065,22.065
					c-8.281,0-15.506-4.563-19.277-11.323c3.971,3.855,9.38,6.221,15.347,6.221c12.189,0,22.065-9.886,22.065-22.065
					c0-3.897-1.003-7.552-2.778-10.721C322.924,92.913,325.491,98.522,325.491,104.733z"/>
				<g>
					<path style="fill:none;stroke:#62A09A;stroke-linecap:round;stroke-miterlimit:10;" d="M288.35,122.884
						c-1.25-1.033-2.403-2.178-3.444-3.421"/>
					<path style="fill:none;stroke:#62A09A;stroke-linecap:round;stroke-miterlimit:10;" d="M323.859,83.816
						c4.782,4.782,7.74,11.389,7.74,18.687c0,14.595-11.832,26.427-26.427,26.427c-4.166,0-8.106-0.964-11.611-2.681"/>
					<path style="fill:none;stroke:#62A09A;stroke-linecap:round;stroke-miterlimit:10;" d="M313.168,77.307
						c1.531,0.486,3.003,1.107,4.399,1.85"/>
					<path style="fill:none;stroke:#62A09A;stroke-linecap:round;stroke-miterlimit:10;" d="M281.546,114.356
						c-1.792-3.565-2.801-7.591-2.801-11.854c0-14.595,11.832-26.427,26.427-26.427"/>
				</g>
				<polyline style="fill:none;stroke:#62A09A;stroke-linecap:round;stroke-miterlimit:10;" points="303.084,92.841 
					303.084,105.376 315.291,105.376 				"/>
			</g>
		</g>
		<g>
			<path style="fill:#CB7252;" d="M405.828,254.709h-40.144c-1.446,0-2.618,1.172-2.618,2.618v15.165
				c0,1.446,1.172,2.618,2.618,2.618h40.144c1.446,0,2.618-1.172,2.618-2.618v-15.165
				C408.445,255.881,407.273,254.709,405.828,254.709z"/>
			<path style="fill:none;stroke:#C16248;stroke-linecap:round;stroke-miterlimit:10;" d="M400.355,273.236h6.729
				c1.446,0,2.618-1.172,2.618-2.618v-15.165c0-1.446-1.172-2.618-2.618-2.618h-40.144c-1.446,0-2.618,1.172-2.618,2.618v15.165
				c0,1.446,1.172,2.618,2.618,2.618h21.323"/>
			
				<line style="fill:none;stroke:#C16248;stroke-linecap:round;stroke-miterlimit:10;" x1="392.355" y1="273.236" x2="395.983" y2="273.236"/>
			<g>
				<g style="opacity:0.4114;">
					<g>
						<path style="fill:#FFFFFF;" d="M380.471,265.379h-9.595c-0.658,0-1.19,0.533-1.19,1.19s0.533,1.19,1.19,1.19h9.595
							c0.657,0,1.19-0.533,1.19-1.19S381.128,265.379,380.471,265.379z"/>
					</g>
				</g>
				<g style="opacity:0.4114;">
					<g>
						<path style="fill:#FFFFFF;" d="M390.509,260.655h-19.634c-0.658,0-1.19,0.533-1.19,1.19s0.533,1.19,1.19,1.19h19.634
							c0.657,0,1.19-0.533,1.19-1.19S391.167,260.655,390.509,260.655z"/>
					</g>
				</g>
			</g>
		</g>
	</g>
</g>
</svg>
