<?xml version="1.0" encoding="utf-8"?>
<!-- Generator: Adobe Illustrator 27.5.0, SVG Export Plug-In . SVG Version: 6.00 Build 0)  -->
<svg version="1.1" id="Layer_1" xmlns="http://www.w3.org/2000/svg" xmlns:xlink="http://www.w3.org/1999/xlink" x="0px" y="0px"
	 viewBox="0 0 3100 2000" style="enable-background:new 0 0 3100 2000;" xml:space="preserve">
<!-- <rect y="0.001" style="fill:#FFFFFF;" width="3100" height="2000"/> -->
<g>
	<g>
		<path style="fill:#13375B;" d="M1185.804,1561.427c11.439-62.268,32.749-122.795,64.3-178.886
			c8.939-15.891,18.659-31.399,29.097-46.492c4.926-7.12-7.35-13.694-12.25-6.605c-37.413,54.121-65.465,113.821-82.721,176.007
			c-4.816,17.358-8.723,34.893-11.722,52.595c-0.575,3.39,0.938,6.841,4.815,7.824
			C1180.633,1566.708,1185.179,1564.832,1185.804,1561.427L1185.804,1561.427z"/>
	</g>
	<g>
		<path style="fill:#13375B;" d="M1327.914,1353.238c9.717,8.29,14.592,19.886,18.704,31.216
			c4.97,13.692,8.904,27.695,12.049,41.837c6.192,27.836,9.157,56.158,10.997,84.493c1.066,16.428,1.75,32.873,2.423,49.317
			c0.349,8.531,14.769,8.572,14.415,0c-2.448-59.281-4.967-119.837-25.258-176.657c-5.074-14.208-11.013-29.109-23.621-39.164
			c-2.804-2.235-6.954-2.541-9.709,0C1325.365,1346.632,1325.182,1350.907,1327.914,1353.238L1327.914,1353.238z"/>
	</g>
	<path style="fill:#13375B;" d="M1349.348,1302.909h-192.154c-13.73,0-24.862,10.238-24.862,22.869l0,0
		c0,12.631,11.087,23.963,24.818,23.963l223.519,8.116c12.738,0,26.953-17.19,30.027-28.562l57.649-213.188
		c3.547-13.119-5.266-26.369-19.579-29.436l0,0c-13.946-2.987-27.93,4.825-31.479,17.586l-52.098,187.336
		C1363.338,1298.252,1356.818,1302.909,1349.348,1302.909z"/>
	<polygon style="fill:#466EB6;" points="1285.783,788.985 1268.329,788.372 1266.686,804.565 1249.464,804.719 1245.986,820 
		1233.117,822.223 1234.242,828.737 1251.454,825.765 1254.75,811.283 1272.665,811.123 1274.281,795.196 1290.098,795.753 	"/>
	<polygon style="fill:#F7CC7F;" points="1074.819,1086.521 1072.152,1095.845 1086.68,1101.794 1084.461,1115.907 
		1094.605,1122.137 1091.452,1127.271 1077.885,1118.94 1079.987,1105.565 1064.874,1099.376 1068.888,1085.347 	"/>
	<polygon style="fill:#F7CC7F;" points="1472.513,1039.543 1459.19,1042.459 1450.76,1031.396 1436.058,1035.723 1430.712,1021.171 
		1413.869,1025.329 1407.294,1012.537 1390.435,1013.889 1390.946,1020.269 1403.552,1019.259 1410.489,1032.757 1426.68,1028.761 
		1432.115,1043.556 1448.34,1038.782 1456.572,1049.585 1468.92,1046.882 1472.843,1055.106 1478.622,1052.352 	"/>
	<polygon style="fill:#F7CC7F;" points="1118.612,1080.447 1126.778,1075.112 1123.289,1069.745 1110.094,1078.366 
		1118.391,1093.104 1109.714,1103.553 1115.122,1114.978 1107.989,1120.647 1111.973,1125.659 1123.081,1116.829 1117.246,1104.502 
		1126.131,1093.802 	"/>
	
		<rect x="933.462" y="1194.869" transform="matrix(-1 -1.224647e-16 1.224647e-16 -1 2121.5249 2473.625)" style="fill:#86B1F2;" width="254.601" height="83.887"/>
	
		<rect x="827.961" y="1190.074" transform="matrix(-1 -1.224647e-16 1.224647e-16 -1 1846.3441 2707.4346)" style="fill:#FAE0B2;" width="190.421" height="327.286"/>
	
		<rect x="1176.605" y="1178.402" transform="matrix(-1 -1.224647e-16 1.224647e-16 -1 2380.1338 2737.7344)" style="fill:#184655;" width="26.923" height="380.93"/>
	
		<rect x="907.031" y="1516.553" transform="matrix(-1 -1.224647e-16 1.224647e-16 -1 1833.3842 3075.8936)" style="fill:#184655;" width="19.322" height="42.788"/>
	
		<rect x="799.918" y="1517.214" transform="matrix(-1 -1.224647e-16 1.224647e-16 -1 1619.1572 3076.5303)" style="fill:#184655;" width="19.321" height="42.103"/>
	<g>
		<path style="fill:#355389;" d="M962.457,1171.152c0.456,0,0.919-0.05,1.385-0.155c3.974-0.892,6.58-5.397,5.82-10.064
			c0,0-31.554-182.169-34.02-183.103c-0.784-0.297-2.637-4.031-2.71-4.03c-0.379,0.007-0.762,0.064-1.146,0.15
			c-3.975,0.891-6.581,5.397-5.821,10.064l29.306,180.146C955.941,1168.284,959.012,1171.152,962.457,1171.152z"/>
		<path style="fill:#466EB6;" d="M1026.632,990.869l29.188,175.605l-90.552,1.258L932.908,973.8l82.364,4.582
			C1021.494,978.661,1025.849,986.065,1026.632,990.869z"/>
		<path style="fill:#355389;" d="M1182.756,1162.684c0.002,0.102,0.006,0.202,0.006,0.304l0,0c0.007,5.603-3.263,10.22-7.336,10.232
			l-114.999,0.29c-4.073,0.013-7.381-4.52-7.388-10.122c0-0.236,0.007-0.471,0.019-0.704H1182.756z"/>
		<path style="fill:#355389;" d="M1149.489,1162.677c0.003,0.102,0.008,0.203,0.009,0.307l0,0
			c0.011,5.679-4.928,10.293-11.03,10.306l-172.257,0.36c-6.102,0.013-11.058-4.58-11.068-10.26c0-0.24,0.011-0.478,0.028-0.713
			H1149.489z"/>
	</g>
	<path style="fill:#F7A491;" d="M1113.92,1480.52c-7.001,13.018-24.113,55.933-24.758,59.183c-0.187,0.941-2.613,4.066-3.42,4.661
		c-22.094,2.213-38.258-9.649-50.53-21.347c11.587,0.814,29.297-2.18,31.875-2.619c6.722-1.148,6.003-21.592,9.84-44.56
		C1082.886,1478.571,1105.244,1472.664,1113.92,1480.52z"/>
	<path style="fill:#355389;" d="M1089.244,1539.416c-1.829,7.185-9.441,20.433-10.909,20.053
		c-1.754-0.454-66.973-23.869-72.584-33.215c-3.462-5.765,14.368-6.04,28.72-5.307
		C1046.744,1532.644,1085.473,1541.278,1089.244,1539.416z"/>
	<path style="fill:#3C8F7C;" d="M1324.641,1296.96l-151.718,8.74l-55.315,191.541l-43.957-8.604c0,0,24.671-198.165,39.041-214.748
		c39.195-45.232,176.134-39.879,176.134-39.879L1324.641,1296.96z"/>
	<path style="fill:#F7A491;" d="M1207.574,1490.822c-0.561,8.827-2.583,19.515-2.186,29.813c0.267,6.911,2.831,15.323,3.14,16.617
		c0.223,0.935-0.68,4.786-1.166,5.662c-19.159,11.223-38.797,7.18-54.828,1.665c10.872-4.092,18.437-12.237,21.168-15.203
		c4.62-5.016,1.327-20.058-4.761-42.534C1175.498,1486.842,1196.412,1487.3,1207.574,1490.822z"/>
	<path style="fill:#50BFA5;" d="M1308.926,1220.563c0,0-141.498,2.657-177.055,54.701c-26.606,38.941,39.647,231.011,39.647,231.011
		l39.866-7.344c0,0-9.185-130.151-15.829-173.095c-1.125-7.276-6.307-28.77-6.307-28.77s17.686,5.268,50.546,7.365
		c45.153,2.883,110.858,2.119,125.045-5.258c24.511-12.745,34.787-47.311,24.002-69.86
		C1378.057,1206.764,1308.926,1220.563,1308.926,1220.563z"/>
	<path style="fill:#355389;" d="M1208.483,1536.958c2.485,4.554,3.744,22.199,2.251,22.465c-1.784,0.318-76.735,4.517-85.732-1.639
		c-5.55-3.797,14.18-7.889,27.531-13.205C1168.565,1550.094,1207.677,1541.838,1208.483,1536.958z"/>
	<path style="fill:#F48C7F;" d="M1200.238,1126.354c0,0-41.208,10.302-61.811,16.857c-20.604,6.556-46.827,8.429-46.827,8.429
		l-22.165,11.707l47.451,1.404l110.511-9.833l9.366-25.755L1200.238,1126.354z"/>
	<path style="fill:#B75742;" d="M1231.144,1043.003l-19.667,2.81c0,0-7.024,1.404-12.643,32.31
		c-5.619,30.906-13.58,47.296-13.58,47.296l48.231,19.198C1268.734,1095.938,1292.898,1038.265,1231.144,1043.003z"/>
	<path style="fill:#F47458;" d="M1229.955,1014.976c-12.561,2.197-13.328,12.341-13.328,12.341l-12.864,53.616
		c0,0-1.184,22.711,1.424,31.402c5.072,16.905,15.321,23.571,32.116,29.316c22.26,7.615,31.061,26.809,40.66,38.009
		c16.655,19.431,3.101,42.68,3.101,42.68l116.42,16.339c0,0,1.577-22.722-24.795-86.567
		C1349.79,1096.671,1294.905,1003.613,1229.955,1014.976z"/>
	<path style="fill:#F7A491;" d="M1271.415,1021.462c-14.282-15.687-50.573,3.747-39.334,55.725
		c0.073,0.338,4.185,54.909,0.715,61.848c-2.107,4.214-52.678,2.107-83.286,8.548c0,0-33.099-12.282-44.719-13.111
		c-8.612-0.614-29.111,5.932-29.111,5.932s-26.405,19.485-22.711,22.711c5.051,4.409,17.482-14.828,27.94-14.828
		c0,0-19.072,14.735-13.189,15.063c5.882,0.326,14.014-4.078,18.262-5.385c4.249-1.308,19.901,6.555,33.715,8.194
		c2.28,0.271,11.306-0.221,21.775,1.17c10.621,1.412,22.625,5.278,36.681,5.932c37.796,1.758,80.583,5.927,91.167-4.725
		C1277.215,1160.586,1295.441,1047.854,1271.415,1021.462z"/>
	<path style="fill:#B75742;" d="M1277.802,1136.369c-23.082-2.989-46.229-11.731-46.229-11.731s-1.899-45.725-2.068-47.451
		c-1.483-23.882-0.587-43.098,9.415-55.492c5.034-6.238,10.41-7.725,16.809-7.725c5.989,0,14.335,2.35,18.73,7.961
		c16.102,20.555,9.944,80.367,4.913,113.258l-0.208,1.356L1277.802,1136.369z"/>
	<path style="fill:#B75742;" d="M1219.505,926.552c1.774-15.401,1.753-73.936,37.33-72.728c35.576,1.208,35.785,40.36,64.596-6.818
		c26.691-43.706,75.991-15.461,71.406,20.708c5.088,0.525,10.081,2.228,14.579,5.217c15.558,10.338,19.313,32.047,8.388,48.488
		c-1.736,2.613-1.591,5.559-3.795,7.576c1.096,16.34-5.081,33.609-20.534,49.407c-42.21,43.151-65.27-15.086-87.996-16.533
		c-22.727-1.447-11.552,18.657-33.355,28.553c-21.803,9.895-36.611,3.407-60.897-39.491l-5.793-11.652
		C1203.434,939.28,1217.731,941.953,1219.505,926.552z"/>
	<path style="fill:#B75742;" d="M1198.989,915.946c25.031,17.468,30.563,61.948,7.521,83.189
		c-14.975,13.804-44.471,16.206-60.849,2.514c-26.564-22.207-29.527-47.343-20.107-67.074
		C1137.708,909.112,1178.339,901.537,1198.989,915.946z"/>
	<path style="fill:#F7A491;" d="M1206.808,976.212c0,0,7.712,23.944,34.872,37.758c3.342,1.701-37.894,68.022-37.912,67.23
		c-0.119-5.118,7.129-34.994,5.367-38.666c-4.823-10.049-32.822-55.863-32.822-55.863L1206.808,976.212z"/>
	<path style="fill:#F47458;" d="M1191.231,981.554l-14.918,5.117l0,0c0.027,0.045,12.304,20.133,21.991,36.611
		c3.435-2.818,6.475-6.902,8.905-12.498c3.891-8.963,4.473-18.287,2.983-27.147c-2.427-4.453-3.384-7.424-3.384-7.425
		L1191.231,981.554z"/>
	<path style="fill:#F7A491;" d="M1151.247,931.278c0,0,13.361-5.651,27.893-0.209c14.531,5.443,40.641,40.771,27.185,71.76
		c-13.456,30.989-45.621,15.588-59.9-4.065C1132.146,979.11,1117.935,949.474,1151.247,931.278z"/>
	<path style="fill:#B75742;" d="M1209.138,948.829c-11.513-19.993-24.145-31.721-41.898-27.17
		c-17.753,4.551-33.673,7.59-34.871,28.425l-1.279,3.558c0,0,25.708-12.557,36.369-2.731s32.993,13.037,35.96,19.851
		c2.967,6.814,10.313,19.151,10.313,19.151l1.326-7.66C1215.057,982.252,1220.651,968.821,1209.138,948.829z"/>
	<path style="fill:#F7A491;" d="M1182.027,961.075c2.403,6.202,7.833,9.783,12.129,7.998c4.296-1.785,5.832-8.26,3.429-14.462
		c-2.403-6.202-7.833-9.783-12.129-7.998C1181.16,948.398,1179.625,954.873,1182.027,961.075z"/>
	
		<rect x="723.466" y="1190.074" transform="matrix(-1 -1.224647e-16 1.224647e-16 -1 1756.5892 2707.4346)" style="fill:#86B1F2;" width="309.657" height="327.286"/>
	
		<rect x="1028.807" y="1182.813" transform="matrix(-1 -1.224647e-16 1.224647e-16 -1 2083.196 2742.3037)" style="fill:#184655;" width="25.583" height="376.679"/>
	
		<rect x="716.709" y="1185.649" transform="matrix(-1 -1.224647e-16 1.224647e-16 -1 1447.8687 2747.9766)" style="fill:#184655;" width="14.451" height="376.678"/>
	<path style="fill:#184655;" d="M666.31,1196.415h557.685c5.46,0,9.886-4.426,9.886-9.887v-3.409c0-5.459-4.426-9.886-9.886-9.886
		H666.31c-5.46,0-9.886,4.427-9.886,9.886v3.409C656.424,1191.989,660.85,1196.415,666.31,1196.415z"/>
</g>
<g>
	<path style="fill:#86B1F2;" d="M2484.616,1564.855c0-3.845-1.897-6.962-4.238-6.962H576.882c-2.839,0-5.141,3.117-5.141,6.962
		c0,3.846,2.301,6.963,5.141,6.963h1903.496C2482.719,1571.818,2484.616,1568.701,2484.616,1564.855L2484.616,1564.855z"/>
</g>
<g>
	<path style="fill:#F7A491;" d="M1782.796,449.332h268.023c25.552,0,46.267-20.714,46.267-46.266v-92.532
		c0-25.552-20.715-46.266-46.267-46.266h-268.023c-25.552,0-46.266,20.714-46.266,46.266v92.532
		C1736.53,428.618,1757.244,449.332,1782.796,449.332z"/>
	<polygon style="fill:#F7A491;" points="2000.938,426.871 2007.737,557.992 1915.212,423.806 	"/>
</g>
<g>
	<path style="fill:#F48C7F;" d="M1639.579,830.121l5.948-27.06c0,0,19.469,12.354,30.825,30.001
		c11.357,17.648,16.766,64.708,20.01,66.473c3.244,1.765,39.176-53.597,45.458-62.323c7.771-10.792,10.675-23.181,15.542-32.593
		c4.866-9.412,22.002-12.616,28.492-11.439c6.488,1.176-8.914,28.706-8.914,28.706s-38.938,67.649-51.916,104.709
		c-12.979,37.06-53.539,54.708-60.028,49.413C1658.507,970.714,1639.579,830.121,1639.579,830.121z"/>
	<path style="fill:#F7A491;" d="M1757.794,809.8c0,0,1.619-7.123,5.989-8.58c4.371-1.457,11.979-0.162,12.466,0
		c0.484,0.162,8.903-4.371,8.903-4.371l-6.962,12.951c0,0-13.598,16.026-18.131,10.037S1757.794,809.8,1757.794,809.8z"/>
	<path style="fill:#F48C7F;" d="M1787.58,797.442c0,0,4.911,24.984,3.67,30.219c-1.245,5.251-4.378,2.436-4.965,1.295
		c-2.415-4.696-4.101-20.722-4.101-20.722L1787.58,797.442z"/>
	<path style="fill:#F48C7F;" d="M1777.004,818.218c0,0,2.341,15.495,4.749,17.321c1.564,1.188,3.562,0.486,4.209-2.644
		s-3.131-22.232-3.131-22.232L1777.004,818.218z"/>
	<path style="fill:#184655;" d="M1762.692,862.186l-8.149-3.972l34.614-71.014l0,0c4.5,2.194,6.371,7.621,4.178,12.122
		L1762.692,862.186z"/>
	<path style="fill:#13375B;" d="M1675.711,718.848c4.886-22.207,9.671-44.556-3.209-68.953
		c-10.423-19.744-28.439-31.104-49.293-33.578c-59.085-7.01-46.456,48.148-129.037,60.088c-25.66,3.71-49.499,7.276-70.923,20.038
		c-38.685,23.044-53.288,60.009-27.632,120.23c62.821,147.46,217.021,22.276,236.067-6.76
		C1645.853,788.313,1672.566,733.144,1675.711,718.848z"/>
	<path style="fill:#F7A491;" d="M1439.418,1650.311c0,0-4.207,42.718-15.022,50.561c-10.816,7.844-25.237,36.864-18.026,52.551
		c2.253,4.902,6.76,7.736,11.891,9.315c15.195,4.679,31.361-3.2,37.83-17.724c3.614-8.113,6.785-18.937,7.422-32.573
		c1.623-34.707,12.438-52.355,12.438-52.355L1439.418,1650.311z"/>
	<path style="fill:#F7A491;" d="M1605.621,1667.794c0,0,3.409,43.104,0.643,57.112c-1.482,7.501-9.735,22.941-5.948,30.001
		c3.785,7.059,8.111,8.823,8.111,8.823l98.108,1.577c5.344,0.086,1.813-3.346-2.497-6.508c-7.053-5.176-12.744-8.597-35.274-19.474
		c-1.468-0.708-6.819-4.104-8.747-5.279c-4.893-2.981-9.805-7.674-14.035-12.373c-7.044-7.827-7.66-45.786-7.66-45.786
		L1605.621,1667.794z"/>
	<path style="fill:#3C8F7C;" d="M1682.302,1094.835c0,0,12.354,69.985,4.242,115.867c-8.111,45.881-47.046,471.168-47.046,471.168
		l-43.267,2.436c0,0-9.068-177.651-7.447-202.356c1.623-24.705,14.463-66.05,14.463-66.05l-4.307-143.434l54.599-188.432
		L1682.302,1094.835z"/>
	<path style="fill:#50BFA5;" d="M1555.14,1080.116c0,0-34.069,51.176-42.181,93.527c-8.111,42.353,5.954,172.511-9.65,228.01
		c-8.447,30.044-40.461,76.44-45.328,115.264c-4.867,38.822-23.958,140.516-23.958,140.516l43.246,8.556l100.508-253.974
		l78.839-229.554l20.196-118.227L1555.14,1080.116z"/>
	<path style="fill:#FAE0B2;" d="M1582.718,788.945c0,0-29.834,3.386-47.679,22.797c-17.846,19.412,28.845,175.448,32.089,200.153
		c3.245,24.705-26.59,82.338-26.59,82.338s111.479,20.603,141.764,0.602c0,0,3.244-177.652,0-195.3
		c-3.245-17.648-30.284-89.415-36.774-96.474C1639.038,796.002,1582.718,788.945,1582.718,788.945z"/>
	<path style="fill:#F7A491;" d="M1540.529,826.39c2.876-8.694,12.734-12.882,21.139-9.248c11.519,4.98,27.421,14.432,35.188,30.627
		c12.979,27.06,58.406,120.004,72.466,123.533c14.061,3.529,71.385-96.474,71.385-96.474s-1.622-17.647,3.245-27.647
		c4.866-10.001,19.468-20.589,21.631-17.06c2.164,3.529-8.111,12.353-8.111,14.118c0,1.765,4.326,2.941,10.275-0.588
		c5.948-3.53,9.17-10.667,9.17-10.667s9.757,17.727-0.518,33.609c-10.275,15.883-14.602,22.354-14.602,22.354
		s-66.518,147.651-90.854,149.417C1648.282,1040.007,1517.752,895.237,1540.529,826.39z"/>
	<path style="fill:#F7A491;" d="M1597.734,728.792c0,0-0.233,1.326-0.653,3.582c-2.011,10.823-9.755,46.726-14.987,56.596
		c-6.323,11.928,21.646,49.971,48.565,45.328c8.014-1.382-6.773-34.954-6.063-38.511c1.359-6.807,3.205-16.094,5.092-25.616
		c1.065-5.372,2.144-10.818,3.156-15.937c2.879-14.547,5.229-26.445,5.229-26.445L1597.734,728.792z"/>
	<path style="fill:#F47458;" d="M1597.081,732.374c0.42-2.256,0.653-3.582,0.653-3.582l40.339-1.003c0,0-2.35,11.898-5.229,26.445
		c-1.007,5.09-2.079,10.505-3.138,15.848c-6.228-0.916-12.735-3.937-19.261-9.637c-7.113-6.214-11.775-13.682-14.589-21.655
		C1596.354,736.246,1596.77,734.053,1597.081,732.374z"/>
	<path style="fill:#F7A491;" d="M1621.999,632.919c0,0-16.451,2.282-28.369,17.665s-24.764,62.956,4.843,88.82
		c29.605,25.864,58.858-3.412,63.196-34.454C1666.006,673.909,1665.129,631.798,1621.999,632.919z"/>
	<path style="fill:#F7A491;" d="M1671.144,694.343c-3.533,6.856-9.465,10.652-13.249,8.479c-3.782-2.173-3.985-9.492-0.452-16.348
		c3.534-6.856,9.466-10.652,13.25-8.479C1674.476,680.167,1674.677,687.487,1671.144,694.343z"/>
	<path style="fill:#13375B;" d="M1627.011,632.2c0,0-25.4,45.239-43.572,47.33c-18.172,2.091-20.558,26.129-20.558,26.129
		s6.496-55.391,24.486-66.072C1605.356,628.904,1627.011,632.2,1627.011,632.2z"/>
	<path style="fill:#F7A491;" d="M1589.381,690.309c1.478,8.034-1.495,15.401-6.64,16.456c-5.145,1.054-10.512-4.604-11.989-12.638
		c-1.478-8.034,1.494-15.401,6.638-16.456C1582.534,676.617,1587.903,682.274,1589.381,690.309z"/>
	<path style="fill:#3C8F7C;" d="M1459.038,1737.374c-23.57,4.289-39.252-9.472-47.413-19.772
		c-5.991,11.669-9.663,26.234-5.256,35.82c3.881,8.443,14.447,10.752,23.377,11.083c9.442,0.35,18.272-4.588,22.957-12.793
		C1454.892,1747.881,1457.148,1743.108,1459.038,1737.374z"/>
	<path style="fill:#3C8F7C;" d="M1660.003,1734.038c-25.947,6.645-45.127,2.127-55.855-2.189c-2.768,7.826-6.436,17.644-4.49,23.305
		c2.383,6.932,5.773,8.499,8.77,8.577c23.699,0.621,86.813,1.466,104.884,1.702c2.523,0.033,3.915-2.91,2.293-4.844
		C1711.122,1755.247,1661.937,1735.218,1660.003,1734.038z"/>
</g>
<g>
	<path style="fill:#50BFA5;" d="M588.515,726.569c41.075-57.894,132.512-31.115,135.177,39.82c0.031,0.831,0.056,1.666,0.074,2.505
		c1.824,83.878-61.997,105.759-41.939,165.932c20.058,60.173,81.002,15.297,104.707,113.762
		c23.705,98.466-57.294,153.054-50,211.403c7.293,58.35,41.942,97.236,40.115,173.225
		c-1.358,56.511-103.935,231.576-103.935,231.576s-136.757-149.521-140.404-249.81c-3.459-95.123,64.606-86.214,68.253-175.562
		c3.646-89.348-129.507-101.268-64.609-213.424c13.679-23.641,48.808-46.692,48.808-97.743s-46.188-128.843-9.724-182.324
		C579.463,739.438,583.985,732.953,588.515,726.569z"/>
	<path style="fill:#3C8F7C;" d="M736.534,1259.991c-7.294-58.35,73.705-112.938,50-211.403
		c-23.705-98.465-84.649-53.589-104.707-113.762c-20.058-60.173,43.763-82.054,41.939-165.932c-0.018-0.839-0.044-1.674-0.074-2.505
		c-1.637-43.561-36.75-70.47-73.12-71.344l-0.174,2.265c0,0-51.051,206.635-17.017,311.167
		c34.034,104.532,60.775,111.825,43.758,252.823c-17.017,140.998-4.425,403.492-4.425,403.492s102.577-175.065,103.935-231.576
		C778.476,1357.228,743.827,1318.341,736.534,1259.991z"/>
	<g>
		<path style="fill:#F47458;" d="M759.542,1732.103H537.389c-28.294-26.668-45.532-63.397-44.903-103.688
			c0.317-20.347,4.375-38.086,12.841-55.503l286.423,3.321c7.917,17.695,12.164,37.133,11.846,57.479
			C802.997,1672.096,786.292,1706.7,759.542,1732.103z"/>
	</g>
</g>
<g>
	<path style="fill:#FAE0B2;" d="M1832.074,534.685h-216.221c-20.613,0-37.323-16.71-37.323-37.324v-74.647
		c0-20.613,16.71-37.324,37.323-37.324h216.221c20.613,0,37.323,16.71,37.323,37.324v74.647
		C1869.397,517.974,1852.688,534.685,1832.074,534.685z"/>
	<polygon style="fill:#FAE0B2;" points="1671.195,514.092 1642.881,599.036 1725.251,514.092 	"/>
	<path style="fill:#FFFFFF;" d="M1663.909,465.722c0,7.51-6.523,13.598-14.57,13.598c-8.045,0-14.568-6.088-14.568-13.598
		c0-7.509,6.523-13.597,14.568-13.597C1657.386,452.125,1663.909,458.212,1663.909,465.722z"/>
	<path style="fill:#FFFFFF;" d="M1738.376,465.722c0,7.51-6.522,13.598-14.568,13.598c-8.047,0-14.569-6.088-14.569-13.598
		c0-7.509,6.522-13.597,14.569-13.597C1731.854,452.125,1738.376,458.212,1738.376,465.722z"/>
	<path style="fill:#FFFFFF;" d="M1812.844,465.722c0,7.51-6.522,13.598-14.569,13.598s-14.569-6.088-14.569-13.598
		c0-7.509,6.522-13.597,14.569-13.597S1812.844,458.212,1812.844,465.722z"/>
</g>
<g>
	<path style="fill:#355389;" d="M731.2,1285.116c0,0,120.868-36.267,125.738-35.364c4.782,0.887-14.206,41.199-11.834,54.224
		c0.76,4.18-103.451,63.773-126.612,59.377c-25.252-4.794-122.325-88.291-132.678-106.396
		c-11.571-20.237-31.831-70.711-18.337-89.72c6.149-8.662,21.05-20.198,31.389-17.76
		C639.988,1159.178,684.388,1232.011,731.2,1285.116z"/>
	<path style="fill:#466EB6;" d="M737.839,1423.687c-0.793-3.593-25.873-61.919-27.147-67.868
		c-16.658-77.74-80.781-191.42-110.469-206.046c-4.802-2.4-39.075-2.619-39.075-2.619l17.715,8.762
		c20.182,18.434,42.767,39.756,57.174,63.55c41.779,68.999,70.235,227.944,74.038,227.668
		C714.324,1446.823,739.599,1431.653,737.839,1423.687z"/>
	<path style="fill:#F7CC7F;" d="M698.154,1425.847c-58.689-34.132-67.919-114.725-92.729-158.001
		c-30.382-52.995-75.187-58.771-152.313,37.297c-94.55,117.771-46.441,354.7,84.117,430.627l313.074-0.675
		c64.504-23.221,93.166-57.276,116.336-113.996C1069.684,1368.854,828.712,1501.772,698.154,1425.847z"/>
	<path style="fill:#F7A491;" d="M837.013,1687.478c0,0-2.184,38.58-2.196,38.659c-0.803,4.898-3.964,16.999-3.964,21.452
		c0,16.729,74.428-14.199,57.748-21.613c-1.51-0.671-11.765-9.534-12.261-15.227c-0.765-8.773-0.36-22.73-0.36-22.73
		L837.013,1687.478z"/>
	<path style="fill:#07345A;" d="M887.523,1725.248c0,0-17.474,5.116-26.423,6.396c-8.95,1.279-20.749-9.492-27.08-6.582
		c-5.171,2.377-7.187,19.618-7.883,28.354c-0.22,2.767,1.885,5.168,4.658,5.313c20.58,1.072,98.836,4.683,119.144-1.195
		C960.475,1754.482,923.247,1737.165,887.523,1725.248z"/>
	<path style="fill:#07345A;" d="M1046.158,1648.797c0,0-17.474,5.117-26.423,6.396c-8.95,1.278-20.749-9.493-27.079-6.583
		c-5.17,2.377-7.187,19.618-7.883,28.354c-0.22,2.768,2.208,5.901,4.972,6.174c22.833,2.249,98.522,3.822,118.831-2.057
		C1119.11,1678.031,1081.882,1660.715,1046.158,1648.797z"/>
	<path style="fill:#F7A491;" d="M972.824,1617.53c0,0,20.928,29.44,22.886,35.94c1.958,6.499,50.461,11.263,50.461-4.665
		c0-0.206-15.042-12.439-19.29-18.013c-7.104-9.32-23.669-40.462-23.669-40.462L972.824,1617.53z"/>
	<path style="fill:#07345A;" d="M522.142,976.262c0,0-23.623-15.97-33.607,12.009c0,0-13.343-4.043-19.052,9.668
		c0,0-22.878-1.719-21.001,31.505c0,0-11.499,0.355-10.059,13.798c1.44,13.443,10.036,20.719,10.036,20.719
		s-5.174,6.02,0.307,17.462c4.661,9.729,13.493,9.416,13.493,9.416s6.108,16.781,14.756,20.332
		c8.648,3.551,18.301-1.202,18.301-1.202s4.777,8.774,13.341,6.009c8.563-2.765,17.554-13.487,28.171-11.9
		c10.617,1.587,35.152-7.981,35.152-7.981s25.728-19.006,10.749-46.279c0,0,12.006-16.849-4.703-30.196
		c0,0,3.969-27.525-18.295-38.335C537.465,970.476,522.142,976.262,522.142,976.262z"/>
	<path style="fill:#F47458;" d="M896.622,1393.267c-19.639-9.661-225.68,22.428-225.68,22.428l-24.702-39.377l-80.427,18.248
		c0,0-22.761,26.205-23.703,37.94c-3.048,37.976,14.36,101.843,33.99,108.05c69.918,22.111,220.24-23.079,241.282-27.909
		c0,0-0.765,34.063,5.611,103.588c2.519,27.472,5.819,57.753,8.878,84.239c18.401-0.043,36.803-0.387,55.204-2.81
		C887.075,1697.664,916.261,1402.928,896.622,1393.267z"/>
	<path style="fill:#B75742;" d="M1027.225,1613.371c-35.246-89.026-111.739-263.745-139.458-268.658
		c-36.339-6.44-216.856,71.05-216.856,71.05l183.146-3.82c0,0,1.009,1.812,8.982,40.197
		c6.215,29.925,75.112,135.289,114.395,193.662C995.554,1637.607,1013.497,1630.043,1027.225,1613.371z"/>
	<path style="fill:#FFFFFF;" d="M562.021,1147.809c0,0-45.604-0.517-50.451,0.554c-4.847,1.07,3.829,186.117,9.76,255.17
		c5.931,69.053,15.438,79.412,15.438,79.412s65.039,0.252,109.984-13.935c46.734-14.751,57.837-69.036,57.837-69.036
		s-42.331-124.146-59.298-162.617c-10.854-24.608-32.54-52.305-54.501-74.86C578.42,1149.79,562.021,1147.809,562.021,1147.809z"/>
	<path style="fill:#F7A491;" d="M549.195,1114.136l9.152,24.966c0,0,15.957,35.357,7.539,44.712
		c-8.418,9.355-52.509-35.889-52.509-35.889l-10.966-65.963L549.195,1114.136z"/>
	<path style="fill:#F47458;" d="M505.969,1103.338c13.169,20.417,35.855,29.744,50.986,31.964l-7.759-21.167l-46.784-32.173
		L505.969,1103.338z"/>
	<path style="fill:#F7A491;" d="M510.383,1008.354c18.744-11.463,43.343-2.762,51.057,17.465
		c3.353,8.793,7.095,19.953,10.082,32.399c7.184,29.936-1.915,62.622-15.563,65.636c-13.648,3.015-55.664-8.111-66.452-50.479
		C482.846,1047.219,490.713,1020.384,510.383,1008.354z"/>
	<path style="fill:#F7A491;" d="M500.308,1074.528c1.464,6.631-1.744,12.976-7.165,14.174c-5.422,1.197-11.003-3.207-12.468-9.837
		c-1.464-6.63,1.744-12.976,7.165-14.173C493.261,1063.494,498.843,1067.899,500.308,1074.528z"/>
	<path style="fill:#466EB6;" d="M513.289,1147.729c0,0-52.951-2.104-65.001,9.029c-7.663,7.078,7.858,77.931,7.858,77.931
		s43.193,82.68,49.474,131.043c10.431,80.327,19.944,129.68,24.061,132.337c23.796,8.545,102.466-7.707,105.737-17.002
		C671.53,1378.43,513.289,1147.729,513.289,1147.729z"/>
	<path style="fill:#184655;" d="M769.368,1317.856l35.154-148.43c0.91-3.842,4.342-6.557,8.292-6.557h63.827
		c5.594,0,9.671,5.3,8.235,10.707l-38.767,146.061c-0.959,3.615-4.164,6.182-7.901,6.329l-60.214,2.368
		C772.36,1328.556,768.068,1323.343,769.368,1317.856z"/>
	<path style="fill:#F8A492;" d="M827.611,1314.023c-2.701,0.521-7.167,1.494-10.258,2.625c-3.34,1.223-6.792,1.301-9.752,1.911
		c-5.877,1.215-10.148,2.172-10.062,1.908c0.11-0.342-1.214-0.901,1.854-2.065c3.688-1.4,12.166-2.696,17.434-5.162
		c2.987-1.397,9.404-3.953,9.404-3.953s8.994-5.616,8.844-6.234c-0.813-3.344-8.03-1.18-11.845,1.234
		c-3.212,0.333-9.889,3.207-9.889,3.207s-14.782,2.878-15.192,0.849c-0.174-0.864,8.695-3.684,16.972-7.772
		c7.685-3.797,14.836-8.847,14.326-10.431c-0.866-2.686-9.843,0.651-9.843,0.651s-6.166,2.663-8.28,3.396
		c-2.479,0.859-10.092,2.881-10.092,2.881s-26.815,5.841-27.034,3.885c-0.22-1.954,1.275-7.228,2.819-8.15
		c1.542-0.922,5.252-1.179,6.796-2.101c1.543-0.923,2.774-3.402,1.794-5.319c-0.979-1.917-10.132-0.224-10.132-0.224
		s-7.433,1.433-11.437,4.793c-13.872,11.639-11.384,13.402-13.203,14.849c-2.15,1.71-38.761,5.722-38.761,5.722
		s-107.831,12.519-113.674,12.995l3.784,35.9c6.424,0.658,130.869-21.026,143.641-23.574c0,0,16.279,2.428,26.559,3.623
		c10.279,1.195,20.661-2.148,23.616-2.246c0.436-0.015,10.27-0.903,22.138-5.14c10.228-3.651-1.099-4.728-1.099-4.728
		s-20.132,3.466-20.109,1.875c0.018-1.227,11.115-2.488,22.473-6.413c2.92-1.01,5.8-2.017,8.437-2.962
		C834.761,1317.373,835.258,1312.547,827.611,1314.023z"/>
	<path style="fill:#86B1F2;" d="M582.275,1305.94c0,0,125.78-0.902,130.65,0c4.782,0.887,6.129,33.163,8.5,46.188
		c0.761,4.18-132.579,19.114-155.741,14.717c-25.251-4.794-88.846-74.657-103.582-98.232
		c-12.359-19.775-38.735-70.101-32.176-92.127c3.963-13.309,24.542-28.336,35.778-24.854
		C510.522,1165.525,582.275,1305.94,582.275,1305.94z"/>
	<g>
		<path style="fill:#F7A491;" d="M867.239,1246.71c2.417-0.943,5.142,0.498,5.636,3.047c0.505,2.607,0.521,5.729-1.473,7.723
			c-3.956,3.955-30.659,6.923-30.659,2.967C840.744,1257.405,858.857,1249.982,867.239,1246.71z"/>
		<path style="fill:#F7A491;" d="M873.116,1258.307c0,0,3.071,9.849,0.77,10.025c-2.301,0.176-30.923,4.192-32.338,0.83
			C840.132,1265.799,869.336,1256.447,873.116,1258.307z"/>
		<path style="fill:#F7A491;" d="M874.294,1269.36c0,0,1.103,4.361-1.109,7.07c-2.211,2.708-29.044,2.767-30.295-1.415
			C841.64,1270.835,873.142,1266.163,874.294,1269.36z"/>
		<path style="fill:#F7A491;" d="M868.166,1279.411c0,0,0.558,3.334-0.554,4.974c-1.111,1.641-20.968,2.691-23.558-1.175
			C841.464,1279.345,865.221,1275.445,868.166,1279.411z"/>
	</g>
</g>
<g>
	<g>
		<path style="fill:#F7CC7F;" d="M2346.507,807.92c27.414-1.546,43.009,31.409,24.487,51.836c-3.326,3.668-5.125,8.472-5.241,13.422
			l-0.402,17.037c-0.109,4.695-3.809,8.517-8.497,8.782l-10.386,0.586c-4.688,0.265-8.794-3.118-9.432-7.771
			c-2.327-16.977-1.957-23.407-9.032-29.632C2307.307,843.969,2319.087,809.466,2346.507,807.92z"/>
		<g>
			<path style="fill:#FFFFFF;" d="M2358.075,879.227c-1.374-13.767-2.357-28.974-2.541-34.672
				c-5.063,0.639-10.219,0.333-15.166-0.888c1.697,11.349,3.114,22.844,4.218,34.233l-1.471,0.143
				c-1.122-11.576-2.567-23.263-4.304-34.792c-2.99-0.863-6.467-2.04-8.109-4.629c-0.771-1.213-1.012-2.832-0.63-4.225
				c1.016-3.708,5.536-3.743,7.779-0.67c1.486,2.035,1.733,4.78,2.278,8.355c5.002,1.317,10.244,1.657,15.38,0.987
				c0.007-2.89,0.389-5.611,1.97-7.907c5.547-8.057,14.869,6.636-0.475,9.18c0.132,4.46,1.077,20.074,2.541,34.737L2358.075,879.227
				z M2358.696,836.001c-1.324,1.922-1.681,4.293-1.707,6.846c3.326-0.583,5.44-1.725,6.463-3.477
				C2365.169,836.431,2361.681,831.664,2358.696,836.001z M2332.688,833.221c-1.52,0.772-1.663,3.154-0.739,4.609
				c1.318,2.077,4.178,3.057,6.617,3.807c-0.433-2.832-0.658-5.328-1.907-7.038C2335.782,833.399,2332.854,833.138,2332.688,833.221
				z"/>
		</g>
		<path style="fill:#3C8F7C;" d="M2365.78,872.754c-0.006,0.142-0.024,0.282-0.027,0.424l-0.402,17.037
			c-0.109,4.695-3.809,8.518-8.497,8.782l-10.386,0.586c-4.688,0.265-8.794-3.118-9.432-7.771
			c-1.035-7.553-1.537-13.015-2.398-17.303L2365.78,872.754z"/>
		<g>
			<path style="fill:#FAE0B2;" d="M2363.42,791.493l4.688-16.197c0.453-1.567-0.449-3.206-2.017-3.66
				c-1.566-0.454-3.206,0.449-3.66,2.017l-4.688,16.197c-0.454,1.568,0.449,3.206,2.018,3.66
				C2361.337,793.967,2362.969,793.053,2363.42,791.493z"/>
		</g>
		<g>
			<path style="fill:#FAE0B2;" d="M2388.491,822.553l16.9-5.351c1.556-0.493,2.417-2.153,1.925-3.71
				c-0.493-1.555-2.153-2.418-3.71-1.925l-16.9,5.351c-1.555,0.493-2.417,2.154-1.924,3.709
				C2385.274,822.183,2386.933,823.045,2388.491,822.553z"/>
		</g>
		<g>
			<path style="fill:#FAE0B2;" d="M2417.367,871.585c0.867-1.383,0.448-3.207-0.934-4.074c-5.171-3.242-10.679-6.003-16.37-8.208
				c-1.521-0.589-3.231,0.166-3.822,1.688c-0.59,1.522,0.167,3.234,1.688,3.823c5.342,2.069,10.511,4.661,15.364,7.704
				C2414.67,873.381,2416.496,872.975,2417.367,871.585z"/>
		</g>
		<g>
			<path style="fill:#FAE0B2;" d="M2320.66,800.211c1.447-0.754,2.009-2.539,1.254-3.986c-3.583-6.872-6.46-14.14-8.55-21.602
				c-0.441-1.572-2.07-2.492-3.643-2.048c-1.572,0.44-2.488,2.071-2.049,3.643c2.201,7.855,5.229,15.506,9.001,22.74
				C2317.433,800.412,2319.224,800.962,2320.66,800.211z"/>
		</g>
		<g>
			<path style="fill:#FAE0B2;" d="M2307.852,826.327c0.118-1.628-1.104-3.044-2.731-3.164l-19.123-1.404
				c-1.629-0.119-3.045,1.104-3.164,2.731c-0.119,1.627,1.104,3.044,2.73,3.164l19.124,1.404
				C2306.312,829.176,2307.73,827.958,2307.852,826.327z"/>
		</g>
		<g>
			<path style="fill:#FAE0B2;" d="M2289.049,880.573c0.259-0.058,0.513-0.151,0.758-0.283c5.819-3.13,11.317-6.896,16.339-11.195
				c1.24-1.061,1.385-2.926,0.324-4.167c-1.061-1.24-2.927-1.384-4.166-0.323c-4.701,4.023-9.848,7.55-15.297,10.479
				c-1.438,0.773-1.976,2.565-1.202,4.002C2286.446,880.28,2287.789,880.854,2289.049,880.573z"/>
		</g>
	</g>
	<path style="fill:#F7CC7F;" d="M2536.213,1231.897c-65.613-84.242-104.789-80.001-132.201-34.744
		c-22.383,36.957-31.82,106.396-83.595,134.891c-115.174,63.389-265.856,41.33-205.576,221.06
		c16.847,50.229,42.794,46.265,54.814,46.623l292.949-0.292C2577.779,1536.046,2616.648,1335.171,2536.213,1231.897z"/>
	<g>
		<g>
			<path style="fill:#355389;" d="M2474.586,1075.34c6.74-32.958-8.766-65.633-38.401-77.9c0.197-18.754-7.193-37.57-19.962-50.41
				c-25.187-25.329-77.083-36.283-95.605-3.993c-24.464,13.883-22.916,31.117-15.62,58.506c-23.712,24.631-15.045,64.954,19.525,86
				c-0.547,27.636-1.266,69.313,22.828,81.122c5.783,2.835,14.831,6.786,15.977,8.013c-1.508-1.43,17.845,52.624,77.967,27.885
				C2502.644,1179.317,2514.572,1108.26,2474.586,1075.34z"/>
			<path style="fill:#F48C7F;" d="M2219.682,1297.75c4.825-4.764,13.323-8.986,12.827-9.688
				c-2.011-2.838-23.012,18.88-21.639,12.762c0.765-3.406,15.8-21.142,21.134-21.807c5.173-0.646,38.657-5.928,38.657-5.928
				l77.378-51.433c0,0,3.833-60.832-12.589-101.811c17.959-5.478,21.462-6.65,39.917-5.224
				c10.528,41.568,21.856,111.587,8.178,131.993c-5.755,8.584-106.333,41.78-106.333,41.78s-21.76,8.194-25.814,8.448
				c-3.075,0.193-11.546-0.514-15.683,0.128c-9.399,1.46-21.043,15.439-21.841,13.827
				C2213.295,1309.626,2214.751,1302.616,2219.682,1297.75z"/>
			<path style="fill:#F47458;" d="M2326.042,1114.979c7.268-13.442,14.753-24.108,14.753-24.108
				c7.538-13.445,27.012-20.245,27.012-20.245s6.514,0.133,13.993,0.501c0.463,1.245,0.936,2.135,1.411,2.492
				c2.811,2.115,18.92-0.615,29.325,6.473c34.877,29.996,25.23,175.39,22.488,221.313l-87.07,0.372c0,0-5.756-98.174-27.337-123.56
				C2305.588,1160.538,2315.261,1134.918,2326.042,1114.979z"/>
			<path style="fill:#F79C8D;" d="M2302.17,1626.511c-0.935-1.721-13.035-30.907-22.92-43.906
				c-14.356-18.878-138.48-189.804-133.372-231.403c2.231-18.167,56.015-33.571,62.4-34.667
				c34.226,4.592-1.731,34.057,23.982,58.279c-16.717,5.718-26.573,12.86-22.963,17.556c14.468,18.821,91.3,170.468,94.641,172.426
				c14.879,8.723,20.716,4.679,20.716,4.679s-3.428,85.299-10.523,82.607C2307.034,1649.39,2312.701,1645.899,2302.17,1626.511z"/>
			<path style="fill:#B75742;" d="M2330.934,1570.012l-14.353,85.936c-3.229,11.124-8.656,10.998-10.047,9.509
				c-2.861-3.067-4.171-26.014-4.518-39.059c6.474-19.905,5.86-57.379,1.87-61.609
				C2313.647,1564.966,2330.923,1568.104,2330.934,1570.012z"/>
			<path style="fill:#F7A491;" d="M2279.622,1359.457c-19.262-31.932-18.231-27.891-51.749-42.319
				c-13.429,5.396-58.384,33.566-64.079,38.775l71.488,51.85C2232.947,1401.965,2257.845,1373.174,2279.622,1359.457z"/>
			<path style="fill:#F7A491;" d="M2373.919,1021.438c0,0,5.838,41.837,9.916,52.003c4.078,10.167-22.422,31.911-44.473,38.51
				c-22.049,6.6,6.74-22.457,5.826-33.325s-4.921-62.327-4.921-62.327L2373.919,1021.438z"/>
			<path style="fill:#F47458;" d="M2341.38,1031.056c-0.644-8.513-1.112-14.758-1.112-14.758l33.651,5.14
				c0,0,0.848,4.915,1.787,11.864C2362.063,1041.243,2349.796,1038.737,2341.38,1031.056z"/>
			<path style="fill:#F7A491;" d="M2363.366,945.019c0,0,13.265,3,21.454,15.54c8.189,12.54,13.81,49.458-13.165,66.69
				s-47.953-7.143-48.301-30.919S2328.085,940.827,2363.366,945.019z"/>
			<path style="fill:#F7A491;" d="M2317.181,988.891c2.302,5.737,6.867,9.297,10.198,7.952c3.33-1.345,4.165-7.086,1.863-12.823
				c-2.302-5.737-6.866-9.297-10.197-7.952C2315.714,977.413,2314.88,983.153,2317.181,988.891z"/>
			<path style="fill:#F7A491;" d="M2385.25,993.607c-1.955,6.18-0.165,12.266,3.998,13.592c4.163,1.326,9.124-2.608,11.079-8.789
				c1.957-6.18,0.166-12.266-3.997-13.592C2392.167,983.491,2387.206,987.426,2385.25,993.607z"/>
			<path style="fill:#466EB6;" d="M2283.553,1304.229c14.896-1.367,64.185-6.372,64.185-6.372l87.436-11.755
				c0,0,15.451,36.918,16.056,60.082c1.057,40.517-36.233,74.666-68.126,72.707c-18.983-1.166-126.45-3.518-147.428-11.298
				c-4.335-33.011-9.316-68.787-31.565-92.539C2239.733,1310.16,2263.339,1306.085,2283.553,1304.229z"/>
			<path style="fill:#F7A491;" d="M2282.437,1609.846c-2.396-2.479-21.582-133.692-33.153-188.766
				c-2.786-13.26-11.221-24.64-23.114-31.131l-62.375-34.036c-21.608,19.763,79.217,241.705,88.444,264.97
				c6.354,16.02,10.347,49.108,10.808,51.122c5.19,22.691-1.571,24.618,4.883,29.377c6.453,4.758,35.376-78.087,35.376-78.087
				S2295.09,1622.948,2282.437,1609.846z"/>
			<path style="fill:#355389;" d="M2301.225,1309.938L2301.225,1309.938c0.008,3.304-3.028,5.99-6.781,5.999l-105.94,0.25
				c-3.753,0.009-7.519-3.237-8.74-7.254l1.931,1.287c-0.007-3.305,3.028-5.99,6.781-5.999l105.94-0.25
				C2298.168,1303.962,2301.217,1306.633,2301.225,1309.938z"/>
			<g>
				<path style="fill:#355389;" d="M2189.571,1314.023c0.63,0,1.269-0.039,1.91-0.121c5.483-0.692,9.08-4.191,8.03-7.816
					l-40.433-139.906c-1.046-3.625-6.338-6.003-11.825-5.31c-5.484,0.692-9.079,4.191-8.031,7.817l40.434,139.906
					C2180.581,1311.795,2184.818,1314.023,2189.571,1314.023z"/>
			</g>
			<path style="fill:#F7A491;" d="M2220.772,1295.063c6.064-3.033,15.453-4.414,15.197-5.236
				c-1.031-3.32-27.974,13.854-24.771,8.462c1.781-3.001,21.818-18.237,27.096-17.217c5.118,0.988,38.592,6.344,38.592,6.344
				l86.154-31.138c0,0,16.426-53.58,13.512-97.631c18.772,0.357,31.889,3.476,48.993,10.551
				c-2.872,42.785-13.8,112.868-33.13,128.03c-8.131,6.378-114.045,6.771-114.045,6.771s-23.229,1.048-27.162,0.033
				c-2.984-0.77-10.818-4.067-14.95-4.739c-9.39-1.524-24.792,8.158-25.05,6.379
				C2211.02,1304.376,2214.577,1298.162,2220.772,1295.063z"/>
			<path style="fill:#B75742;" d="M2370.563,1111.916c1.202-13.54,2.856-27.179,16.661-33.032c8.556-3.628,18.781-2.3,26.534,2.677
				c9.226,5.922,12.863,16.718,14.044,27.199c2.68,23.8,3.934,48.653,2.328,72.58c-17.104-7.077-40.369-3.331-59.142-3.688
				C2366.801,1156.684,2368.995,1129.561,2370.563,1111.916z"/>
		</g>
		<path style="fill:#F7A491;" d="M2233.571,1282.283c-14.721,3.766-13.898,3.489-14.493,3.864
			c-10.401,6.553-9.575,9.396,6.392,2.551c0.404-0.174,0.838-0.259,1.277-0.254l7.576,0.082c2.939,0.031,4.336-3.607,2.13-5.551l0,0
			C2235.666,1282.282,2234.588,1282.023,2233.571,1282.283z"/>
		<path style="fill:#F47458;" d="M2262.4,1667.16c0,0,0.628,10.405-2.87,18.749c-3.499,8.342-16.865,11.481-13.636,15.787
			s29.064,0,29.064,0l29.892-73.1c1.223-2.713,0.525-5.898-1.711-7.86c-3.589-3.149-10.174-7.62-20.553-10.73
			C2282.587,1610.006,2284.198,1655.857,2262.4,1667.16z"/>
	</g>
</g>
<g>
	<path style="fill:#F48C7F;" d="M1764.524,1125.433c18.248-5.258,18.737-2.004,21.053-2.741
		c2.736-0.872,24.811-30.771,24.811-30.771s65.701-87.639,69.065-92.509l20.721-113.403l62.245-0.492
		c0,0-26.003,122.466-28.546,128.529s-106.662,113.105-115.484,122.848c0,0-5.702,15.821-9.632,25.608
		c-3.93,9.788-12.343,16.943-13.904,19.491c-0.23,0.377-5.976,8.521-16,16.451c-8.639,6.836-4.073-3.806-4.073-3.806
		s13.37-15.686,11.804-16.619c-1.207-0.72-7.942,8.315-17.41,15.982c-2.434,1.972-4.844,3.908-7.075,5.669
		c-5.855,4.62-10.817,2.163-5.583-3.698c1.85-2.07,5.014-5.428,7.652-7.477c2.85-2.214,4.638-5.214,6.703-7.459
		c4.1-4.458,7.152-7.651,6.854-7.735c-0.389-0.106-0.278-1.611-2.938,0.396c-3.196,2.415-8.666,9.118-13.688,12.288
		c-2.848,1.796-8.525,5.927-8.525,5.927s-9.947,4.565-10.477,4.063c-2.863-2.723,2.83-7.793,7.08-9.711
		c1.918-2.635,8.036-6.803,8.036-6.803s10.142-11.318,8.363-12.896c-0.757-0.673-7.91,5.463-16.009,10.313
		c-7.52,4.503-16,7.784-17.295,6.383c-2.193-2.375,5.518-8.295,5.518-8.295s5.659-3.843,7.424-5.269
		c2.068-1.672,7.818-7.177,7.818-7.177s19.003-20.158,17.201-21.523c-1.801-1.367-7.694-3.213-9.361-2.403
		c-1.665,0.808-3.755,3.928-5.422,4.736c-1.666,0.809-4.699,0.406-6.086-1.607c-1.387-2.015,4.807-9.075,4.807-9.075
		S1759.256,1126.95,1764.524,1125.433z"/>
	<path style="fill:#F7A491;" d="M1867.872,1694.341c0,0,2.215,39.126,2.229,39.207c0.813,4.967,4.02,17.24,4.02,21.756
		c0,16.965-75.482-14.4-58.565-21.92c1.531-0.68,9.553-5.827,10.056-11.601c0.776-8.896,2.744-26.895,2.744-26.895
		L1867.872,1694.341z"/>
	<path style="fill:#184655;" d="M1815.741,1733.224c0,0,17.722,5.189,26.799,6.486c9.076,1.298,21.042-9.626,27.463-6.676
		c7.066,3.248,6.352,35.229,6.352,35.229s-94.598,5.575-121.32-3.034C1744.446,1761.819,1779.512,1745.311,1815.741,1733.224z"/>
	<path style="fill:#F7A491;" d="M2034.173,1698.095c0,0,2.215,39.127,2.228,39.207c0.813,4.968,4.021,17.241,4.021,21.756
		c0,16.966-75.482-14.4-58.566-21.919c1.532-0.681,11.932-9.669,12.436-15.442c0.775-8.897,0.365-23.053,0.365-23.053
		L2034.173,1698.095z"/>
	<path style="fill:#184655;" d="M1982.042,1736.978c0,0,17.721,5.189,26.798,6.487s21.043-9.627,27.463-6.677
		c7.066,3.249,7.349,32.483,7.349,32.483s-101.133,7.331-124.91,0.448C1908.057,1766.627,1945.813,1749.065,1982.042,1736.978z"/>
	<path style="fill:#355389;" d="M1914.556,1133.287l-31.912,13.767l-67.129,320.576l2.721,240.326l53.813,1.251
		c0,0,25.029-210.224,25.029-226.515c0-16.292,115.934-285.104,115.934-285.104L1914.556,1133.287z"/>
	<path style="fill:#466EB6;" d="M1939.187,1150.927c0,0,23.512,246.995,23.512,288.629c0,41.636,19.062,274.658,19.062,274.658
		l53.941-0.313c0,0,3.892-71.027,9.675-175.52c0.905-16.365-1.166-49.386,0-66.327c8.391-121.854,24.987-236.564,17.061-282.034
		c-1.275-7.318-3.674-26.457-8.342-31.287C2018.771,1122.188,1939.187,1150.927,1939.187,1150.927z"/>
	<path style="fill:#3C8F7C;" d="M1873.389,956l65.272-4.372c0,0,3.221-58.345,3.221-86.175c0-33.765,10.291-83.547,6.268-82.611
		c-11.291,2.627-30.785,13.021-39.838,25.629C1876.985,852.097,1873.389,956,1873.389,956z"/>
	<path style="fill:#50BFA5;" d="M2028.03,781.55c0,0,37.221,5.175,47.018,12.37c11.034,8.102,23.277,26.232,23.277,26.232
		s-45.698,216.018-45.779,252.367c-0.063,28.123,9.895,97.174,9.895,97.174s-138.098,8.717-190.4-11.93
		c0,0,16.516-82.124,16.516-103.688s19.756-217.655,24.252-231.35c4.08-12.425,11.535-34.753,36.769-40.258
		C1974.811,776.962,2028.03,781.55,2028.03,781.55z"/>
	<path style="fill:#F7A491;" d="M2017.867,723.391l9.214,60.321c0,0-33.646,71.824-53.732,65.595
		c-16.854-5.226-6.484-68.777-6.484-68.777s9.186-34.129,6.431-51.207C1970.54,712.243,2017.867,723.391,2017.867,723.391z"/>
	<path style="fill:#F47458;" d="M1973.295,729.322c-2.755-17.079,44.572-5.932,44.572-5.932l0.765,5.003
		c-1.385,3.347-3.078,6.211-5.133,8.408c-10.571,11.302-27.096,18.089-41.382,18.603
		C1973.546,746.195,1974.425,736.325,1973.295,729.322z"/>
	<g>
		<path style="fill:#F7A491;" d="M2025.633,638.051c1.337-0.483,10.722,68.703-7.087,87.739
			c-17.809,19.036-52.506,25.267-64.951,10.274c-13.766-16.583-13.074-90.942,14.613-110.524
			C1995.896,605.958,2025.633,638.051,2025.633,638.051z"/>
		<path style="fill:#13375B;" d="M1978.748,588.531c21.401,4.334,35.264,17.327,40.356,22.863
			c9.717,1.14,22.926,6.475,36.564,28.907c16.77,27.582,4.385,58.14-15.137,73.133c-19.521,14.994-19.301,32.399-19.301,32.399
			l-3.035-9.045c-2.277-6.787-3.207-13.982-2.445-21.1c0.457-4.271,1.378-8.889,3.157-12.686
			c4.695-10.013-10.086-16.666-14.229-24.996c-3.191-6.414-3.347-21.089-8.375-31.692l-6.004-8.094c0,0-13.854-10.708-27.406-7.687
			C1949.34,633.556,1951.29,582.969,1978.748,588.531z"/>
		<path style="fill:#F7A491;" d="M2005.589,690.319c-0.141,8.441,3.721,15.351,8.628,15.435c4.906,0.083,8.998-6.692,9.14-15.134
			c0.141-8.44-3.722-15.351-8.629-15.435C2009.821,675.102,2005.729,681.878,2005.589,690.319z"/>
	</g>
	<path style="fill:#13375B;" d="M1933.112,1001.282l-0.893,5.15c-0.458,2.65-2.979,4.426-5.629,3.968l-106.742-18.487
		c-2.648-0.459-4.426-2.979-3.967-5.629l0.893-5.151c0.459-2.65,2.979-4.426,5.629-3.967l106.742,18.487
		C1931.796,996.112,1933.571,998.632,1933.112,1001.282z"/>
	<path style="fill:#F7A491;" d="M2084.433,809.366c-12.523-0.363-23.601,82.243-15.662,90.392
		c7.939,8.149,9.454,109.892,9.454,109.892l-118.144-2.937l-0.016,0.04c-2.304-1.545-27.055-18.168-30.594-21.801
		c-3.714-3.812-21.75-1.906-26.523,3.334c-4.774,5.241,10.609,0.953,14.854,3.812c4.243,2.859-3.184,10.005-3.184,10.005
		s-29.941,4.345-35.775-1.849c-5.836-6.193-21.429-16.677-23.551-10.483c-1.095,3.196,6.947,12.879,11.477,16.943
		c-5.653-4.231-12.422-8.727-14.744-7.945c-4.244,1.429-2.476,6.829-0.177,8.416c2.298,1.588,26.067,19.735,29.78,21.006
		c3.627,1.241,58.912,2.606,68.463,4.723c0,0,155.798,35.477,164.655,33.263c7.771-1.942,15.542-51.81,15.542-90.008
		C2130.288,937.969,2123.567,810.499,2084.433,809.366z"/>
	<path style="fill:#50BFA5;" d="M2068.188,790.521c0,0,21.794,5.019,44.307,30.317c20.475,23.006,33.373,151.845,33.373,151.845
		l-70.694,11.43l-5.646-62.323l-18.889-28.507L2068.188,790.521z"/>
</g>
<g>
	<path style="fill:#FAE0B2;" d="M872.627,1052.27h-170.91c-16.294,0-29.503-13.209-29.503-29.503v-59.004
		c0-16.293,13.209-29.502,29.503-29.502h170.91c16.294,0,29.503,13.209,29.503,29.502v59.004
		C902.129,1039.061,888.92,1052.27,872.627,1052.27z"/>
	<polygon style="fill:#FAE0B2;" points="745.462,1035.992 818.252,1151.395 788.189,1035.992 	"/>
</g>
<path style="fill:#9BC1F9;" d="M2175.864,430.66l-6.996-16.545l-17.598-3.616c-2.004-0.412-2.666-2.943-1.12-4.284l13.574-11.768
	l-1.999-17.853c-0.228-2.033,1.976-3.445,3.728-2.389l15.386,9.273l16.361-7.417c1.864-0.845,3.888,0.813,3.425,2.807l-4.064,17.499
	l12.11,13.269c1.38,1.511,0.427,3.948-1.611,4.124l-17.898,1.542l-8.876,15.619C2179.274,432.697,2176.662,432.545,2175.864,430.66z
	"/>
<path style="fill:#F7CC7F;" d="M1259.368,364.04l-5.546-13.113l-13.947-2.866c-1.588-0.327-2.113-2.333-0.888-3.395l10.758-9.327
	l-1.584-14.15c-0.181-1.612,1.565-2.731,2.954-1.894l12.195,7.349l12.968-5.879c1.477-0.669,3.081,0.645,2.714,2.225l-3.222,13.869
	l9.599,10.516c1.093,1.198,0.338,3.129-1.277,3.269l-14.186,1.222l-7.036,12.378C1262.07,365.655,1260,365.534,1259.368,364.04z"/>
<polygon style="fill:#F48C7F;" points="2376.351,374.41 2371.589,393.586 2339.888,389.332 2329.467,416.513 2305.222,417.208 
	2305.574,429.482 2338,428.552 2347.876,402.793 2380.854,407.218 2388.021,378.362 "/>
<polygon style="fill:#466EB6;" points="1373.767,388.993 1369.004,408.169 1337.302,403.915 1326.882,431.096 1302.637,431.791 
	1302.989,444.065 1335.415,443.135 1345.291,417.377 1378.27,421.801 1385.436,392.945 "/>
<polygon style="fill:#F48C7F;" points="1601.606,331.173 1583.724,339.577 1567.023,312.296 1539.361,321.359 1523.525,302.987 
	1514.226,311.003 1535.404,335.575 1561.62,326.987 1578.993,355.367 1605.902,342.721 "/>
<g>
	<polygon style="fill:#50BFA5;" points="2170.767,308.864 2141.796,316.774 2135.557,281.665 2145.038,279.98 2149.431,304.708 
		2168.231,299.575 	"/>
</g>
<g>
	<path style="fill:#FAE0B2;" d="M1506.832,477.4l-83.547,0.245c-6.522,0.019-11.825-5.253-11.844-11.775l0,0l107.166-0.313l0,0
		C1518.626,472.078,1513.354,477.381,1506.832,477.4z"/>
	<g>
		<path style="fill:#FAE0B2;" d="M1509.629,424.185c-9.353,0.028-16.943,6.052-16.921,13.43c0.021,7.378,7.647,13.357,17,13.33
			c9.352-0.027,16.943-6.052,16.921-13.43C1526.607,430.138,1518.981,424.158,1509.629,424.185z M1509.689,444.915
			c-5.925,0.017-10.94-3.334-10.952-7.318s4.984-7.364,10.909-7.381c5.925-0.017,10.94,3.333,10.951,7.317
			C1520.609,441.518,1515.614,444.897,1509.689,444.915z"/>
	</g>
	<path style="fill:#FAE0B2;" d="M1506.39,412.322c0.099,33.62-19.225,60.927-43.166,60.997c-23.94,0.07-43.423-27.124-43.521-60.743
		c-0.013-4.267,19.38-7.783,43.321-7.853C1486.965,404.652,1506.378,408.056,1506.39,412.322z"/>
	<path style="fill:#F7CC7F;" d="M1506.39,412.322c0.013,4.267-19.38,7.783-43.321,7.854c-23.941,0.07-43.354-3.334-43.366-7.6
		c-0.013-4.267,19.38-7.783,43.321-7.853C1486.965,404.652,1506.378,408.056,1506.39,412.322z"/>
</g>
</svg>
