<?xml version="1.0" standalone="no"?>
<!DOCTYPE svg PUBLIC "-//W3C//DTD SVG 20010904//EN"
"http://www.w3.org/TR/2001/REC-SVG-20010904/DTD/svg10.dtd">
<svg version="1.0" xmlns="http://www.w3.org/2000/svg"
width="36" height="36" viewBox="0 0 36 36"
preserveAspectRatio="xMidYMid meet">

<g transform="translate(0.000000,512.000000) scale(0.100000,-0.100000)"
fill="#bd2a2e" stroke="none">
<path d="M2415 5060 c-779 -67 -1427 -616 -1614 -1365 -49 -200 -67 -475 -41
-654 30 -209 115 -503 210 -726 215 -505 584 -1100 1064 -1716 258 -331 411
-508 460 -530 98 -44 141 -20 302 171 597 707 1098 1475 1354 2075 95 223 180
517 210 726 26 179 8 454 -41 654 -174 700 -764 1238 -1479 1349 -123 19 -311
26 -425 16z m-113 -837 c25 -22 23 -58 -7 -97 -34 -45 -32 -83 10 -152 30 -49
35 -67 35 -119 0 -137 -100 -232 -150 -142 -14 25 -13 30 8 67 30 53 28 94 -7
149 -63 100 -59 200 13 275 37 39 69 46 98 19z m320 0 c26 -23 22 -51 -12
-102 -37 -54 -37 -66 -2 -122 37 -58 52 -102 52 -153 0 -42 -29 -118 -57 -148
-32 -36 -103 -11 -103 36 0 12 9 39 20 61 27 54 25 71 -16 138 -20 32 -38 76
-41 98 -8 55 14 121 54 169 38 44 73 52 105 23z m312 1 c27 -26 24 -51 -10
-101 -31 -47 -30 -76 5 -132 35 -54 53 -126 44 -173 -9 -47 -49 -124 -68 -132
-35 -13 -65 -6 -81 20 -16 24 -16 28 4 70 30 62 28 101 -10 160 -59 91 -47
205 27 280 28 28 67 31 89 8z m-298 -823 c41 -19 75 -57 93 -102 l9 -24 -178
0 -178 0 9 24 c27 71 97 121 169 121 19 0 53 -9 76 -19z m148 -261 c249 -66
459 -237 576 -470 36 -71 81 -201 73 -212 -6 -10 -1740 -10 -1746 0 -8 11 37
141 73 212 132 262 381 444 668 490 87 14 266 4 356 -20z m764 -816 c26 -18
29 -60 5 -86 -15 -17 -59 -18 -991 -18 -894 0 -977 1 -994 17 -22 20 -23 61
-1 85 15 17 59 18 987 18 863 0 974 -2 994 -16z"/>
</g>
</svg>
