<?xml version="1.0" standalone="no"?>
<!DOCTYPE svg PUBLIC "-//W3C//DTD SVG 20010904//EN"
 "http://www.w3.org/TR/2001/REC-SVG-20010904/DTD/svg10.dtd">
<svg version="1.0" xmlns="http://www.w3.org/2000/svg"
 width="512.000000pt" height="512.000000pt" viewBox="0 0 512.000000 512.000000"
 preserveAspectRatio="xMidYMid meet">

<g transform="translate(0.000000,512.000000) scale(0.100000,-0.100000)"
fill="#0593a2" stroke="none">
<path d="M2445 5059 c-652 -38 -1252 -448 -1525 -1044 -122 -265 -165 -469
-165 -770 1 -211 15 -310 80 -536 166 -577 573 -1297 1163 -2059 161 -208 394
-490 450 -543 70 -68 154 -68 224 0 56 53 289 335 450 543 590 762 997 1482
1163 2059 65 226 79 325 80 536 0 203 -11 297 -52 455 -134 516 -474 935 -953
1175 -284 142 -585 203 -915 184z m743 -1135 c175 -52 325 -97 335 -100 31
-10 16 -47 -27 -69 -49 -25 -65 -60 -66 -141 l0 -61 58 -22 c31 -11 63 -25 71
-30 25 -16 4 -39 -44 -47 -25 -3 -44 -9 -42 -13 33 -60 39 -90 35 -171 -5 -87
-27 -150 -64 -180 -15 -14 -15 -15 7 -20 42 -10 36 -45 -13 -71 -54 -31 -68
-58 -68 -140 l0 -66 43 -13 c61 -18 97 -38 97 -55 0 -8 -2 -15 -4 -15 -2 0
-245 -58 -539 -130 -295 -71 -550 -130 -567 -130 -18 0 -197 54 -399 120 -385
126 -389 127 -427 200 -15 28 -19 57 -19 142 0 94 3 110 22 136 l22 30 -24 6
c-14 4 -25 13 -25 20 0 14 64 48 113 60 26 6 27 9 27 67 0 82 -19 123 -69 149
-56 28 -55 55 2 71 54 16 52 13 29 46 -45 64 -57 214 -23 289 35 77 44 80 403
130 178 25 413 58 523 73 297 43 268 46 633 -65z"/>
<path d="M1695 3750 c-26 -49 -16 -167 18 -213 13 -19 724 -224 735 -212 4 4
9 55 10 115 l4 108 -355 116 c-195 64 -364 116 -376 116 -13 0 -26 -11 -36
-30z"/>
<path d="M2950 3637 c-239 -49 -436 -90 -436 -91 -1 0 -4 -53 -7 -117 l-5
-115 438 109 438 109 4 81 c3 45 8 90 12 100 5 9 4 16 0 16 -5 -1 -205 -42
-444 -92z"/>
<path d="M3010 3285 l-345 -113 -1 -116 c-1 -64 3 -116 8 -116 5 0 151 40 326
89 174 49 336 94 359 101 55 14 75 50 80 145 5 86 -9 119 -52 122 -17 1 -185
-49 -375 -112z"/>
<path d="M1731 3318 c5 -18 9 -62 9 -98 l0 -65 433 -108 c237 -59 435 -107
438 -107 5 0 0 220 -5 227 0 0 -190 40 -421 87 -231 47 -430 88 -442 91 -20 5
-21 3 -12 -27z"/>
<path d="M1648 3010 c-32 -26 -38 -139 -11 -202 l20 -44 363 -102 c200 -56
366 -99 368 -97 2 2 5 54 6 116 l1 112 -285 94 c-468 153 -436 144 -462 123z"/>
<path d="M3040 2911 c-151 -32 -297 -65 -325 -73 -27 -9 -63 -16 -80 -17 -27
0 -176 -28 -181 -34 -1 -1 -5 -53 -9 -116 -6 -108 -6 -114 12 -109 10 3 208
52 440 109 l423 104 0 72 c0 39 4 83 10 97 7 19 6 26 -3 25 -6 0 -136 -27
-287 -58z"/>
</g>
</svg>
