<?xml version="1.0" encoding="UTF-8"?>
<!DOCTYPE svg PUBLIC "-//W3C//DTD SVG 1.1//EN" "http://www.w3.org/Graphics/SVG/1.1/DTD/svg11.dtd">
<svg xmlns="http://www.w3.org/2000/svg" version="1.1" width="512px" height="512px" style="shape-rendering:geometricPrecision; text-rendering:geometricPrecision; image-rendering:optimizeQuality; fill-rule:evenodd; clip-rule:evenodd" xmlns:xlink="http://www.w3.org/1999/xlink">
<g><path style="opacity:0.99" fill="#6ed279" d="M 231.5,4.5 C 297.485,-1.40336 352.319,20.2633 396,69.5C 435.764,120.319 447.097,176.986 430,239.5C 421.013,267.793 409.679,295.126 396,321.5C 359.644,385.89 317.144,445.89 268.5,501.5C 265.157,505.669 260.824,507.336 255.5,506.5C 250.763,507.22 246.763,505.887 243.5,502.5C 194.28,446.736 151.446,386.402 115,321.5C 101.321,295.126 89.9875,267.793 81,239.5C 62.197,167.199 79.0303,104.699 131.5,52C 160.344,26.7452 193.677,10.9119 231.5,4.5 Z"/></g>
<g><path style="opacity:1" fill="#fdfefd" d="M 285.5,87.5 C 322.6,84.4527 346.1,100.786 356,136.5C 358.472,163.388 348.306,183.888 325.5,198C 308.936,208.087 291.103,212.587 272,211.5C 273.075,215.717 273.408,220.051 273,224.5C 269.194,225.343 265.528,225.343 262,224.5C 257,244.5 252,264.5 247,284.5C 245.473,290.123 242.807,290.79 239,286.5C 234.687,270.58 230.687,254.58 227,238.5C 223.513,237.729 220.013,238.063 216.5,239.5C 212.844,239.021 211.344,237.021 212,233.5C 214.029,230.971 215.862,228.304 217.5,225.5C 189.009,216.843 168.842,198.843 157,171.5C 149.991,138.019 161.824,113.852 192.5,99C 209.734,93.1679 226.234,94.6679 242,103.5C 242.667,104.833 242.667,106.167 242,107.5C 231.166,125.009 227.499,144.009 231,164.5C 233.353,175.56 236.52,186.393 240.5,197C 239.459,199.723 237.959,202.223 236,204.5C 235.084,209.179 235.584,213.679 237.5,218C 237.05,219.285 236.383,220.452 235.5,221.5C 237.993,223.58 240.659,225.414 243.5,227C 244.833,229.333 244.833,231.667 243.5,234C 240.883,234.822 238.216,235.322 235.5,235.5C 237.525,245.933 240.025,256.266 243,266.5C 247.631,250.649 251.298,234.649 254,218.5C 239.563,211.6 240.063,206.266 255.5,202.5C 245.985,189.799 240.485,175.465 239,159.5C 235.698,123.057 251.198,99.0567 285.5,87.5 Z"/></g>
<g><path style="opacity:1" fill="#73d37d" d="M 292.5,103.5 C 302.749,102.71 311.916,105.377 320,111.5C 320.711,113.367 320.211,114.867 318.5,116C 316.5,116.667 314.5,116.667 312.5,116C 293.001,108.424 277.668,113.424 266.5,131C 264.299,131.825 262.466,131.325 261,129.5C 260.448,126.581 261.115,123.914 263,121.5C 270.616,111.779 280.45,105.779 292.5,103.5 Z"/></g>
<g><path style="opacity:1" fill="#73d37d" d="M 200.5,113.5 C 203.572,113.183 206.572,113.516 209.5,114.5C 210.485,116.098 210.651,117.765 210,119.5C 188.057,126.059 178.057,140.726 180,163.5C 177.034,166.265 174.367,165.932 172,162.5C 169.657,139.176 179.157,122.843 200.5,113.5 Z"/></g>
</svg>
