<?xml version="1.0" standalone="no"?>
<!DOCTYPE svg PUBLIC "-//W3C//DTD SVG 20010904//EN"
 "http://www.w3.org/TR/2001/REC-SVG-20010904/DTD/svg10.dtd">
<svg version="1.0" xmlns="http://www.w3.org/2000/svg"
 width="512.000000pt" height="512.000000pt" viewBox="0 0 512.000000 512.000000"
 preserveAspectRatio="xMidYMid meet">

<g transform="translate(0.000000,512.000000) scale(0.100000,-0.100000)"
fill="#e3431e" stroke="none">
<path d="M2425 5060 c-429 -32 -829 -216 -1141 -525 -290 -288 -454 -616 -520
-1040 -24 -158 -16 -414 20 -586 134 -657 608 -1510 1361 -2449 293 -366 333
-405 415 -405 82 0 122 39 415 405 445 555 777 1056 1025 1545 174 343 279
626 336 904 36 172 44 428 20 586 -66 424 -230 752 -520 1040 -177 176 -372
305 -595 395 -258 105 -542 150 -816 130z m-367 -851 c135 -67 219 -228 192
-367 l-9 -47 435 -435 435 -436 97 1 c84 0 104 -3 153 -26 123 -58 199 -167
207 -296 4 -61 2 -77 -13 -93 -34 -37 -63 -26 -151 60 -45 44 -89 80 -99 80
-9 0 -48 -30 -86 -67 -49 -47 -69 -73 -69 -91 0 -18 23 -49 80 -108 44 -45 80
-88 80 -96 0 -9 -10 -28 -22 -43 -20 -26 -24 -27 -90 -23 -204 15 -365 213
-329 403 l10 50 -435 435 -435 436 -97 -1 c-84 0 -104 3 -153 26 -123 58 -199
167 -207 296 -4 61 -2 77 13 93 34 37 63 26 151 -60 45 -44 89 -80 99 -80 9 0
48 30 86 67 49 47 69 73 69 91 0 18 -23 49 -80 108 -44 45 -80 88 -80 96 0 7
7 24 16 36 13 20 24 22 93 22 67 0 86 -4 139 -31z m1434 -46 c57 -57 78 -84
78 -103 0 -33 -203 -309 -228 -311 -34 -3 -48 3 -80 34 l-32 31 -213 -212
-213 -212 -44 45 -44 45 211 213 212 212 -34 37 c-37 40 -43 64 -22 91 6 9 68
59 137 111 163 124 166 124 272 19z m-1247 -1633 l-310 -310 -85 0 -85 0 -107
107 -108 108 0 90 0 90 307 307 308 308 195 -195 195 -195 -310 -310z"/>
</g>
</svg>
