<?xml version="1.0" encoding="UTF-8"?>
<!DOCTYPE svg PUBLIC "-//W3C//DTD SVG 1.1//EN" "http://www.w3.org/Graphics/SVG/1.1/DTD/svg11.dtd">
<svg xmlns="http://www.w3.org/2000/svg" version="1.1" width="512px" height="512px" style="shape-rendering:geometricPrecision; text-rendering:geometricPrecision; image-rendering:optimizeQuality; fill-rule:evenodd; clip-rule:evenodd" xmlns:xlink="http://www.w3.org/1999/xlink">
<g><path style="opacity:0.99" fill="#ff7a48" d="M 231.5,4.5 C 297.485,-1.40336 352.319,20.2633 396,69.5C 435.764,120.319 447.097,176.986 430,239.5C 421.013,267.793 409.679,295.126 396,321.5C 359.644,385.89 317.144,445.89 268.5,501.5C 265.157,505.669 260.824,507.336 255.5,506.5C 250.763,507.22 246.763,505.887 243.5,502.5C 194.28,446.736 151.446,386.402 115,321.5C 101.321,295.126 89.9875,267.793 81,239.5C 62.197,167.199 79.0303,104.699 131.5,52C 160.344,26.7452 193.677,10.9119 231.5,4.5 Z"/></g>
<g><path style="opacity:1" fill="#fffefe" d="M 201.5,97.5 C 223.948,95.7284 241.948,103.728 255.5,121.5C 278.683,93.8733 305.35,90.0399 335.5,110C 356.83,130.828 362.33,155.328 352,183.5C 349.174,189.822 345.841,195.822 342,201.5C 333.234,212.269 323.734,222.436 313.5,232C 295.833,247 278.167,262 260.5,277C 256.375,277.854 252.375,277.52 248.5,276C 223.437,255.276 199.271,233.443 176,210.5C 166.755,200.017 160.088,188.017 156,174.5C 150.139,147.077 157.973,124.577 179.5,107C 186.47,102.741 193.804,99.5743 201.5,97.5 Z"/></g>
</svg>
