<?xml version="1.0" encoding="UTF-8"?>
<svg id="Camada_1" data-name="Camada 1" xmlns="http://www.w3.org/2000/svg" viewBox="0 0 550 470">
  <defs>
    <style>
      .cls-1 {
        fill-rule: evenodd;
      }

      .cls-1, .cls-2 {
        fill: #0c1618;
      }
    </style>
  </defs>
  <g>
    <g id="element-id-39537">
      <path id="element-id-34377" class="cls-1" d="m194.77,23.49c-24.66,10.43-46.5,25.15-65.51,44.17-19.02,19.02-33.74,40.85-44.17,65.51-10.8,25.54-16.2,52.28-16.2,80.23s5.4,54.7,16.2,80.23c3.61,8.54,7.74,16.74,12.38,24.61h18.69c-6.39-9.67-11.89-19.93-16.48-30.79-9.97-23.56-14.95-48.24-14.95-74.05s4.98-50.49,14.95-74.05c9.63-22.76,23.22-42.92,40.78-60.48,17.56-17.56,37.72-31.15,60.48-40.78,23.56-9.97,48.25-14.95,74.05-14.95s50.49,4.98,74.05,14.95c22.76,9.63,42.92,23.22,60.48,40.78,17.56,17.56,31.15,37.72,40.78,60.48,9.97,23.56,14.95,48.25,14.95,74.05s-4.98,50.49-14.95,74.05c-4.59,10.85-10.08,21.12-16.48,30.79h18.69c4.64-7.86,8.77-16.07,12.38-24.61,10.8-25.53,16.2-52.28,16.2-80.23s-5.4-54.7-16.2-80.23c-10.43-24.66-25.15-46.5-44.17-65.51-19.02-19.02-40.85-33.74-65.51-44.17-25.53-10.8-52.28-16.2-80.23-16.2s-54.7,5.4-80.23,16.2h0Zm178.21,294.75c46.94-62.83-14.55-144.04-14.55-144.04,8.38,15.57-8.82,80.77-33.95,110.45-10.6,12.55-18.03,23.7-23.14,33.59h71.64Zm-92.31,0c6.04-15.2,15.54-27.48,23.95-38.34,4.28-5.53,8.28-10.7,11.38-15.69C410.58,110.96,249.79,44.89,249.79,44.89c21.27,25.51,12.05,78.14-51.11,140.8-48.85,57.58-44.63,101.12-22.34,132.55h104.33Z"/>
    </g>
    <g>
      <path id="element-id-94078" class="cls-2" d="m23.34,360.87h0v66.23h40.31c2.24,0,4.15-.81,5.72-2.42s2.35-3.56,2.35-5.83v-18.63c0-2.46-.91-4.54-2.72-6.23,1.81-1.66,2.72-3.72,2.72-6.18v-18.63c0-2.28-.78-4.23-2.35-5.86s-3.47-2.44-5.72-2.44H23.34Zm16.14,8.3h0c0-1.14.39-2.11,1.18-2.93s1.73-1.22,2.84-1.22h8.07c1.11,0,2.05.41,2.84,1.22s1.18,1.79,1.18,2.93v18.63c0,1.14-.39,2.11-1.18,2.91s-1.73,1.2-2.84,1.2h-8.07c-1.11,0-2.05-.4-2.84-1.2s-1.18-1.77-1.18-2.91v-18.63Zm0,31.04h0c0-1.14.39-2.11,1.18-2.93s1.73-1.22,2.84-1.22h8.07c1.11,0,2.05.41,2.84,1.22s1.18,1.79,1.18,2.93v18.63c0,1.14-.39,2.11-1.18,2.93s-1.73,1.22-2.84,1.22h-8.07c-1.11,0-2.05-.41-2.84-1.22s-1.18-1.79-1.18-2.93v-18.63Z"/>
      <path id="element-id-46495" class="cls-2" d="m96.4,360.87h0c-2.21,0-4.11.81-5.7,2.44-1.58,1.63-2.38,3.58-2.38,5.86v49.67c0,2.28.79,4.22,2.38,5.83,1.58,1.61,3.48,2.42,5.7,2.42h32.24c2.24,0,4.15-.81,5.72-2.42s2.35-3.56,2.35-5.83v-49.67c0-2.28-.78-4.23-2.35-5.86s-3.47-2.44-5.72-2.44h-32.24Zm24.21,57.97h0c0,1.14-.4,2.11-1.2,2.93-.8.81-1.75,1.22-2.86,1.22h-8.07c-1.11,0-2.05-.41-2.84-1.22s-1.18-1.79-1.18-2.93v-49.67c0-1.14.39-2.11,1.18-2.93s1.73-1.22,2.84-1.22h8.07c1.11,0,2.06.41,2.86,1.22s1.2,1.79,1.2,2.93v49.67Z"/>
      <path id="element-id-328" class="cls-2" d="m161.38,360.87h0c-2.21,0-4.11.81-5.7,2.44-1.58,1.63-2.38,3.58-2.38,5.86v49.67c0,2.28.79,4.22,2.38,5.83,1.58,1.61,3.48,2.42,5.7,2.42h32.24c2.24,0,4.15-.81,5.72-2.42s2.35-3.56,2.35-5.83v-49.67c0-2.28-.78-4.23-2.35-5.86s-3.47-2.44-5.72-2.44h-32.24Zm24.21,57.97h0c0,1.14-.4,2.11-1.2,2.93-.8.81-1.75,1.22-2.86,1.22h-8.07c-1.11,0-2.05-.41-2.84-1.22s-1.18-1.79-1.18-2.93v-49.67c0-1.14.39-2.11,1.18-2.93s1.73-1.22,2.84-1.22h8.07c1.11,0,2.06.41,2.86,1.22s1.2,1.79,1.2,2.93v49.67Z"/>
      <path id="element-id-55413" class="cls-2" d="m218.29,360.87h0v66.23h8.07c2.21,0,4.11-.81,5.7-2.42,1.58-1.61,2.38-3.56,2.38-5.83v-18.63c0-1.14.39-2.11,1.18-2.93s1.73-1.22,2.84-1.22h8.07c1.11,0,2.06.41,2.86,1.22s1.2,1.79,1.2,2.93v18.63c0,2.28.78,4.22,2.35,5.83,1.57,1.61,3.46,2.42,5.67,2.42h8.07v-24.81c0-2.28-.78-4.23-2.35-5.86-1.57-1.63-3.47-2.44-5.72-2.44,2.24,0,4.15-.81,5.72-2.42s2.35-3.56,2.35-5.83v-24.86h-8.07c-2.21,0-4.1.81-5.67,2.44-1.57,1.63-2.35,3.58-2.35,5.86v18.63c0,1.14-.4,2.11-1.2,2.91s-1.75,1.2-2.86,1.2h-8.07c-1.11,0-2.05-.4-2.84-1.2s-1.18-1.77-1.18-2.91v-18.63c0-2.28-.79-4.23-2.38-5.86-1.58-1.63-3.48-2.44-5.7-2.44h-8.07Z"/>
      <path id="element-id-66464" class="cls-2" d="m331.66,377.43h0v-16.56h-48.38v66.23h48.38v-16.56h-8.07c-2.21,0-4.11.81-5.7,2.44-1.58,1.63-2.38,3.58-2.38,5.86,0,1.14-.39,2.11-1.18,2.93s-1.73,1.22-2.84,1.22h-8.07c-1.11,0-2.05-.41-2.84-1.22s-1.18-1.79-1.18-2.93v-17.62c0-1.14.39-2.11,1.18-2.91s1.73-1.2,2.84-1.2h20.15v-6.23h-20.15c-1.11,0-2.05-.41-2.84-1.22s-1.18-1.79-1.18-2.93v-17.57c0-1.14.39-2.11,1.18-2.93s1.73-1.22,2.84-1.22h8.07c1.11,0,2.05.41,2.84,1.22s1.18,1.79,1.18,2.93c0,2.28.79,4.22,2.38,5.83,1.58,1.61,3.48,2.42,5.7,2.42h8.07Z"/>
      <path id="element-id-74967" class="cls-2" d="m356.29,360.87h0c-2.21,0-4.1.81-5.67,2.44-1.57,1.63-2.35,3.58-2.35,5.86v57.93h8.02c2.24,0,4.15-.81,5.72-2.42s2.35-3.56,2.35-5.83v-18.63c0-1.14.4-2.11,1.2-2.93s1.75-1.22,2.86-1.22h8.07c1.11,0,2.05.41,2.84,1.22s1.18,1.79,1.18,2.93v18.63c0,2.28.79,4.22,2.38,5.83,1.58,1.61,3.48,2.42,5.7,2.42h8.07v-57.93c0-2.28-.79-4.23-2.38-5.86-1.58-1.63-3.48-2.44-5.7-2.44h-32.28,0Zm24.21,26.93h0c0,1.14-.39,2.11-1.18,2.91s-1.73,1.2-2.84,1.2h-8.07c-1.11,0-2.06-.4-2.86-1.2s-1.2-1.77-1.2-2.91v-18.63c0-1.14.4-2.11,1.2-2.93s1.75-1.22,2.86-1.22h8.07c1.11,0,2.05.41,2.84,1.22s1.18,1.79,1.18,2.93v18.63Z"/>
      <path id="element-id-9245" class="cls-2" d="m433.45,391.91h0c-1.14,0-2.1-.4-2.88-1.2-.78-.8-1.18-1.77-1.18-2.91v-18.63c0-1.14.39-2.11,1.18-2.93s1.74-1.22,2.88-1.22h8.02c1.14,0,2.1.41,2.88,1.22.78.81,1.18,1.79,1.18,2.93h0c0,2.28.78,4.22,2.35,5.83,1.57,1.61,3.47,2.42,5.72,2.42h8.07v-8.26c0-2.28-.79-4.23-2.38-5.86-1.58-1.63-3.48-2.44-5.7-2.44h-32.28c-2.21,0-4.11.81-5.7,2.44-1.58,1.63-2.38,3.58-2.38,5.86v18.63c0,2.28.79,4.22,2.38,5.83,1.58,1.61,3.48,2.42,5.7,2.42h20.15c1.14,0,2.1.41,2.88,1.22.78.81,1.18,1.79,1.18,2.93v18.63c0,1.14-.39,2.11-1.18,2.93s-1.74,1.22-2.88,1.22h-8.02c-1.14,0-2.1-.41-2.88-1.22-.78-.81-1.18-1.79-1.18-2.93h0c0-2.28-.79-4.23-2.38-5.86-1.58-1.63-3.48-2.44-5.7-2.44h-8.07v8.3c0,2.28.79,4.22,2.38,5.83,1.58,1.61,3.48,2.42,5.7,2.42h32.28c2.21,0,4.11-.81,5.7-2.42s2.38-3.56,2.38-5.83v-18.63c0-2.28-.79-4.23-2.38-5.86-1.58-1.63-3.48-2.44-5.7-2.44h-20.15Z"/>
      <path id="element-id-1763" class="cls-2" d="m526.66,377.43h0v-16.56h-48.38v66.23h48.38v-16.56h-8.07c-2.21,0-4.11.81-5.7,2.44-1.58,1.63-2.38,3.58-2.38,5.86,0,1.14-.39,2.11-1.18,2.93s-1.73,1.22-2.84,1.22h-8.07c-1.11,0-2.05-.41-2.84-1.22s-1.18-1.79-1.18-2.93v-17.62c0-1.14.39-2.11,1.18-2.91s1.73-1.2,2.84-1.2h20.15v-6.23h-20.15c-1.11,0-2.05-.41-2.84-1.22s-1.18-1.79-1.18-2.93v-17.57c0-1.14.39-2.11,1.18-2.93s1.73-1.22,2.84-1.22h8.07c1.11,0,2.05.41,2.84,1.22s1.18,1.79,1.18,2.93c0,2.28.79,4.22,2.38,5.83,1.58,1.61,3.48,2.42,5.7,2.42h8.07Z"/>
    </g>
  </g>
  <rect x="10.22" y="325.03" width="529.57" height="7.06"/>
  <rect x="10.22" y="455.65" width="529.57" height="7.06"/>
</svg>