<?xml version="1.0" encoding="UTF-8"?>
<svg id="Camada_1" data-name="Camada 1" xmlns="http://www.w3.org/2000/svg" viewBox="0 0 550 470">
  <defs>
    <style>
      .cls-1 {
        fill-rule: evenodd;
      }

      .cls-1, .cls-2 {
        fill: #ffb81c;
      }
    </style>
  </defs>
  <g id="element-id-57866">
    <path id="element-id-30351" class="cls-2" d="m70.65,353.04l-6.1-6.1H9.71v60.95h54.84l6.1-6.1v-18.31l-6.1-6.03,6.1-6.1v-18.31Zm-24.41,36.54h-12.13v-6.1h12.13v6.1Zm0-18.23h-12.13v-6.1h12.13v6.1Z"/>
    <path id="element-id-86838" class="cls-2" d="m137.78,353.04l-6.1-6.1h-48.74l-6.1,6.1v48.74l6.1,6.1h48.74l6.1-6.1v-48.74Zm-24.41,36.54h-12.13v-24.33h12.13v24.33Z"/>
    <path id="element-id-65194" class="cls-2" d="m204.9,353.04l-6.1-6.1h-48.74l-6.1,6.1v48.74l6.1,6.1h48.74l6.1-6.1v-48.74Zm-24.41,36.54h-12.13v-24.33h12.13v24.33Z"/>
    <path id="element-id-55118" class="cls-2" d="m265.92,380.46l6.1-6.1v-27.42h-24.41v15.22l-6.02,6.1h-6.1v-21.32h-24.41v60.95h24.41v-21.32h3.01l21.32,21.32h79.25v-18.31h-63.96l-9.19-9.11Zm18.31-33.52l-6.1,6.1v24.33l6.1,6.1h48.74l6.1-6.1v-6.03h-24.41v3.01h-12.13v-6.41h36.54v-14.91l-6.1-6.1h-48.74Zm30.43,14.91h-12.13v-5.79h12.13v5.79Z"/>
    <path id="element-id-96621" class="cls-2" d="m412.3,353.04v24.33l6.1,6.1h30.43v6.1h-103.58v18.31h121.89l6.1-6.1v-24.41l-6.1-6.1h-30.43v-6.1h103.58v-18.23h-121.89l-6.1,6.1Zm-42.64,24.33h12.13v6.1h24.41v-30.43l-6.1-6.1h-48.74l-6.03,6.1h-.08v30.43h24.41v-6.1Zm0-18.23h12.13v6.03h-12.13v-6.03Zm115.79,12.2l-6.1,6.03v24.41l6.1,6.1h48.74l6.1-6.1v-6.1h-24.41v3.09h-12.13v-6.41h36.54v-14.91l-6.1-6.1h-48.74Zm30.43,14.91h-12.13v-5.79h12.13v5.79Z"/>
  </g>
  <g id="element-id-32066">
    <path id="element-id-34098" class="cls-1" d="m220.74,161.56c44.61-44.26,51.12-81.42,36.1-99.44,0,0,113.55,46.66,46.76,154.89-2.19,3.52-5.01,7.17-8.04,11.08-12.75,16.47-29.09,37.59-17.02,73.75,0,0-142.88-40-57.8-140.28Zm103.91,111.59c-30.29,20.75-34.59,25.24-35.02,26.21-.21-.75-.47-1.58-.76-2.48-3.22-10.09-9.48-29.68,20.72-65.43,17.75-20.96,29.89-67.01,23.98-78.01,0,0,56.68,74.87-8.92,119.71h0Zm-34.94,26.48c-.02-.09-.05-.18-.07-.27-.12.28.07.27.07.27Z"/>
  </g>
</svg>