<?xml version="1.0" encoding="UTF-8"?>
<svg id="Camada_1" data-name="Camada 1" xmlns="http://www.w3.org/2000/svg" viewBox="0 0 550 470">
  <defs>
    <style>
      .cls-1, .cls-2 {
        fill: #f2cd00;
      }

      .cls-2, .cls-3 {
        fill-rule: evenodd;
      }

      .cls-3, .cls-4 {
        fill: #ffb500;
      }
    </style>
  </defs>
  <g id="element-id-92167">
    <path id="element-id-620" class="cls-4" d="m70.9,352.89l-6.09-6.09H10.03v60.87h54.78l6.09-6.09v-18.28l-6.09-6.02,6.09-6.09v-18.28Zm-24.38,36.49h-12.11v-6.09h12.11v6.09Zm0-18.21h-12.11v-6.09h12.11v6.09Z"/>
    <path id="element-id-67529" class="cls-1" d="m137.95,352.89l-6.09-6.09h-48.68l-6.09,6.09v48.68l6.09,6.09h48.68l6.09-6.09v-48.68Zm-24.38,36.49h-12.11v-24.3h12.11v24.3Z"/>
    <path id="element-id-58014" class="cls-4" d="m204.99,352.89l-6.09-6.09h-48.68l-6.09,6.09v48.68l6.09,6.09h48.68l6.09-6.09v-48.68Zm-24.38,36.49h-12.11v-24.3h12.11v24.3Z"/>
    <g id="element-id-21553">
      <path id="element-id-20832" class="cls-2" d="m272.03,374.19l-6.09,6.09,9.18,9.1h63.88v18.28h-79.15l-21.29-21.29h-3.01v21.29h-24.38v-60.87h24.38v21.29h6.09l6.02-6.09v-15.2h24.38v27.39Z"/>
      <path id="element-id-31089" class="cls-3" d="m278.12,352.89l6.09-6.09h48.68l6.09,6.09v14.89h-36.49v6.4h12.11v-3.01h24.38v6.02l-6.09,6.09h-48.68l-6.09-6.09v-24.3Zm36.49,3.01h-12.11v5.79h12.11v-5.79Z"/>
    </g>
    <g id="element-id-65437">
      <path id="element-id-83058" class="cls-2" d="m412.13,352.89l6.09-6.09h121.74v18.21h-103.46v6.09h30.4l6.09,6.09v24.38l-6.09,6.09h-121.74v-18.28h103.46v-6.09h-30.4l-6.09-6.09v-24.3Z"/>
      <path id="element-id-34747" class="cls-3" d="m345.24,352.89l6.02-6.09h48.68l6.09,6.09v30.4h-24.38v-6.09h-12.11v6.09h-24.38v-30.4h.08Zm36.41,6.09h-12.11v6.02h12.11v-6.02Z"/>
      <path id="element-id-56205" class="cls-2" d="m479.1,377.19l6.09-6.02h48.68l6.09,6.09v14.89h-36.49v6.4h12.11v-3.09h24.38v6.09l-6.09,6.09h-48.68l-6.09-6.09v-24.38Zm36.49,3.09h-12.11v5.79h12.11v-5.79Z"/>
    </g>
  </g>
  <g id="element-id-43585">
    <g id="element-id-43761">
      <path id="element-id-39799" class="cls-3" d="m256.86,62.33c15,18,8.5,55.12-36.05,99.32-84.98,100.15,57.72,140.11,57.72,140.11-12.05-36.11,4.27-57.2,17-73.65,3.02-3.9,5.84-7.54,8.03-11.06,66.71-108.1-46.7-154.7-46.7-154.7Z"/>
      <path id="element-id-83795" class="cls-2" d="m289.61,299.28c.42-.97,4.72-5.45,34.97-26.18,65.52-44.78,8.91-119.56,8.91-119.56,5.91,10.98-6.22,56.97-23.95,77.91-30.16,35.71-23.91,55.28-20.69,65.35.29.9.55,1.72.76,2.48h0Z"/>
      <path id="element-id-80241" class="cls-2" d="m289.68,299.55c-.02-.09-.05-.18-.07-.27-.12.28.07.27.07.27Z"/>
    </g>
  </g>
</svg>