<?xml version="1.0" encoding="UTF-8"?>
<svg id="Camada_1" data-name="Camada 1" xmlns="http://www.w3.org/2000/svg" viewBox="0 0 550 470">
  <defs>
    <style>
      .cls-1 {
        fill-rule: evenodd;
      }

      .cls-1, .cls-2 {
        fill: #ffb81c;
      }
    </style>
  </defs>
  <g id="element-id-67543">
    <path id="element-id-58470" class="cls-1" d="m193.46,20.03c-25.06,10.6-47.26,25.56-66.58,44.89-19.33,19.33-34.29,41.52-44.89,66.58-10.98,25.95-16.47,53.13-16.47,81.54s5.49,55.59,16.47,81.54c3.67,8.68,7.87,17.02,12.59,25.01h19c-6.5-9.83-12.08-20.26-16.75-31.29-10.13-23.94-15.19-49.03-15.19-75.26s5.06-51.32,15.19-75.26c9.78-23.13,23.6-43.62,41.44-61.47,17.84-17.84,38.33-31.66,61.47-41.44,23.95-10.13,49.03-15.19,75.26-15.19s51.32,5.06,75.26,15.19c23.13,9.78,43.62,23.6,61.47,41.44,17.84,17.84,31.66,38.33,41.44,61.47,10.13,23.95,15.19,49.03,15.19,75.26s-5.06,51.32-15.19,75.26c-4.67,11.03-10.25,21.46-16.75,31.29h19c4.72-7.99,8.91-16.33,12.59-25.01,10.98-25.95,16.47-53.13,16.47-81.54s-5.49-55.59-16.47-81.54c-10.6-25.06-25.56-47.26-44.89-66.58-19.33-19.33-41.52-34.29-66.58-44.89-25.95-10.98-53.13-16.47-81.54-16.47s-55.59,5.49-81.54,16.47h0Zm181.12,299.57c47.7-63.86-14.78-146.39-14.78-146.39,8.51,15.82-8.97,82.09-34.51,112.26-10.78,12.76-18.32,24.09-23.52,34.13h72.81Zm-93.81,0c6.13-15.44,15.8-27.93,24.34-38.97,4.35-5.62,8.41-10.87,11.57-15.94C412.79,108.94,249.38,41.78,249.38,41.78c21.62,25.93,12.25,79.41-51.95,143.1-49.65,58.52-45.36,102.78-22.7,134.71h106.03Z"/>
  </g>
  <g>
    <path id="element-id-90384" class="cls-2" d="m19.23,362.93h0v67.31h40.97c2.28,0,4.22-.82,5.81-2.46s2.39-3.62,2.39-5.93v-18.94c0-2.5-.92-4.61-2.77-6.33,1.84-1.69,2.77-3.78,2.77-6.28v-18.94c0-2.31-.8-4.3-2.39-5.95s-3.53-2.48-5.81-2.48H19.23Zm16.41,8.44h0c0-1.16.4-2.15,1.2-2.98s1.76-1.24,2.88-1.24h8.2c1.12,0,2.09.41,2.88,1.24s1.2,1.82,1.2,2.98v18.94c0,1.16-.4,2.14-1.2,2.95s-1.76,1.22-2.88,1.22h-8.2c-1.12,0-2.09-.41-2.88-1.22s-1.2-1.8-1.2-2.95v-18.94Zm0,31.55h0c0-1.16.4-2.15,1.2-2.98s1.76-1.24,2.88-1.24h8.2c1.12,0,2.09.41,2.88,1.24s1.2,1.82,1.2,2.98v18.94c0,1.16-.4,2.15-1.2,2.98s-1.76,1.24-2.88,1.24h-8.2c-1.12,0-2.09-.41-2.88-1.24s-1.2-1.82-1.2-2.98v-18.94Z"/>
    <path id="element-id-45808" class="cls-2" d="m93.48,362.93h0c-2.25,0-4.18.83-5.79,2.48-1.61,1.66-2.41,3.64-2.41,5.95v50.48c0,2.31.8,4.29,2.41,5.93,1.61,1.64,3.54,2.46,5.79,2.46h32.76c2.28,0,4.22-.82,5.81-2.46s2.39-3.62,2.39-5.93v-50.48c0-2.31-.8-4.3-2.39-5.95s-3.53-2.48-5.81-2.48h-32.76Zm24.61,58.92h0c0,1.16-.41,2.15-1.22,2.98-.81.83-1.78,1.24-2.91,1.24h-8.2c-1.12,0-2.09-.41-2.88-1.24s-1.2-1.82-1.2-2.98v-50.48c0-1.16.4-2.15,1.2-2.98s1.76-1.24,2.88-1.24h8.2c1.12,0,2.09.41,2.91,1.24s1.22,1.82,1.22,2.98v50.48Z"/>
    <path id="element-id-32674" class="cls-2" d="m159.53,362.93h0c-2.25,0-4.18.83-5.79,2.48-1.61,1.66-2.41,3.64-2.41,5.95v50.48c0,2.31.8,4.29,2.41,5.93,1.61,1.64,3.54,2.46,5.79,2.46h32.76c2.28,0,4.22-.82,5.81-2.46s2.39-3.62,2.39-5.93v-50.48c0-2.31-.8-4.3-2.39-5.95s-3.53-2.48-5.81-2.48h-32.76Zm24.61,58.92h0c0,1.16-.41,2.15-1.22,2.98-.81.83-1.78,1.24-2.91,1.24h-8.2c-1.12,0-2.09-.41-2.88-1.24s-1.2-1.82-1.2-2.98v-50.48c0-1.16.4-2.15,1.2-2.98s1.76-1.24,2.88-1.24h8.2c1.12,0,2.09.41,2.91,1.24s1.22,1.82,1.22,2.98v50.48Z"/>
    <path id="element-id-41568" class="cls-2" d="m217.37,362.93h0v67.31h8.2c2.25,0,4.18-.82,5.79-2.46,1.61-1.64,2.41-3.62,2.41-5.93v-18.94c0-1.16.4-2.15,1.2-2.98s1.76-1.24,2.88-1.24h8.2c1.13,0,2.09.41,2.91,1.24s1.22,1.82,1.22,2.98v18.94c0,2.31.8,4.29,2.39,5.93,1.59,1.64,3.52,2.46,5.77,2.46h8.2v-25.22c0-2.31-.8-4.3-2.39-5.95-1.59-1.66-3.53-2.48-5.81-2.48,2.28,0,4.22-.82,5.81-2.46s2.39-3.62,2.39-5.93v-25.27h-8.2c-2.25,0-4.17.83-5.77,2.48-1.59,1.66-2.39,3.64-2.39,5.95v18.94c0,1.16-.41,2.14-1.22,2.95s-1.78,1.22-2.91,1.22h-8.2c-1.12,0-2.09-.41-2.88-1.22s-1.2-1.8-1.2-2.95v-18.94c0-2.31-.8-4.3-2.41-5.95-1.61-1.66-3.54-2.48-5.79-2.48h-8.2Z"/>
    <path id="element-id-37397" class="cls-2" d="m332.58,379.76h0v-16.83h-49.17v67.31h49.17v-16.83h-8.2c-2.25,0-4.18.83-5.79,2.48-1.61,1.66-2.41,3.64-2.41,5.95,0,1.16-.4,2.15-1.2,2.98s-1.76,1.24-2.88,1.24h-8.2c-1.13,0-2.09-.41-2.88-1.24s-1.2-1.82-1.2-2.98v-17.91c0-1.16.4-2.14,1.2-2.95s1.76-1.22,2.88-1.22h20.48v-6.33h-20.48c-1.13,0-2.09-.41-2.88-1.24s-1.2-1.82-1.2-2.98v-17.86c0-1.16.4-2.15,1.2-2.98s1.76-1.24,2.88-1.24h8.2c1.13,0,2.09.41,2.88,1.24s1.2,1.82,1.2,2.98c0,2.31.8,4.29,2.41,5.93,1.61,1.64,3.54,2.46,5.79,2.46h8.2Z"/>
    <path id="element-id-23670" class="cls-2" d="m357.62,362.93h0c-2.25,0-4.17.83-5.77,2.48-1.59,1.66-2.39,3.64-2.39,5.95v58.87h8.16c2.28,0,4.22-.82,5.81-2.46s2.39-3.62,2.39-5.93v-18.94c0-1.16.41-2.15,1.22-2.98s1.78-1.24,2.91-1.24h8.2c1.13,0,2.09.41,2.88,1.24s1.2,1.82,1.2,2.98v18.94c0,2.31.8,4.29,2.41,5.93,1.61,1.64,3.54,2.46,5.79,2.46h8.2v-58.87c0-2.31-.8-4.3-2.41-5.95-1.61-1.66-3.54-2.48-5.79-2.48h-32.81,0Zm24.61,27.37h0c0,1.16-.4,2.14-1.2,2.95s-1.76,1.22-2.88,1.22h-8.2c-1.13,0-2.09-.41-2.91-1.22s-1.22-1.8-1.22-2.95v-18.94c0-1.16.41-2.15,1.22-2.98s1.78-1.24,2.91-1.24h8.2c1.13,0,2.09.41,2.88,1.24s1.2,1.82,1.2,2.98v18.94Z"/>
    <path id="element-id-40984" class="cls-2" d="m436.04,394.48h0c-1.16,0-2.13-.41-2.93-1.22-.8-.81-1.2-1.8-1.2-2.95v-18.94c0-1.16.4-2.15,1.2-2.98s1.77-1.24,2.93-1.24h8.16c1.16,0,2.13.41,2.93,1.24.8.83,1.2,1.82,1.2,2.98h0c0,2.31.8,4.29,2.39,5.93,1.59,1.64,3.53,2.46,5.81,2.46h8.2v-8.39c0-2.31-.8-4.3-2.41-5.95-1.61-1.66-3.54-2.48-5.79-2.48h-32.81c-2.25,0-4.18.83-5.79,2.48-1.61,1.66-2.41,3.64-2.41,5.95v18.94c0,2.31.8,4.29,2.41,5.93,1.61,1.64,3.54,2.46,5.79,2.46h20.48c1.16,0,2.13.41,2.93,1.24.8.83,1.2,1.82,1.2,2.98v18.94c0,1.16-.4,2.15-1.2,2.98s-1.77,1.24-2.93,1.24h-8.16c-1.16,0-2.13-.41-2.93-1.24-.8-.83-1.2-1.82-1.2-2.98h0c0-2.31-.8-4.3-2.41-5.95-1.61-1.66-3.54-2.48-5.79-2.48h-8.2v8.44c0,2.31.8,4.29,2.41,5.93,1.61,1.64,3.54,2.46,5.79,2.46h32.81c2.25,0,4.18-.82,5.79-2.46s2.41-3.62,2.41-5.93v-18.94c0-2.31-.8-4.3-2.41-5.95-1.61-1.66-3.54-2.48-5.79-2.48h-20.48Z"/>
    <path id="element-id-41903" class="cls-2" d="m530.77,379.76h0v-16.83h-49.17v67.31h49.17v-16.83h-8.2c-2.25,0-4.18.83-5.79,2.48-1.61,1.66-2.41,3.64-2.41,5.95,0,1.16-.4,2.15-1.2,2.98s-1.76,1.24-2.88,1.24h-8.2c-1.13,0-2.09-.41-2.88-1.24s-1.2-1.82-1.2-2.98v-17.91c0-1.16.4-2.14,1.2-2.95s1.76-1.22,2.88-1.22h20.48v-6.33h-20.48c-1.13,0-2.09-.41-2.88-1.24s-1.2-1.82-1.2-2.98v-17.86c0-1.16.4-2.15,1.2-2.98s1.76-1.24,2.88-1.24h8.2c1.13,0,2.09.41,2.88,1.24s1.2,1.82,1.2,2.98c0,2.31.8,4.29,2.41,5.93,1.61,1.64,3.54,2.46,5.79,2.46h8.2Z"/>
    <path id="element-id-44340" class="cls-1" d="m6,326.74h538v7.14H6v-7.14Z"/>
    <path id="element-id-49401" class="cls-1" d="m544,466.43H6v-7.14h538v7.14Z"/>
  </g>
</svg>