<?xml version="1.0" encoding="UTF-8"?>
<svg id="Camada_1" data-name="Camada 1" xmlns="http://www.w3.org/2000/svg" xmlns:xlink="http://www.w3.org/1999/xlink" viewBox="0 0 550 470">
  <defs>
    <style>
      .cls-1 {
        fill: url(#Gradiente_sem_nome_9);
      }

      .cls-2 {
        fill: url(#Gradiente_sem_nome_6);
      }

      .cls-3 {
        fill: url(#Gradiente_sem_nome_3);
      }

      .cls-4 {
        fill: url(#Gradiente_sem_nome);
      }

      .cls-4, .cls-5, .cls-6 {
        fill-rule: evenodd;
      }

      .cls-7 {
        fill: url(#Gradiente_sem_nome_4);
      }

      .cls-5 {
        fill: url(#Gradiente_sem_nome_11);
      }

      .cls-8 {
        fill: url(#Gradiente_sem_nome_2);
      }

      .cls-9 {
        fill: url(#Gradiente_sem_nome_8);
      }

      .cls-10 {
        fill: url(#Gradiente_sem_nome_7);
      }

      .cls-6 {
        fill: url(#Gradiente_sem_nome_10);
      }

      .cls-11 {
        fill: url(#Gradiente_sem_nome_5);
      }
    </style>
    <linearGradient id="Gradiente_sem_nome" data-name="Gradiente sem nome" x1="10.28" y1="309.25" x2="539.72" y2="309.25" gradientTransform="translate(0 472) scale(1 -1)" gradientUnits="userSpaceOnUse">
      <stop offset="0" stop-color="#00968f"/>
      <stop offset="1" stop-color="#00fff4"/>
    </linearGradient>
    <linearGradient id="Gradiente_sem_nome_2" data-name="Gradiente sem nome 2" x1="10.28" y1="77.98" x2="539.72" y2="77.98" gradientTransform="translate(0 472) scale(1 -1)" gradientUnits="userSpaceOnUse">
      <stop offset="0" stop-color="#00968f"/>
      <stop offset="1" stop-color="#00fff4"/>
    </linearGradient>
    <linearGradient id="Gradiente_sem_nome_3" data-name="Gradiente sem nome 3" x1="10.28" y1="77.98" x2="539.72" y2="77.98" gradientTransform="translate(0 472) scale(1 -1)" gradientUnits="userSpaceOnUse">
      <stop offset="0" stop-color="#00968f"/>
      <stop offset="1" stop-color="#00fff4"/>
    </linearGradient>
    <linearGradient id="Gradiente_sem_nome_4" data-name="Gradiente sem nome 4" x1="10.28" y1="77.98" x2="539.72" y2="77.98" gradientTransform="translate(0 472) scale(1 -1)" gradientUnits="userSpaceOnUse">
      <stop offset="0" stop-color="#00968f"/>
      <stop offset="1" stop-color="#00fff4"/>
    </linearGradient>
    <linearGradient id="Gradiente_sem_nome_5" data-name="Gradiente sem nome 5" x1="10.28" y1="77.98" x2="539.72" y2="77.98" gradientTransform="translate(0 472) scale(1 -1)" gradientUnits="userSpaceOnUse">
      <stop offset="0" stop-color="#00968f"/>
      <stop offset="1" stop-color="#00fff4"/>
    </linearGradient>
    <linearGradient id="Gradiente_sem_nome_6" data-name="Gradiente sem nome 6" x1="10.28" y1="77.98" x2="539.72" y2="77.98" gradientTransform="translate(0 472) scale(1 -1)" gradientUnits="userSpaceOnUse">
      <stop offset="0" stop-color="#00968f"/>
      <stop offset="1" stop-color="#00fff4"/>
    </linearGradient>
    <linearGradient id="Gradiente_sem_nome_7" data-name="Gradiente sem nome 7" x1="10.28" y1="77.98" x2="539.72" y2="77.98" gradientTransform="translate(0 472) scale(1 -1)" gradientUnits="userSpaceOnUse">
      <stop offset="0" stop-color="#00968f"/>
      <stop offset="1" stop-color="#00fff4"/>
    </linearGradient>
    <linearGradient id="Gradiente_sem_nome_8" data-name="Gradiente sem nome 8" x1="10.28" y1="77.98" x2="539.72" y2="77.98" gradientTransform="translate(0 472) scale(1 -1)" gradientUnits="userSpaceOnUse">
      <stop offset="0" stop-color="#00968f"/>
      <stop offset="1" stop-color="#00fff4"/>
    </linearGradient>
    <linearGradient id="Gradiente_sem_nome_9" data-name="Gradiente sem nome 9" x1="10.28" y1="77.98" x2="539.72" y2="77.98" gradientTransform="translate(0 472) scale(1 -1)" gradientUnits="userSpaceOnUse">
      <stop offset="0" stop-color="#00968f"/>
      <stop offset="1" stop-color="#00fff4"/>
    </linearGradient>
    <linearGradient id="Gradiente_sem_nome_10" data-name="Gradiente sem nome 10" x1="10.28" y1="143.21" x2="539.72" y2="143.21" gradientTransform="translate(0 472) scale(1 -1)" gradientUnits="userSpaceOnUse">
      <stop offset="0" stop-color="#00968f"/>
      <stop offset="1" stop-color="#00fff4"/>
    </linearGradient>
    <linearGradient id="Gradiente_sem_nome_11" data-name="Gradiente sem nome 11" x1="10.28" y1="12.76" x2="539.72" y2="12.76" gradientTransform="translate(0 472) scale(1 -1)" gradientUnits="userSpaceOnUse">
      <stop offset="0" stop-color="#00968f"/>
      <stop offset="1" stop-color="#00fff4"/>
    </linearGradient>
  </defs>
  <g id="element-id-54704">
    <path id="element-id-52378" class="cls-4" d="m194.76,23.45c-24.66,10.43-46.51,25.16-65.52,44.18-19.02,19.02-33.74,40.86-44.18,65.52-10.8,25.54-16.2,52.29-16.2,80.24s5.4,54.7,16.2,80.24c3.61,8.54,7.74,16.75,12.39,24.61h18.7c-6.39-9.67-11.89-19.94-16.48-30.79-9.97-23.56-14.95-48.25-14.95-74.07s4.98-50.5,14.95-74.07c9.63-22.77,23.22-42.93,40.78-60.49,17.56-17.56,37.72-31.16,60.49-40.78,23.56-9.97,48.25-14.95,74.07-14.95s50.5,4.98,74.07,14.95c22.77,9.63,42.93,23.22,60.49,40.78,17.56,17.56,31.15,37.72,40.78,60.49,9.97,23.57,14.95,48.25,14.95,74.07s-4.98,50.5-14.95,74.07c-4.59,10.86-10.08,21.12-16.48,30.79h18.7c4.64-7.86,8.77-16.07,12.39-24.61,10.8-25.54,16.2-52.29,16.2-80.24s-5.4-54.7-16.2-80.24c-10.43-24.66-25.16-46.51-44.18-65.52-19.02-19.02-40.86-33.74-65.52-44.18-25.54-10.8-52.29-16.2-80.24-16.2s-54.71,5.4-80.24,16.2h0Zm178.24,294.8c46.94-62.84-14.55-144.06-14.55-144.06,8.38,15.57-8.83,80.78-33.96,110.47-10.6,12.56-18.03,23.71-23.14,33.59h71.65Zm-92.32,0c6.04-15.2,15.55-27.48,23.95-38.35,4.28-5.54,8.28-10.7,11.38-15.69C410.6,110.94,249.79,44.86,249.79,44.86c21.27,25.52,12.06,78.15-51.12,140.82-48.86,57.59-44.63,101.14-22.34,132.57h104.35Z"/>
  </g>
  <g>
    <path id="element-id-38833" class="cls-8" d="m23.3,360.9h0v66.24h40.32c2.24,0,4.15-.81,5.72-2.42s2.35-3.56,2.35-5.84v-18.64c0-2.46-.91-4.54-2.72-6.23,1.81-1.66,2.72-3.72,2.72-6.18v-18.64c0-2.28-.78-4.23-2.35-5.86s-3.48-2.44-5.72-2.44H23.3Zm16.15,8.3h0c0-1.14.39-2.11,1.18-2.93s1.73-1.22,2.84-1.22h8.07c1.11,0,2.05.41,2.84,1.22s1.18,1.79,1.18,2.93v18.64c0,1.14-.39,2.11-1.18,2.91s-1.73,1.2-2.84,1.2h-8.07c-1.11,0-2.05-.4-2.84-1.2s-1.18-1.77-1.18-2.91v-18.64Zm0,31.04h0c0-1.14.39-2.11,1.18-2.93s1.73-1.22,2.84-1.22h8.07c1.11,0,2.05.41,2.84,1.22s1.18,1.79,1.18,2.93v18.64c0,1.14-.39,2.11-1.18,2.93s-1.73,1.22-2.84,1.22h-8.07c-1.11,0-2.05-.41-2.84-1.22s-1.18-1.79-1.18-2.93v-18.64Z"/>
    <path id="element-id-60769" class="cls-3" d="m96.37,360.9h0c-2.21,0-4.11.81-5.7,2.44-1.58,1.63-2.38,3.58-2.38,5.86v49.68c0,2.28.79,4.22,2.38,5.84,1.58,1.61,3.48,2.42,5.7,2.42h32.24c2.24,0,4.15-.81,5.72-2.42s2.35-3.56,2.35-5.84v-49.68c0-2.28-.78-4.23-2.35-5.86s-3.48-2.44-5.72-2.44h-32.24Zm24.22,57.98h0c0,1.14-.4,2.11-1.2,2.93-.8.81-1.75,1.22-2.86,1.22h-8.07c-1.11,0-2.05-.41-2.84-1.22s-1.18-1.79-1.18-2.93v-49.68c0-1.14.39-2.11,1.18-2.93s1.73-1.22,2.84-1.22h8.07c1.11,0,2.06.41,2.86,1.22s1.2,1.79,1.2,2.93v49.68Z"/>
    <path id="element-id-74334" class="cls-7" d="m161.36,360.9h0c-2.21,0-4.11.81-5.7,2.44-1.58,1.63-2.38,3.58-2.38,5.86v49.68c0,2.28.79,4.22,2.38,5.84,1.58,1.61,3.48,2.42,5.7,2.42h32.24c2.24,0,4.15-.81,5.72-2.42s2.35-3.56,2.35-5.84v-49.68c0-2.28-.78-4.23-2.35-5.86s-3.48-2.44-5.72-2.44h-32.24Zm24.22,57.98h0c0,1.14-.4,2.11-1.2,2.93-.8.81-1.75,1.22-2.86,1.22h-8.07c-1.11,0-2.05-.41-2.84-1.22s-1.18-1.79-1.18-2.93v-49.68c0-1.14.39-2.11,1.18-2.93s1.73-1.22,2.84-1.22h8.07c1.11,0,2.06.41,2.86,1.22s1.2,1.79,1.2,2.93v49.68Z"/>
    <path id="element-id-66180" class="cls-11" d="m218.28,360.9h0v66.24h8.07c2.21,0,4.11-.81,5.7-2.42,1.58-1.61,2.38-3.56,2.38-5.84v-18.64c0-1.14.39-2.11,1.18-2.93s1.73-1.22,2.84-1.22h8.07c1.11,0,2.06.41,2.86,1.22s1.2,1.79,1.2,2.93v18.64c0,2.28.78,4.22,2.35,5.84,1.57,1.61,3.46,2.42,5.67,2.42h8.07v-24.82c0-2.28-.78-4.23-2.35-5.86-1.57-1.63-3.48-2.44-5.72-2.44,2.24,0,4.15-.81,5.72-2.42s2.35-3.56,2.35-5.84v-24.86h-8.07c-2.21,0-4.11.81-5.67,2.44-1.57,1.63-2.35,3.58-2.35,5.86v18.64c0,1.14-.4,2.11-1.2,2.91s-1.75,1.2-2.86,1.2h-8.07c-1.11,0-2.05-.4-2.84-1.2s-1.18-1.77-1.18-2.91v-18.64c0-2.28-.79-4.23-2.38-5.86-1.58-1.63-3.48-2.44-5.7-2.44h-8.07Z"/>
    <path id="element-id-70740" class="cls-2" d="m331.67,377.46h0v-16.56h-48.39v66.24h48.39v-16.56h-8.07c-2.21,0-4.11.81-5.7,2.44-1.58,1.63-2.38,3.58-2.38,5.86,0,1.14-.39,2.11-1.18,2.93s-1.73,1.22-2.84,1.22h-8.07c-1.11,0-2.05-.41-2.84-1.22s-1.18-1.79-1.18-2.93v-17.62c0-1.14.39-2.11,1.18-2.91s1.73-1.2,2.84-1.2h20.16v-6.23h-20.16c-1.11,0-2.05-.41-2.84-1.22s-1.18-1.79-1.18-2.93v-17.57c0-1.14.39-2.11,1.18-2.93s1.73-1.22,2.84-1.22h8.07c1.11,0,2.05.41,2.84,1.22s1.18,1.79,1.18,2.93c0,2.28.79,4.22,2.38,5.84,1.58,1.61,3.48,2.42,5.7,2.42h8.07Z"/>
    <path id="element-id-72281" class="cls-10" d="m356.3,360.9h0c-2.21,0-4.11.81-5.67,2.44-1.57,1.63-2.35,3.58-2.35,5.86v57.94h8.03c2.24,0,4.15-.81,5.72-2.42s2.35-3.56,2.35-5.84v-18.64c0-1.14.4-2.11,1.2-2.93s1.75-1.22,2.86-1.22h8.07c1.11,0,2.05.41,2.84,1.22s1.18,1.79,1.18,2.93v18.64c0,2.28.79,4.22,2.38,5.84,1.58,1.61,3.48,2.42,5.7,2.42h8.07v-57.94c0-2.28-.79-4.23-2.38-5.86-1.58-1.63-3.48-2.44-5.7-2.44h-32.29,0Zm24.22,26.94h0c0,1.14-.39,2.11-1.18,2.91s-1.73,1.2-2.84,1.2h-8.07c-1.11,0-2.06-.4-2.86-1.2s-1.2-1.77-1.2-2.91v-18.64c0-1.14.4-2.11,1.2-2.93s1.75-1.22,2.86-1.22h8.07c1.11,0,2.05.41,2.84,1.22s1.18,1.79,1.18,2.93v18.64Z"/>
    <path id="element-id-27405" class="cls-9" d="m433.47,391.94h0c-1.14,0-2.1-.4-2.88-1.2-.78-.8-1.18-1.77-1.18-2.91v-18.64c0-1.14.39-2.11,1.18-2.93s1.75-1.22,2.88-1.22h8.03c1.14,0,2.1.41,2.88,1.22.78.81,1.18,1.79,1.18,2.93h0c0,2.28.78,4.22,2.35,5.84,1.57,1.61,3.48,2.42,5.72,2.42h8.07v-8.26c0-2.28-.79-4.23-2.38-5.86-1.58-1.63-3.48-2.44-5.7-2.44h-32.29c-2.21,0-4.11.81-5.7,2.44-1.58,1.63-2.38,3.58-2.38,5.86v18.64c0,2.28.79,4.22,2.38,5.84,1.58,1.61,3.48,2.42,5.7,2.42h20.16c1.14,0,2.1.41,2.88,1.22.78.81,1.18,1.79,1.18,2.93v18.64c0,1.14-.39,2.11-1.18,2.93s-1.75,1.22-2.88,1.22h-8.03c-1.14,0-2.1-.41-2.88-1.22-.78-.81-1.18-1.79-1.18-2.93h0c0-2.28-.79-4.23-2.38-5.86-1.58-1.63-3.48-2.44-5.7-2.44h-8.07v8.3c0,2.28.79,4.22,2.38,5.84,1.58,1.61,3.48,2.42,5.7,2.42h32.29c2.21,0,4.11-.81,5.7-2.42s2.38-3.56,2.38-5.84v-18.64c0-2.28-.79-4.23-2.38-5.86-1.58-1.63-3.48-2.44-5.7-2.44h-20.16Z"/>
    <path id="element-id-89137" class="cls-1" d="m526.7,377.46h0v-16.56h-48.39v66.24h48.39v-16.56h-8.07c-2.21,0-4.11.81-5.7,2.44-1.58,1.63-2.38,3.58-2.38,5.86,0,1.14-.39,2.11-1.18,2.93s-1.73,1.22-2.84,1.22h-8.07c-1.11,0-2.05-.41-2.84-1.22s-1.18-1.79-1.18-2.93v-17.62c0-1.14.39-2.11,1.18-2.91s1.73-1.2,2.84-1.2h20.16v-6.23h-20.16c-1.11,0-2.05-.41-2.84-1.22s-1.18-1.79-1.18-2.93v-17.57c0-1.14.39-2.11,1.18-2.93s1.73-1.22,2.84-1.22h8.07c1.11,0,2.05.41,2.84,1.22s1.18,1.79,1.18,2.93c0,2.28.79,4.22,2.38,5.84,1.58,1.61,3.48,2.42,5.7,2.42h8.07Z"/>
    <path id="element-id-25025" class="cls-6" d="m10.28,325.28h529.44v7.02H10.28v-7.02Z"/>
    <path id="element-id-84186" class="cls-5" d="m539.72,462.75H10.28v-7.02h529.44v7.02Z"/>
  </g>
</svg>