<?xml version="1.0" encoding="UTF-8"?>
<svg id="Camada_1" data-name="Camada 1" xmlns="http://www.w3.org/2000/svg" viewBox="0 0 500 470">
  <defs>
    <style>
      .cls-1, .cls-2 {
        fill: #fff;
      }

      .cls-2 {
        fill-rule: evenodd;
      }
    </style>
  </defs>
  <g id="element-id-65991">
    <path id="element-id-23341" class="cls-2" d="m181.3,53.87c-21.12,8.93-39.82,21.54-56.1,37.82-16.28,16.28-28.89,34.98-37.82,56.1-9.25,21.87-13.87,44.77-13.87,68.7s4.62,46.84,13.87,68.7c3.09,7.31,6.63,14.34,10.6,21.07h16.01c-5.48-8.28-10.18-17.07-14.11-26.36-8.53-20.18-12.8-41.31-12.8-63.42s4.27-43.24,12.8-63.42c8.24-19.49,19.88-36.75,34.92-51.79,15.04-15.04,32.3-26.67,51.79-34.92,20.18-8.53,41.31-12.8,63.42-12.8s43.24,4.27,63.42,12.8c19.49,8.24,36.75,19.88,51.79,34.92,15.04,15.04,26.67,32.3,34.92,51.79,8.53,20.18,12.8,41.31,12.8,63.42s-4.27,43.24-12.8,63.42c-3.93,9.3-8.63,18.08-14.11,26.36h16.01c3.98-6.73,7.51-13.76,10.61-21.07,9.25-21.87,13.87-44.77,13.87-68.7s-4.62-46.84-13.87-68.7c-8.93-21.12-21.54-39.82-37.82-56.1-16.28-16.28-34.98-28.89-56.1-37.82-21.87-9.25-44.77-13.87-68.7-13.87s-46.84,4.62-68.7,13.87h0Zm152.61,252.41c40.19-53.8-12.46-123.35-12.46-123.35,7.17,13.33-7.56,69.17-29.08,94.59-9.08,10.75-15.44,20.3-19.81,28.76h61.34Zm-79.05,0c5.17-13.01,13.31-23.53,20.51-32.83,3.67-4.74,7.09-9.16,9.75-13.43,80.99-131.23-56.7-187.82-56.7-187.82,18.21,21.85,10.32,66.91-43.77,120.57-41.84,49.31-38.22,86.6-19.13,113.51h89.34Z"/>
  </g>
  <g>
    <path id="element-id-98900" class="cls-1" d="m34.5,342.79h0v56.71h34.52c1.92,0,3.55-.69,4.9-2.07s2.01-3.05,2.01-5v-15.96c0-2.11-.78-3.88-2.33-5.33,1.55-1.42,2.33-3.19,2.33-5.29v-15.96c0-1.95-.67-3.62-2.01-5.02s-2.98-2.09-4.9-2.09h-34.52Zm13.82,7.11h0c0-.97.34-1.81,1.01-2.51s1.48-1.05,2.43-1.05h6.91c.95,0,1.76.35,2.43,1.05s1.01,1.53,1.01,2.51v15.96c0,.97-.34,1.8-1.01,2.49s-1.48,1.03-2.43,1.03h-6.91c-.95,0-1.76-.34-2.43-1.03s-1.01-1.51-1.01-2.49v-15.96Zm0,26.58h0c0-.97.34-1.81,1.01-2.51s1.48-1.05,2.43-1.05h6.91c.95,0,1.76.35,2.43,1.05s1.01,1.53,1.01,2.51v15.96c0,.97-.34,1.81-1.01,2.51s-1.48,1.05-2.43,1.05h-6.91c-.95,0-1.76-.35-2.43-1.05s-1.01-1.53-1.01-2.51v-15.96Z"/>
    <path id="element-id-19397" class="cls-1" d="m97.06,342.79h0c-1.9,0-3.52.7-4.88,2.09-1.36,1.4-2.03,3.07-2.03,5.02v42.54c0,1.95.68,3.61,2.03,5,1.36,1.38,2.98,2.07,4.88,2.07h27.61c1.92,0,3.55-.69,4.9-2.07s2.01-3.05,2.01-5v-42.54c0-1.95-.67-3.62-2.01-5.02s-2.98-2.09-4.9-2.09h-27.61Zm20.73,49.65h0c0,.97-.34,1.81-1.03,2.51-.68.7-1.5,1.05-2.45,1.05h-6.91c-.95,0-1.76-.35-2.43-1.05s-1.01-1.53-1.01-2.51v-42.54c0-.97.34-1.81,1.01-2.51s1.48-1.05,2.43-1.05h6.91c.95,0,1.76.35,2.45,1.05s1.03,1.53,1.03,2.51v42.54Z"/>
    <path id="element-id-99525" class="cls-1" d="m152.7,342.79h0c-1.9,0-3.52.7-4.88,2.09-1.36,1.4-2.03,3.07-2.03,5.02v42.54c0,1.95.68,3.61,2.03,5,1.36,1.38,2.98,2.07,4.88,2.07h27.61c1.92,0,3.55-.69,4.9-2.07s2.01-3.05,2.01-5v-42.54c0-1.95-.67-3.62-2.01-5.02s-2.98-2.09-4.9-2.09h-27.61Zm20.73,49.65h0c0,.97-.34,1.81-1.03,2.51-.68.7-1.5,1.05-2.45,1.05h-6.91c-.95,0-1.76-.35-2.43-1.05s-1.01-1.53-1.01-2.51v-42.54c0-.97.34-1.81,1.01-2.51s1.48-1.05,2.43-1.05h6.91c.95,0,1.76.35,2.45,1.05s1.03,1.53,1.03,2.51v42.54Z"/>
    <path id="element-id-57231" class="cls-1" d="m201.44,342.79h0v56.71h6.91c1.9,0,3.52-.69,4.88-2.07,1.36-1.38,2.03-3.05,2.03-5v-15.96c0-.97.34-1.81,1.01-2.51s1.48-1.05,2.43-1.05h6.91c.95,0,1.76.35,2.45,1.05s1.03,1.53,1.03,2.51v15.96c0,1.95.67,3.61,2.01,5,1.34,1.38,2.96,2.07,4.86,2.07h6.91v-21.25c0-1.95-.67-3.62-2.01-5.02-1.34-1.4-2.98-2.09-4.9-2.09,1.92,0,3.55-.69,4.9-2.07s2.01-3.05,2.01-5v-21.29h-6.91c-1.9,0-3.52.7-4.86,2.09-1.34,1.4-2.01,3.07-2.01,5.02v15.96c0,.97-.34,1.8-1.03,2.49s-1.5,1.03-2.45,1.03h-6.91c-.95,0-1.76-.34-2.43-1.03s-1.01-1.51-1.01-2.49v-15.96c0-1.95-.68-3.62-2.03-5.02-1.36-1.4-2.98-2.09-4.88-2.09h-6.91Z"/>
    <path id="element-id-80206" class="cls-1" d="m298.52,356.97h0v-14.18h-41.43v56.71h41.43v-14.18h-6.91c-1.9,0-3.52.7-4.88,2.09-1.36,1.4-2.03,3.07-2.03,5.02,0,.97-.34,1.81-1.01,2.51s-1.48,1.05-2.43,1.05h-6.91c-.95,0-1.76-.35-2.43-1.05s-1.01-1.53-1.01-2.51v-15.09c0-.97.34-1.8,1.01-2.49s1.48-1.03,2.43-1.03h17.26v-5.33h-17.26c-.95,0-1.76-.35-2.43-1.05s-1.01-1.53-1.01-2.51v-15.05c0-.97.34-1.81,1.01-2.51s1.48-1.05,2.43-1.05h6.91c.95,0,1.76.35,2.43,1.05s1.01,1.53,1.01,2.51c0,1.95.68,3.61,2.03,5,1.36,1.38,2.98,2.07,4.88,2.07h6.91Z"/>
    <path id="element-id-28126" class="cls-1" d="m319.61,342.79h0c-1.9,0-3.52.7-4.86,2.09-1.34,1.4-2.01,3.07-2.01,5.02v49.61h6.87c1.92,0,3.55-.69,4.9-2.07s2.01-3.05,2.01-5v-15.96c0-.97.34-1.81,1.03-2.51s1.5-1.05,2.45-1.05h6.91c.95,0,1.76.35,2.43,1.05s1.01,1.53,1.01,2.51v15.96c0,1.95.68,3.61,2.03,5,1.36,1.38,2.98,2.07,4.88,2.07h6.91v-49.61c0-1.95-.68-3.62-2.03-5.02-1.36-1.4-2.98-2.09-4.88-2.09h-27.65,0Zm20.73,23.07h0c0,.97-.34,1.8-1.01,2.49s-1.48,1.03-2.43,1.03h-6.91c-.95,0-1.76-.34-2.45-1.03s-1.03-1.51-1.03-2.49v-15.96c0-.97.34-1.81,1.03-2.51s1.5-1.05,2.45-1.05h6.91c.95,0,1.76.35,2.43,1.05s1.01,1.53,1.01,2.51v15.96Z"/>
    <path id="element-id-82853" class="cls-1" d="m385.69,369.37h0c-.97,0-1.8-.34-2.47-1.03-.67-.68-1.01-1.51-1.01-2.49v-15.96c0-.97.34-1.81,1.01-2.51s1.49-1.05,2.47-1.05h6.87c.97,0,1.8.35,2.47,1.05.67.7,1.01,1.53,1.01,2.51h0c0,1.95.67,3.61,2.01,5,1.34,1.38,2.98,2.07,4.9,2.07h6.91v-7.07c0-1.95-.68-3.62-2.03-5.02-1.36-1.4-2.98-2.09-4.88-2.09h-27.65c-1.9,0-3.52.7-4.88,2.09-1.36,1.4-2.03,3.07-2.03,5.02v15.96c0,1.95.68,3.61,2.03,5,1.36,1.38,2.98,2.07,4.88,2.07h17.26c.97,0,1.8.35,2.47,1.05.67.7,1.01,1.53,1.01,2.51v15.96c0,.97-.34,1.81-1.01,2.51s-1.49,1.05-2.47,1.05h-6.87c-.97,0-1.8-.35-2.47-1.05-.67-.7-1.01-1.53-1.01-2.51h0c0-1.95-.68-3.62-2.03-5.02-1.36-1.4-2.98-2.09-4.88-2.09h-6.91v7.11c0,1.95.68,3.61,2.03,5,1.36,1.38,2.98,2.07,4.88,2.07h27.65c1.9,0,3.52-.69,4.88-2.07s2.03-3.05,2.03-5v-15.96c0-1.95-.68-3.62-2.03-5.02-1.36-1.4-2.98-2.09-4.88-2.09h-17.26Z"/>
    <path id="element-id-76397" class="cls-1" d="m465.5,356.97h0v-14.18h-41.43v56.71h41.43v-14.18h-6.91c-1.9,0-3.52.7-4.88,2.09-1.36,1.4-2.03,3.07-2.03,5.02,0,.97-.34,1.81-1.01,2.51s-1.48,1.05-2.43,1.05h-6.91c-.95,0-1.76-.35-2.43-1.05s-1.01-1.53-1.01-2.51v-15.09c0-.97.34-1.8,1.01-2.49s1.48-1.03,2.43-1.03h17.26v-5.33h-17.26c-.95,0-1.76-.35-2.43-1.05s-1.01-1.53-1.01-2.51v-15.05c0-.97.34-1.81,1.01-2.51s1.48-1.05,2.43-1.05h6.91c.95,0,1.76.35,2.43,1.05s1.01,1.53,1.01,2.51c0,1.95.68,3.61,2.03,5,1.36,1.38,2.98,2.07,4.88,2.07h6.91Z"/>
    <path id="element-id-23319" class="cls-2" d="m23.35,312.3h453.31v6.01H23.35v-6.01Z"/>
    <path id="element-id-53735" class="cls-2" d="m476.65,430H23.35v-6.01h453.31v6.01Z"/>
  </g>
</svg>