<?xml version="1.0" encoding="UTF-8"?>
<svg id="Camada_1" data-name="Camada 1" xmlns="http://www.w3.org/2000/svg" viewBox="0 0 550 470">
  <defs>
    <style>
      .cls-1 {
        fill-rule: evenodd;
      }

      .cls-1, .cls-2 {
        fill: #ff9e1b;
      }
    </style>
  </defs>
  <g id="element-id-68350">
    <path id="element-id-60785" class="cls-1" d="m194.32,22.29c-24.8,10.49-46.76,25.3-65.88,44.42-19.12,19.12-33.93,41.08-44.42,65.88-10.86,25.68-16.29,52.57-16.29,80.68s5.43,55,16.29,80.68c3.63,8.59,7.78,16.84,12.45,24.75h18.8c-6.43-9.72-11.95-20.04-16.57-30.96-10.02-23.69-15.03-48.52-15.03-74.47s5.01-50.78,15.03-74.47c9.68-22.89,23.35-43.16,41.01-60.82,17.66-17.66,37.93-31.33,60.82-41.01,23.69-10.02,48.52-15.03,74.47-15.03s50.78,5.01,74.47,15.03c22.89,9.68,43.16,23.35,60.82,41.01,17.66,17.66,31.33,37.93,41.01,60.82,10.02,23.69,15.03,48.52,15.03,74.47s-5.01,50.78-15.03,74.47c-4.62,10.92-10.14,21.24-16.57,30.96h18.8c4.67-7.91,8.82-16.16,12.45-24.75,10.86-25.68,16.29-52.57,16.29-80.68s-5.43-55-16.29-80.68c-10.49-24.8-25.3-46.76-44.42-65.88-19.12-19.12-41.08-33.93-65.88-44.42-25.68-10.86-52.57-16.29-80.68-16.29s-55,5.43-80.68,16.29h0Zm179.22,296.42c47.2-63.18-14.63-144.85-14.63-144.85,8.42,15.66-8.87,81.23-34.14,111.08-10.66,12.63-18.13,23.84-23.27,33.78h72.04Zm-92.83,0c6.07-15.28,15.63-27.64,24.08-38.56,4.31-5.57,8.32-10.76,11.45-15.78C411.34,110.26,249.65,43.81,249.65,43.81c21.39,25.66,12.12,78.58-51.4,141.6-49.13,57.91-44.88,101.7-22.46,133.3h104.92Z"/>
  </g>
  <g>
    <path id="element-id-18559" class="cls-2" d="m21.92,361.59h0v66.6h40.54c2.26,0,4.17-.81,5.75-2.44s2.37-3.58,2.37-5.87v-18.74c0-2.47-.91-4.56-2.74-6.26,1.82-1.67,2.74-3.74,2.74-6.22v-18.74c0-2.29-.79-4.25-2.37-5.89s-3.49-2.46-5.75-2.46H21.92Zm16.23,8.35h0c0-1.14.39-2.13,1.18-2.95s1.74-1.23,2.85-1.23h8.12c1.11,0,2.06.41,2.85,1.23s1.18,1.8,1.18,2.95v18.74c0,1.14-.39,2.12-1.18,2.92s-1.74,1.21-2.85,1.21h-8.12c-1.11,0-2.06-.4-2.85-1.21s-1.18-1.78-1.18-2.92v-18.74Zm0,31.21h0c0-1.14.39-2.13,1.18-2.95s1.74-1.23,2.85-1.23h8.12c1.11,0,2.06.41,2.85,1.23s1.18,1.8,1.18,2.95v18.74c0,1.14-.39,2.13-1.18,2.95s-1.74,1.23-2.85,1.23h-8.12c-1.11,0-2.06-.41-2.85-1.23s-1.18-1.8-1.18-2.95v-18.74Z"/>
    <path id="element-id-31240" class="cls-2" d="m95.39,361.59h0c-2.23,0-4.14.82-5.73,2.46-1.59,1.64-2.39,3.6-2.39,5.89v49.95c0,2.29.8,4.24,2.39,5.87,1.59,1.62,3.5,2.44,5.73,2.44h32.42c2.26,0,4.17-.81,5.75-2.44s2.37-3.58,2.37-5.87v-49.95c0-2.29-.79-4.25-2.37-5.89s-3.49-2.46-5.75-2.46h-32.42Zm24.35,58.3h0c0,1.14-.4,2.13-1.21,2.95-.8.82-1.76,1.23-2.88,1.23h-8.12c-1.11,0-2.06-.41-2.85-1.23s-1.18-1.8-1.18-2.95v-49.95c0-1.14.39-2.13,1.18-2.95s1.74-1.23,2.85-1.23h8.12c1.11,0,2.07.41,2.88,1.23s1.21,1.8,1.21,2.95v49.95Z"/>
    <path id="element-id-22075" class="cls-2" d="m160.74,361.59h0c-2.23,0-4.14.82-5.73,2.46-1.59,1.64-2.39,3.6-2.39,5.89v49.95c0,2.29.8,4.24,2.39,5.87,1.59,1.62,3.5,2.44,5.73,2.44h32.42c2.26,0,4.17-.81,5.75-2.44s2.37-3.58,2.37-5.87v-49.95c0-2.29-.79-4.25-2.37-5.89s-3.49-2.46-5.75-2.46h-32.42Zm24.35,58.3h0c0,1.14-.4,2.13-1.21,2.95-.8.82-1.76,1.23-2.88,1.23h-8.12c-1.11,0-2.06-.41-2.85-1.23s-1.18-1.8-1.18-2.95v-49.95c0-1.14.39-2.13,1.18-2.95s1.74-1.23,2.85-1.23h8.12c1.11,0,2.07.41,2.88,1.23s1.21,1.8,1.21,2.95v49.95Z"/>
    <path id="element-id-15655" class="cls-2" d="m217.97,361.59h0v66.6h8.12c2.23,0,4.14-.81,5.73-2.44,1.59-1.62,2.39-3.58,2.39-5.87v-18.74c0-1.14.39-2.13,1.18-2.95s1.74-1.23,2.85-1.23h8.12c1.11,0,2.07.41,2.88,1.23s1.21,1.8,1.21,2.95v18.74c0,2.29.79,4.24,2.37,5.87,1.58,1.62,3.48,2.44,5.7,2.44h8.12v-24.95c0-2.29-.79-4.25-2.37-5.89-1.58-1.64-3.49-2.46-5.75-2.46,2.26,0,4.17-.81,5.75-2.44s2.37-3.58,2.37-5.87v-25h-8.12c-2.23,0-4.13.82-5.7,2.46-1.58,1.64-2.37,3.6-2.37,5.89v18.74c0,1.14-.4,2.12-1.21,2.92s-1.76,1.21-2.88,1.21h-8.12c-1.11,0-2.06-.4-2.85-1.21s-1.18-1.78-1.18-2.92v-18.74c0-2.29-.8-4.25-2.39-5.89-1.59-1.64-3.5-2.46-5.73-2.46h-8.12Z"/>
    <path id="element-id-66337" class="cls-2" d="m331.98,378.24h0v-16.65h-48.65v66.6h48.65v-16.65h-8.12c-2.23,0-4.14.82-5.73,2.46-1.59,1.64-2.39,3.6-2.39,5.89,0,1.14-.39,2.13-1.18,2.95s-1.74,1.23-2.85,1.23h-8.12c-1.11,0-2.06-.41-2.85-1.23s-1.18-1.8-1.18-2.95v-17.72c0-1.14.39-2.12,1.18-2.92s1.74-1.21,2.85-1.21h20.27v-6.26h-20.27c-1.11,0-2.06-.41-2.85-1.23s-1.18-1.8-1.18-2.95v-17.67c0-1.14.39-2.13,1.18-2.95s1.74-1.23,2.85-1.23h8.12c1.11,0,2.06.41,2.85,1.23s1.18,1.8,1.18,2.95c0,2.29.8,4.24,2.39,5.87,1.59,1.62,3.5,2.44,5.73,2.44h8.12Z"/>
    <path id="element-id-58436" class="cls-2" d="m356.75,361.59h0c-2.23,0-4.13.82-5.7,2.46-1.58,1.64-2.37,3.6-2.37,5.89v58.25h8.07c2.26,0,4.17-.81,5.75-2.44s2.37-3.58,2.37-5.87v-18.74c0-1.14.4-2.13,1.21-2.95s1.76-1.23,2.88-1.23h8.12c1.11,0,2.06.41,2.85,1.23s1.18,1.8,1.18,2.95v18.74c0,2.29.8,4.24,2.39,5.87,1.59,1.62,3.5,2.44,5.73,2.44h8.12v-58.25c0-2.29-.8-4.25-2.39-5.89-1.59-1.64-3.5-2.46-5.73-2.46h-32.47,0Zm24.35,27.09h0c0,1.14-.39,2.12-1.18,2.92s-1.74,1.21-2.85,1.21h-8.12c-1.11,0-2.07-.4-2.88-1.21s-1.21-1.78-1.21-2.92v-18.74c0-1.14.4-2.13,1.21-2.95s1.76-1.23,2.88-1.23h8.12c1.11,0,2.06.41,2.85,1.23s1.18,1.8,1.18,2.95v18.74Z"/>
    <path id="element-id-81696" class="cls-2" d="m434.34,392.8h0c-1.14,0-2.11-.4-2.9-1.21-.79-.8-1.18-1.78-1.18-2.92v-18.74c0-1.14.39-2.13,1.18-2.95s1.75-1.23,2.9-1.23h8.07c1.14,0,2.11.41,2.9,1.23.79.82,1.18,1.8,1.18,2.95h0c0,2.29.79,4.24,2.37,5.87,1.58,1.62,3.49,2.44,5.75,2.44h8.12v-8.3c0-2.29-.8-4.25-2.39-5.89-1.59-1.64-3.5-2.46-5.73-2.46h-32.47c-2.23,0-4.14.82-5.73,2.46-1.59,1.64-2.39,3.6-2.39,5.89v18.74c0,2.29.8,4.24,2.39,5.87,1.59,1.62,3.5,2.44,5.73,2.44h20.27c1.14,0,2.11.41,2.9,1.23.79.82,1.18,1.8,1.18,2.95v18.74c0,1.14-.39,2.13-1.18,2.95s-1.75,1.23-2.9,1.23h-8.07c-1.14,0-2.11-.41-2.9-1.23-.79-.82-1.18-1.8-1.18-2.95h0c0-2.29-.8-4.25-2.39-5.89-1.59-1.64-3.5-2.46-5.73-2.46h-8.12v8.35c0,2.29.8,4.24,2.39,5.87,1.59,1.62,3.5,2.44,5.73,2.44h32.47c2.23,0,4.14-.81,5.73-2.44s2.39-3.58,2.39-5.87v-18.74c0-2.29-.8-4.25-2.39-5.89-1.59-1.64-3.5-2.46-5.73-2.46h-20.27Z"/>
    <path id="element-id-91108" class="cls-2" d="m528.08,378.24h0v-16.65h-48.65v66.6h48.65v-16.65h-8.12c-2.23,0-4.14.82-5.73,2.46-1.59,1.64-2.39,3.6-2.39,5.89,0,1.14-.39,2.13-1.18,2.95s-1.74,1.23-2.85,1.23h-8.12c-1.11,0-2.06-.41-2.85-1.23s-1.18-1.8-1.18-2.95v-17.72c0-1.14.39-2.12,1.18-2.92s1.74-1.21,2.85-1.21h20.27v-6.26h-20.27c-1.11,0-2.06-.41-2.85-1.23s-1.18-1.8-1.18-2.95v-17.67c0-1.14.39-2.13,1.18-2.95s1.74-1.23,2.85-1.23h8.12c1.11,0,2.06.41,2.85,1.23s1.18,1.8,1.18,2.95c0,2.29.8,4.24,2.39,5.87,1.59,1.62,3.5,2.44,5.73,2.44h8.12Z"/>
    <path id="element-id-68257" class="cls-1" d="m8.83,325.77h532.35v7.06H8.83v-7.06Z"/>
    <path id="element-id-29023" class="cls-1" d="m541.17,464H8.83v-7.06h532.35v7.06Z"/>
  </g>
</svg>