<?xml version="1.0" encoding="UTF-8"?>
<svg id="Camada_1" data-name="Camada 1" xmlns="http://www.w3.org/2000/svg" viewBox="0 0 2000 480.85">
  <defs>
    <style>
      .cls-1 {
        fill: #f2cd00;
      }

      .cls-1, .cls-2, .cls-3 {
        fill-rule: evenodd;
      }

      .cls-4, .cls-3 {
        fill: #ff7300;
      }

      .cls-2, .cls-5 {
        fill: #ef9900;
      }
    </style>
  </defs>
  <g id="element-id-43585">
    <g id="element-id-43761">
      <path id="element-id-39799" class="cls-3" d="m180.33,37.93c25.37,30.45,14.38,93.24-60.98,168-143.75,169.41,97.63,237,97.63,237-20.38-61.08,7.22-96.75,28.76-124.58,5.11-6.6,9.88-12.75,13.58-18.71C372.17,116.78,180.33,37.96,180.33,37.96v-.03Z"/>
      <path id="element-id-83795" class="cls-2" d="m235.73,438.73c.71-1.64,7.98-9.22,59.15-44.28,110.83-75.75,15.07-202.24,15.07-202.24,10,18.57-10.52,96.37-40.51,131.79-51.02,60.4-40.44,93.51-35,110.54.49,1.52.93,2.91,1.29,4.19h0Z"/>
      <path id="element-id-80241" class="cls-1" d="m235.85,439.19c-.03-.15-.08-.3-.12-.46-.2.47.12.46.12.46Z"/>
    </g>
  </g>
  <path id="element-id-620" class="cls-4" d="m588.01,205.71l-17.38-17.38h-156.3v173.67h156.3l17.38-17.38v-52.16l-17.38-17.18,17.38-17.38v-52.21Zm-69.56,104.11h-34.55v-17.38h34.55v17.38Zm0-51.96h-34.55v-17.38h34.55v17.38Z"/>
  <path id="element-id-67529" class="cls-5" d="m779.32,205.71l-17.38-17.38h-138.89l-17.38,17.38v138.89l17.38,17.38h138.89l17.38-17.38v-138.89h0Zm-69.56,104.11h-34.55v-69.33h34.55v69.33Z"/>
  <path id="element-id-58014" class="cls-4" d="m970.59,205.71l-17.38-17.38h-138.89l-17.38,17.38v138.89l17.38,17.38h138.89l17.38-17.38v-138.89h0Zm-69.56,104.11h-34.55v-69.33h34.55v69.33Z"/>
  <path id="element-id-20832" class="cls-2" d="m1161.87,266.48l-17.38,17.38,26.19,25.96h182.26v52.16h-225.83l-60.74-60.74h-8.59v60.74h-69.56v-173.67h69.56v60.74h17.38l17.18-17.38v-43.37h69.56v78.15l-.03.03Z"/>
  <path id="element-id-31089" class="cls-3" d="m1179.25,205.71l17.38-17.38h138.89l17.38,17.38v42.48h-104.11v18.26h34.55v-8.59h69.56v17.18l-17.38,17.38h-138.89l-17.38-17.38v-69.33Zm104.11,8.59h-34.55v16.52h34.55v-16.52Z"/>
  <path id="element-id-83058" class="cls-2" d="m1561.61,205.71l17.38-17.38h347.35v51.96h-295.19v17.38h86.74l17.38,17.38v69.56l-17.38,17.38h-347.35v-52.16h295.19v-17.38h-86.74l-17.38-17.38v-69.36Z"/>
  <path id="element-id-34747" class="cls-3" d="m1370.76,205.71l17.18-17.38h138.89l17.38,17.38v86.74h-69.56v-17.38h-34.55v17.38h-69.56v-86.74h.23Zm103.89,17.38h-34.55v17.18h34.55v-17.18Z"/>
  <path id="element-id-56205" class="cls-2" d="m1752.69,275.04l17.38-17.18h138.89l17.38,17.38v42.48h-104.11v18.26h34.55v-8.82h69.56v17.38l-17.38,17.38h-138.89l-17.38-17.38v-69.56.06Zm104.11,8.82h-34.55v16.52h34.55v-16.52Z"/>
</svg>