<?xml version="1.0" encoding="UTF-8"?>
<svg id="Camada_1" data-name="Camada 1" xmlns="http://www.w3.org/2000/svg" viewBox="0 0 2000 480.85">
  <defs>
    <style>
      .cls-1, .cls-2 {
        fill: #fff;
      }

      .cls-2 {
        fill-rule: evenodd;
      }
    </style>
  </defs>
  <path id="element-id-34377" class="cls-2" d="m354.22,440.79c68.82-92.11-21.33-211.17-21.33-211.17,12.29,22.83-12.93,118.41-49.77,161.92-15.54,18.4-26.43,34.74-33.92,49.24h105.03,0Zm-135.33,0c8.85-22.28,22.78-40.29,35.11-56.21,6.27-8.11,12.14-15.69,16.68-23C409.34,136.92,173.62,40.06,173.62,40.06c31.18,37.4,17.67,114.56-74.93,206.42-71.62,84.41-65.43,148.24-32.75,194.32h152.95Z"/>
  <g>
    <path id="element-id-94078" class="cls-1" d="m450.83,142.62h0v198.25h120.66c6.71,0,12.42-2.42,17.12-7.24s7.03-10.66,7.03-17.45v-55.77c0-7.36-2.72-13.59-8.14-18.65,5.42-4.97,8.14-11.14,8.14-18.5v-55.77c0-6.82-2.33-12.66-7.03-17.54-4.7-4.88-10.39-7.3-17.12-7.3h-120.66v-.03Zm48.31,24.84h0c0-3.41,1.17-6.32,3.53-8.77s5.18-3.65,8.5-3.65h24.16c3.32,0,6.14,1.23,8.5,3.65,2.36,2.42,3.53,5.36,3.53,8.77v55.77c0,3.41-1.17,6.32-3.53,8.71-2.36,2.39-5.18,3.59-8.5,3.59h-24.16c-3.32,0-6.14-1.2-8.5-3.59s-3.53-5.3-3.53-8.71v-55.77Zm0,92.91h0c0-3.41,1.17-6.32,3.53-8.77,2.36-2.45,5.18-3.65,8.5-3.65h24.16c3.32,0,6.14,1.23,8.5,3.65,2.36,2.42,3.53,5.36,3.53,8.77v55.77c0,3.41-1.17,6.32-3.53,8.77-2.36,2.45-5.18,3.65-8.5,3.65h-24.16c-3.32,0-6.14-1.23-8.5-3.65-2.36-2.42-3.53-5.36-3.53-8.77v-55.77Z"/>
    <path id="element-id-46495" class="cls-1" d="m669.53,142.62h0c-6.62,0-12.3,2.42-17.06,7.3-4.73,4.88-7.12,10.72-7.12,17.54v148.68c0,6.82,2.36,12.63,7.12,17.45,4.73,4.82,10.42,7.24,17.06,7.24h96.51c6.71,0,12.42-2.42,17.12-7.24,4.7-4.82,7.03-10.66,7.03-17.45v-148.68c0-6.82-2.33-12.66-7.03-17.54s-10.39-7.3-17.12-7.3c0,0-96.51,0-96.51,0Zm72.47,173.52h0c0,3.41-1.2,6.32-3.59,8.77-2.39,2.42-5.24,3.65-8.56,3.65h-24.16c-3.32,0-6.14-1.23-8.5-3.65-2.36-2.42-3.53-5.36-3.53-8.77v-148.68c0-3.41,1.17-6.32,3.53-8.77,2.36-2.45,5.18-3.65,8.5-3.65h24.16c3.32,0,6.17,1.23,8.56,3.65,2.39,2.42,3.59,5.36,3.59,8.77v148.68h0Z"/>
    <path id="element-id-328" class="cls-1" d="m864.03,142.62h0c-6.62,0-12.3,2.42-17.06,7.3-4.73,4.88-7.12,10.72-7.12,17.54v148.68c0,6.82,2.36,12.63,7.12,17.45,4.73,4.82,10.42,7.24,17.06,7.24h96.51c6.71,0,12.42-2.42,17.12-7.24,4.7-4.82,7.03-10.66,7.03-17.45v-148.68c0-6.82-2.33-12.66-7.03-17.54-4.7-4.88-10.39-7.3-17.12-7.3h-96.51Zm72.47,173.52h0c0,3.41-1.2,6.32-3.59,8.77-2.39,2.42-5.24,3.65-8.56,3.65h-24.16c-3.32,0-6.14-1.23-8.5-3.65-2.36-2.42-3.53-5.36-3.53-8.77v-148.68c0-3.41,1.17-6.32,3.53-8.77s5.18-3.65,8.5-3.65h24.16c3.32,0,6.17,1.23,8.56,3.65s3.59,5.36,3.59,8.77v148.68h0Z"/>
    <path id="element-id-55413" class="cls-1" d="m1034.39,142.62h0v198.25h24.16c6.62,0,12.3-2.42,17.06-7.24,4.73-4.82,7.12-10.66,7.12-17.45v-55.77c0-3.41,1.17-6.32,3.53-8.77,2.36-2.45,5.18-3.65,8.5-3.65h24.16c3.32,0,6.17,1.23,8.56,3.65,2.39,2.42,3.59,5.36,3.59,8.77v55.77c0,6.82,2.33,12.63,7.03,17.45,4.7,4.82,10.36,7.24,16.97,7.24h24.16v-74.27c0-6.82-2.33-12.66-7.03-17.54-4.7-4.88-10.39-7.3-17.12-7.3,6.71,0,12.42-2.42,17.12-7.24,4.7-4.82,7.03-10.66,7.03-17.45v-74.41h-24.16c-6.62,0-12.27,2.42-16.97,7.3-4.7,4.88-7.03,10.72-7.03,17.54v55.77c0,3.41-1.2,6.32-3.59,8.71s-5.24,3.59-8.56,3.59h-24.16c-3.32,0-6.14-1.2-8.5-3.59-2.36-2.39-3.53-5.3-3.53-8.71v-55.77c0-6.82-2.36-12.66-7.12-17.54-4.73-4.88-10.42-7.3-17.06-7.3h-24.16v-.03Z"/>
    <path id="element-id-66464" class="cls-1" d="m1373.74,192.19h0v-49.57h-144.82v198.25h144.82v-49.57h-24.16c-6.62,0-12.3,2.42-17.06,7.3-4.73,4.88-7.12,10.72-7.12,17.54,0,3.41-1.17,6.32-3.53,8.77s-5.18,3.65-8.5,3.65h-24.16c-3.32,0-6.14-1.23-8.5-3.65s-3.53-5.36-3.53-8.77v-52.74c0-3.41,1.17-6.32,3.53-8.71,2.36-2.39,5.18-3.59,8.5-3.59h60.32v-18.65h-60.32c-3.32,0-6.14-1.23-8.5-3.65s-3.53-5.36-3.53-8.77v-52.59c0-3.41,1.17-6.32,3.53-8.77s5.18-3.65,8.5-3.65h24.16c3.32,0,6.14,1.23,8.5,3.65s3.53,5.36,3.53,8.77c0,6.82,2.36,12.63,7.12,17.45,4.73,4.82,10.42,7.24,17.06,7.24h24.16v.06Z"/>
    <path id="element-id-74967" class="cls-1" d="m1447.47,142.62h0c-6.62,0-12.27,2.42-16.97,7.3-4.7,4.88-7.03,10.72-7.03,17.54v173.4h24.01c6.71,0,12.42-2.42,17.12-7.24,4.7-4.82,7.03-10.66,7.03-17.45v-55.77c0-3.41,1.2-6.32,3.59-8.77,2.39-2.45,5.24-3.65,8.56-3.65h24.16c3.32,0,6.14,1.23,8.5,3.65,2.36,2.42,3.53,5.36,3.53,8.77v55.77c0,6.82,2.36,12.63,7.12,17.45,4.73,4.82,10.42,7.24,17.06,7.24h24.16v-173.4c0-6.82-2.36-12.66-7.12-17.54-4.73-4.88-10.42-7.3-17.06-7.3h-96.66Zm72.47,80.61h0c0,3.41-1.17,6.32-3.53,8.71s-5.18,3.59-8.5,3.59h-24.16c-3.32,0-6.17-1.2-8.56-3.59-2.39-2.39-3.59-5.3-3.59-8.71v-55.77c0-3.41,1.2-6.32,3.59-8.77,2.39-2.45,5.24-3.65,8.56-3.65h24.16c3.32,0,6.14,1.23,8.5,3.65,2.36,2.42,3.53,5.36,3.53,8.77v55.77Z"/>
    <path id="element-id-9245" class="cls-1" d="m1678.44,235.54h0c-3.41,0-6.29-1.2-8.62-3.59-2.33-2.39-3.53-5.3-3.53-8.71v-55.77c0-3.41,1.17-6.32,3.53-8.77,2.36-2.45,5.21-3.65,8.62-3.65h24.01c3.41,0,6.29,1.23,8.62,3.65,2.33,2.42,3.53,5.36,3.53,8.77h0c0,6.82,2.33,12.63,7.03,17.45,4.7,4.82,10.39,7.24,17.12,7.24h24.16v-24.73c0-6.82-2.36-12.66-7.12-17.54-4.73-4.88-10.42-7.3-17.06-7.3h-96.63c-6.62,0-12.3,2.42-17.06,7.3-4.73,4.88-7.12,10.72-7.12,17.54v55.77c0,6.82,2.36,12.63,7.12,17.45,4.73,4.82,10.42,7.24,17.06,7.24h60.32c3.41,0,6.29,1.23,8.62,3.65s3.53,5.36,3.53,8.77v55.77c0,3.41-1.17,6.32-3.53,8.77s-5.21,3.65-8.62,3.65h-24.01c-3.41,0-6.29-1.23-8.62-3.65s-3.53-5.36-3.53-8.77h0c0-6.82-2.36-12.66-7.12-17.54-4.73-4.88-10.42-7.3-17.06-7.3h-24.16v24.84c0,6.82,2.36,12.63,7.12,17.45,4.73,4.82,10.42,7.24,17.06,7.24h96.63c6.62,0,12.3-2.42,17.06-7.24s7.12-10.66,7.12-17.45v-55.77c0-6.82-2.36-12.66-7.12-17.54-4.73-4.88-10.42-7.3-17.06-7.3h-60.32l.03.06Z"/>
    <path id="element-id-1763" class="cls-1" d="m1957.45,192.19h0v-49.57h-144.82v198.25h144.82v-49.57h-24.16c-6.62,0-12.3,2.42-17.06,7.3-4.73,4.88-7.12,10.72-7.12,17.54,0,3.41-1.17,6.32-3.53,8.77-2.36,2.45-5.18,3.65-8.5,3.65h-24.16c-3.32,0-6.14-1.23-8.5-3.65-2.36-2.42-3.53-5.36-3.53-8.77v-52.74c0-3.41,1.17-6.32,3.53-8.71,2.36-2.39,5.18-3.59,8.5-3.59h60.32v-18.65h-60.32c-3.32,0-6.14-1.23-8.5-3.65-2.36-2.42-3.53-5.36-3.53-8.77v-52.59c0-3.41,1.17-6.32,3.53-8.77,2.36-2.45,5.18-3.65,8.5-3.65h24.16c3.32,0,6.14,1.23,8.5,3.65,2.36,2.42,3.53,5.36,3.53,8.77,0,6.82,2.36,12.63,7.12,17.45,4.73,4.82,10.42,7.24,17.06,7.24h24.16v.06Z"/>
  </g>
</svg>